AmiriLatin-Bold.ufo
<glyph name="numbersign" format="2">
  <advance width="463"/>
  <unicode hex="0023"/>
  <outline>
    <contour>
      <point x="399" y="331" type="curve"/>
      <point x="244" y="331"/>
      <point x="243" y="331"/>
      <point x="77" y="331" type="curve"/>
      <point x="65" y="331"/>
      <point x="80" y="392"/>
      <point x="93" y="396" type="curve"/>
      <point x="411" y="396" type="line"/>
      <point x="425" y="396"/>
      <point x="412" y="337"/>
    </contour>
    <contour>
      <point x="371" y="145" type="curve"/>
      <point x="216" y="145"/>
      <point x="216" y="145"/>
      <point x="50" y="145" type="curve"/>
      <point x="38" y="145"/>
      <point x="54" y="206"/>
      <point x="67" y="210" type="curve"/>
      <point x="385" y="210" type="line"/>
      <point x="399" y="210"/>
      <point x="384" y="151"/>
    </contour>
    <contour>
      <point x="370" y="516" type="curve"/>
      <point x="293" y="35" type="line" smooth="yes"/>
      <point x="292" y="31"/>
      <point x="278" y="22"/>
      <point x="263" y="22" type="curve" smooth="yes"/>
      <point x="253" y="22"/>
      <point x="252" y="26"/>
      <point x="252" y="26" type="curve"/>
      <point x="329" y="506" type="line"/>
      <point x="332" y="515"/>
      <point x="339" y="519"/>
      <point x="358" y="519" type="curve" smooth="yes"/>
      <point x="367" y="519"/>
      <point x="367" y="518"/>
    </contour>
    <contour>
      <point x="213" y="516" type="curve"/>
      <point x="135" y="35" type="line" smooth="yes"/>
      <point x="134" y="31"/>
      <point x="121" y="22"/>
      <point x="106" y="22" type="curve" smooth="yes"/>
      <point x="96" y="22"/>
      <point x="95" y="26"/>
      <point x="95" y="26" type="curve"/>
      <point x="172" y="506" type="line"/>
      <point x="175" y="515"/>
      <point x="181" y="519"/>
      <point x="200" y="519" type="curve" smooth="yes"/>
      <point x="209" y="519"/>
      <point x="210" y="518"/>
    </contour>
  </outline>
</glyph>
<glyph name="dollar" format="2">
  <advance width="505"/>
  <unicode hex="0024"/>
  <outline>
    <contour>
      <point x="259" y="626" type="curve" smooth="yes"/>
      <point x="314" y="626"/>
      <point x="359" y="612"/>
      <point x="416" y="600" type="curve"/>
      <point x="421" y="550"/>
      <point x="423" y="501"/>
      <point x="426" y="444" type="curve"/>
      <point x="423" y="440"/>
      <point x="420" y="439"/>
      <point x="416" y="439" type="curve" smooth="yes"/>
      <point x="413" y="439"/>
      <point x="390" y="437"/>
      <point x="388" y="445" type="curve" smooth="yes"/>
      <point x="380" y="498"/>
      <point x="336" y="587"/>
      <point x="264" y="587" type="curve" smooth="yes"/>
      <point x="228" y="587"/>
      <point x="184" y="568"/>
      <point x="184" y="506" type="curve" smooth="yes"/>
      <point x="184" y="448"/>
      <point x="257" y="392"/>
      <point x="319" y="353" type="curve" smooth="yes"/>
      <point x="381" y="313"/>
      <point x="457" y="287"/>
      <point x="457" y="163" type="curve" smooth="yes"/>
      <point x="457" y="60"/>
      <point x="356" y="-10"/>
      <point x="253" y="-10" type="curve" smooth="yes"/>
      <point x="198" y="-10"/>
      <point x="131" y="2"/>
      <point x="75" y="15" type="curve"/>
      <point x="65" y="56"/>
      <point x="55" y="148"/>
      <point x="53" y="174" type="curve"/>
      <point x="57" y="180"/>
      <point x="75" y="187"/>
      <point x="80" y="187" type="curve" smooth="yes"/>
      <point x="87" y="187"/>
      <point x="91" y="185"/>
      <point x="92" y="179" type="curve" smooth="yes"/>
      <point x="101" y="128"/>
      <point x="159" y="29"/>
      <point x="243" y="29" type="curve" smooth="yes"/>
      <point x="278" y="29"/>
      <point x="334" y="46"/>
      <point x="334" y="121" type="curve" smooth="yes"/>
      <point x="334" y="194"/>
      <point x="243" y="243"/>
      <point x="196" y="275" type="curve" smooth="yes"/>
      <point x="128" y="321"/>
      <point x="60" y="359"/>
      <point x="60" y="457" type="curve" smooth="yes"/>
      <point x="60" y="554"/>
      <point x="162" y="626"/>
    </contour>
    <contour>
      <point x="281" y="652" type="line"/>
      <point x="289" y="652"/>
      <point x="319" y="652"/>
      <point x="319" y="645" type="curve"/>
      <point x="208" y="-39" type="line"/>
      <point x="199" y="-39"/>
      <point x="170" y="-37"/>
      <point x="170" y="-30" type="curve"/>
    </contour>
  </outline>
</glyph>
<glyph name="percent" format="2">
  <advance width="669"/>
  <unicode hex="0025"/>
  <outline>
    <contour>
      <point x="183" y="597" type="curve" smooth="yes"/>
      <point x="135" y="597"/>
      <point x="131" y="535"/>
      <point x="131" y="488" type="curve" smooth="yes"/>
      <point x="131" y="431"/>
      <point x="150" y="359"/>
      <point x="198" y="359" type="curve" smooth="yes"/>
      <point x="246" y="359"/>
      <point x="251" y="420"/>
      <point x="251" y="466" type="curve" smooth="yes"/>
      <point x="251" y="524"/>
      <point x="231" y="597"/>
    </contour>
    <contour>
      <point x="190" y="626" type="curve" smooth="yes"/>
      <point x="280" y="626"/>
      <point x="344" y="563"/>
      <point x="344" y="480" type="curve" smooth="yes"/>
      <point x="344" y="398"/>
      <point x="277" y="329"/>
      <point x="191" y="329" type="curve" smooth="yes"/>
      <point x="100" y="329"/>
      <point x="38" y="394"/>
      <point x="38" y="476" type="curve" smooth="yes"/>
      <point x="38" y="558"/>
      <point x="104" y="626"/>
    </contour>
    <contour>
      <point x="473" y="268" type="curve" smooth="yes"/>
      <point x="425" y="268"/>
      <point x="421" y="206"/>
      <point x="421" y="159" type="curve" smooth="yes"/>
      <point x="421" y="102"/>
      <point x="440" y="30"/>
      <point x="488" y="30" type="curve" smooth="yes"/>
      <point x="536" y="30"/>
      <point x="541" y="91"/>
      <point x="541" y="137" type="curve" smooth="yes"/>
      <point x="541" y="195"/>
      <point x="521" y="268"/>
    </contour>
    <contour>
      <point x="480" y="297" type="curve" smooth="yes"/>
      <point x="570" y="297"/>
      <point x="634" y="234"/>
      <point x="634" y="151" type="curve" smooth="yes"/>
      <point x="634" y="69"/>
      <point x="567" y="0"/>
      <point x="481" y="0" type="curve" smooth="yes"/>
      <point x="390" y="0"/>
      <point x="328" y="64"/>
      <point x="328" y="146" type="curve" smooth="yes"/>
      <point x="328" y="228"/>
      <point x="394" y="297"/>
    </contour>
    <contour>
      <point x="608" y="620" type="curve"/>
      <point x="104" y="-5" type="line" smooth="yes"/>
      <point x="100" y="-11"/>
      <point x="81" y="-20"/>
      <point x="64" y="-20" type="curve" smooth="yes"/>
      <point x="49" y="-20"/>
      <point x="50" y="-8"/>
      <point x="50" y="-8" type="curve"/>
      <point x="554" y="617" type="line"/>
      <point x="562" y="624"/>
      <point x="576" y="630"/>
      <point x="593" y="630" type="curve" smooth="yes"/>
      <point x="602" y="630"/>
      <point x="608" y="625"/>
    </contour>
  </outline>
</glyph>
<glyph name="ampersand" format="2">
	<unicode hex="0026"/>
	<advance width="679"/>
	<outline>
		<contour>
			<point x="373" y="93" type="curve"/>
			<point x="346" y="130"/>
			<point x="253" y="258"/>
			<point x="219" y="306" type="curve"/>
			<point x="198" y="287"/>
			<point x="182" y="260"/>
			<point x="182" y="215" type="curve" smooth="yes"/>
			<point x="182" y="151"/>
			<point x="222" y="70"/>
			<point x="311" y="70" type="curve" smooth="yes"/>
			<point x="344" y="70"/>
			<point x="360" y="82"/>
		</contour>
		<contour>
			<point x="305" y="595" type="curve" smooth="yes"/>
			<point x="271" y="595"/>
			<point x="249" y="561"/>
			<point x="249" y="514" type="curve" smooth="yes"/>
			<point x="249" y="463"/>
			<point x="280" y="419"/>
			<point x="297" y="397" type="curve"/>
			<point x="340" y="419"/>
			<point x="360" y="456"/>
			<point x="360" y="501" type="curve" smooth="yes"/>
			<point x="360" y="532"/>
			<point x="349" y="595"/>
		</contour>
		<contour>
			<point x="288" y="630" type="curve" smooth="yes"/>
			<point x="387" y="630"/>
			<point x="461" y="585"/>
			<point x="461" y="517" type="curve" smooth="yes"/>
			<point x="461" y="429"/>
			<point x="382" y="382"/>
			<point x="322" y="361" type="curve"/>
			<point x="349" y="325"/>
			<point x="429" y="217"/>
			<point x="459" y="177" type="curve"/>
			<point x="482" y="204"/>
			<point x="519" y="244"/>
			<point x="519" y="256" type="curve" smooth="yes"/>
			<point x="519" y="278"/>
			<point x="478" y="271"/>
			<point x="471" y="273" type="curve"/>
			<point x="467" y="279"/>
			<point x="467" y="303"/>
			<point x="472" y="305" type="curve"/>
			<point x="538" y="304" type="line" smooth="yes"/>
			<point x="572" y="303"/>
			<point x="619" y="305"/>
			<point x="663" y="307" type="curve"/>
			<point x="667" y="305"/>
			<point x="667" y="280"/>
			<point x="661" y="274" type="curve"/>
			<point x="654" y="273"/>
			<point x="611" y="274"/>
			<point x="594" y="260" type="curve" smooth="yes"/>
			<point x="580" y="249"/>
			<point x="512" y="169"/>
			<point x="486" y="142" type="curve"/>
			<point x="493" y="134"/>
			<point x="538" y="78"/>
			<point x="559" y="78" type="curve" smooth="yes"/>
			<point x="586" y="78"/>
			<point x="610" y="116"/>
			<point x="621" y="130" type="curve"/>
			<point x="630" y="130"/>
			<point x="641" y="122"/>
			<point x="646" y="112" type="curve"/>
			<point x="642" y="100"/>
			<point x="568" y="-3"/>
			<point x="507" y="-3" type="curve" smooth="yes"/>
			<point x="454" y="-3"/>
			<point x="426" y="28"/>
			<point x="399" y="59" type="curve"/>
			<point x="355" y="17"/>
			<point x="296" y="-4"/>
			<point x="231" y="-4" type="curve" smooth="yes"/>
			<point x="150" y="-4"/>
			<point x="55" y="53"/>
			<point x="55" y="152" type="curve" smooth="yes"/>
			<point x="55" y="266"/>
			<point x="138" y="313"/>
			<point x="191" y="346" type="curve"/>
			<point x="170" y="376"/>
			<point x="136" y="414"/>
			<point x="136" y="479" type="curve" smooth="yes"/>
			<point x="136" y="567"/>
			<point x="196" y="630"/>
		</contour>
	</outline>
</glyph>
<glyph name="hyphen" format="2">
  <advance width="366"/>
  <unicode hex="002D"/>
  <outline>
    <contour>
      <point x="69" y="261" type="curve"/>
      <point x="69" y="261"/>
      <point x="273" y="271"/>
      <point x="305" y="272" type="curve" smooth="yes"/>
      <point x="309" y="272"/>
      <point x="312" y="272"/>
      <point x="312" y="264" type="curve" smooth="yes"/>
      <point x="312" y="247"/>
      <point x="305" y="222"/>
      <point x="297" y="205" type="curve"/>
      <point x="251" y="202"/>
      <point x="151" y="198"/>
      <point x="62" y="194" type="curve" smooth="yes"/>
      <point x="57" y="194"/>
      <point x="55" y="196"/>
      <point x="55" y="205" type="curve" smooth="yes"/>
      <point x="55" y="224"/>
      <point x="62" y="246"/>
    </contour>
  </outline>
</glyph>
<glyph name="two" format="2">
	<unicode hex="0032"/>
	<advance width="532"/>
	<outline>
		<contour>
			<point x="478" y="188" type="curve"/>
			<point x="467" y="142"/>
			<point x="425" y="19"/>
			<point x="419" y="0" type="curve"/>
			<point x="63" y="0" type="line"/>
			<point x="58" y="5"/>
			<point x="56" y="13"/>
			<point x="55" y="18" type="curve"/>
			<point x="130" y="101"/>
			<point x="190" y="158"/>
			<point x="258" y="265" type="curve" smooth="yes"/>
			<point x="303" y="336"/>
			<point x="314" y="394"/>
			<point x="314" y="438" type="curve" smooth="yes"/>
			<point x="314" y="502"/>
			<point x="263" y="551"/>
			<point x="210" y="551" type="curve" smooth="yes"/>
			<point x="142" y="551"/>
			<point x="106" y="489"/>
			<point x="98" y="481" type="curve"/>
			<point x="93" y="481"/>
			<point x="77" y="490"/>
			<point x="77" y="505" type="curve"/>
			<point x="94" y="542"/>
			<point x="163" y="627"/>
			<point x="272" y="627" type="curve" smooth="yes"/>
			<point x="366" y="627"/>
			<point x="442" y="568"/>
			<point x="442" y="463" type="curve" smooth="yes"/>
			<point x="442" y="403"/>
			<point x="413" y="346"/>
			<point x="368" y="293" type="curve" smooth="yes"/>
			<point x="314" y="231"/>
			<point x="252" y="162"/>
			<point x="185" y="100" type="curve"/>
			<point x="353" y="100" type="line" smooth="yes"/>
			<point x="412" y="100"/>
			<point x="428" y="152"/>
			<point x="444" y="187" type="curve" smooth="yes"/>
			<point x="446" y="192"/>
			<point x="452" y="193"/>
			<point x="458" y="193" type="curve" smooth="yes"/>
			<point x="465" y="193"/>
			<point x="473" y="192"/>
		</contour>
	</outline>
</glyph>
<glyph name="four" format="2">
	<unicode hex="0034"/>
	<advance width="532"/>
	<outline>
		<contour>
			<point x="402" y="629" type="curve" smooth="yes"/>
			<point x="408" y="629"/>
			<point x="428" y="614"/>
			<point x="428" y="602" type="curve" smooth="yes"/>
			<point x="428" y="236" type="line"/>
			<point x="473" y="236" type="line" smooth="yes"/>
			<point x="480" y="236"/>
			<point x="486" y="218"/>
			<point x="486" y="190" type="curve" smooth="yes"/>
			<point x="486" y="175"/>
			<point x="477" y="170"/>
			<point x="477" y="170" type="curve"/>
			<point x="428" y="170" type="line"/>
			<point x="428" y="4" type="line"/>
			<point x="428" y="4"/>
			<point x="402" y="-5"/>
			<point x="361" y="-5" type="curve" smooth="yes"/>
			<point x="328" y="-5"/>
			<point x="305" y="-1"/>
			<point x="305" y="8" type="curve" smooth="yes"/>
			<point x="305" y="170" type="line"/>
			<point x="57" y="170" type="line"/>
			<point x="49" y="174"/>
			<point x="47" y="181"/>
			<point x="47" y="194" type="curve"/>
			<point x="164" y="340"/>
			<point x="279" y="486"/>
			<point x="383" y="615" type="curve" smooth="yes"/>
			<point x="390" y="623"/>
			<point x="394" y="629"/>
		</contour>
		<contour>
			<point x="305" y="455" type="line"/>
			<point x="131" y="236" type="line"/>
			<point x="305" y="236" type="line"/>
		</contour>
	</outline>
</glyph>
<glyph name="five" format="2">
  <advance width="532"/>
  <unicode hex="0035"/>
  <outline>
    <contour>
      <point x="271" y="413" type="curve" smooth="yes"/>
      <point x="367" y="413"/>
      <point x="466" y="328"/>
      <point x="466" y="225" type="curve" smooth="yes"/>
      <point x="466" y="87"/>
      <point x="335" y="-6"/>
      <point x="210" y="-6" type="curve" smooth="yes"/>
      <point x="147" y="-6"/>
      <point x="98" y="14"/>
      <point x="78" y="30" type="curve"/>
      <point x="71" y="39"/>
      <point x="66" y="62"/>
      <point x="66" y="72" type="curve" smooth="yes"/>
      <point x="66" y="95"/>
      <point x="84" y="124"/>
      <point x="117" y="124" type="curve" smooth="yes"/>
      <point x="143" y="124"/>
      <point x="164" y="97"/>
      <point x="180" y="78" type="curve" smooth="yes"/>
      <point x="198" y="57"/>
      <point x="224" y="35"/>
      <point x="249" y="35" type="curve" smooth="yes"/>
      <point x="310" y="35"/>
      <point x="341" y="86"/>
      <point x="341" y="174" type="curve" smooth="yes"/>
      <point x="341" y="263"/>
      <point x="262" y="320"/>
      <point x="206" y="320" type="curve" smooth="yes"/>
      <point x="144" y="320"/>
      <point x="126" y="311"/>
      <point x="116" y="307" type="curve"/>
      <point x="110" y="307"/>
      <point x="106" y="320"/>
      <point x="106" y="326" type="curve"/>
      <point x="107" y="329"/>
      <point x="153" y="571"/>
      <point x="161" y="620" type="curve"/>
      <point x="203" y="620"/>
      <point x="273" y="620"/>
      <point x="335" y="620" type="curve" smooth="yes"/>
      <point x="376" y="620"/>
      <point x="411" y="628"/>
      <point x="425" y="631" type="curve"/>
      <point x="430" y="629"/>
      <point x="438" y="628"/>
      <point x="438" y="617" type="curve" smooth="yes"/>
      <point x="438" y="600"/>
      <point x="408" y="536"/>
      <point x="401" y="523" type="curve"/>
      <point x="350" y="518"/>
      <point x="297" y="517"/>
      <point x="255" y="516" type="curve" smooth="yes"/>
      <point x="224" y="515"/>
      <point x="199" y="515"/>
      <point x="189" y="515" type="curve"/>
      <point x="187" y="505"/>
      <point x="167" y="400"/>
      <point x="167" y="400" type="curve"/>
      <point x="191" y="406"/>
      <point x="235" y="413"/>
    </contour>
  </outline>
</glyph>
<glyph name="six" format="2">
  <advance width="532"/>
  <unicode hex="0036"/>
  <outline>
    <contour>
      <point x="198" y="319" type="curve"/>
      <point x="193" y="285"/>
      <point x="191" y="243"/>
      <point x="191" y="216" type="curve" smooth="yes"/>
      <point x="191" y="134"/>
      <point x="211" y="35"/>
      <point x="273" y="35" type="curve" smooth="yes"/>
      <point x="311" y="35"/>
      <point x="341" y="90"/>
      <point x="341" y="178" type="curve" smooth="yes"/>
      <point x="341" y="261"/>
      <point x="316" y="338"/>
      <point x="247" y="338" type="curve" smooth="yes"/>
      <point x="235" y="338"/>
      <point x="212" y="333"/>
    </contour>
    <contour>
      <point x="290" y="396" type="curve" smooth="yes"/>
      <point x="385" y="396"/>
      <point x="469" y="344"/>
      <point x="469" y="202" type="curve" smooth="yes"/>
      <point x="469" y="88"/>
      <point x="367" y="-6"/>
      <point x="263" y="-6" type="curve" smooth="yes"/>
      <point x="154" y="-6"/>
      <point x="63" y="109"/>
      <point x="63" y="236" type="curve" smooth="yes"/>
      <point x="63" y="344"/>
      <point x="119" y="438"/>
      <point x="177" y="499" type="curve" smooth="yes"/>
      <point x="261" y="588"/>
      <point x="361" y="621"/>
      <point x="427" y="630" type="curve"/>
      <point x="435" y="624"/>
      <point x="436" y="614"/>
      <point x="434" y="604" type="curve"/>
      <point x="311" y="553"/>
      <point x="241" y="470"/>
      <point x="210" y="371" type="curve"/>
      <point x="235" y="386"/>
      <point x="266" y="396"/>
    </contour>
  </outline>
</glyph>
<glyph name="nine" format="2">
	<unicode hex="0039"/>
	<advance width="532"/>
	<outline>
		<contour>
			<point x="334" y="305" type="curve"/>
			<point x="340" y="333"/>
			<point x="341" y="377"/>
			<point x="341" y="408" type="curve" smooth="yes"/>
			<point x="341" y="490"/>
			<point x="321" y="589"/>
			<point x="259" y="589" type="curve" smooth="yes"/>
			<point x="221" y="589"/>
			<point x="191" y="534"/>
			<point x="191" y="446" type="curve" smooth="yes"/>
			<point x="191" y="363"/>
			<point x="216" y="286"/>
			<point x="285" y="286" type="curve" smooth="yes"/>
			<point x="297" y="286"/>
			<point x="320" y="291"/>
		</contour>
		<contour>
			<point x="99" y="20" type="curve"/>
			<point x="222" y="71"/>
			<point x="291" y="154"/>
			<point x="322" y="253" type="curve"/>
			<point x="297" y="238"/>
			<point x="266" y="229"/>
			<point x="242" y="229" type="curve" smooth="yes"/>
			<point x="147" y="229"/>
			<point x="63" y="280"/>
			<point x="63" y="422" type="curve" smooth="yes"/>
			<point x="63" y="536"/>
			<point x="166" y="630"/>
			<point x="270" y="630" type="curve" smooth="yes"/>
			<point x="379" y="630"/>
			<point x="469" y="515"/>
			<point x="469" y="388" type="curve" smooth="yes"/>
			<point x="469" y="280"/>
			<point x="413" y="186"/>
			<point x="355" y="125" type="curve" smooth="yes"/>
			<point x="271" y="36"/>
			<point x="171" y="3"/>
			<point x="105" y="-6" type="curve"/>
			<point x="97" y="0"/>
			<point x="97" y="10"/>
		</contour>
	</outline>
</glyph>
<glyph name="colon" format="2">
  <advance width="255"/>
  <unicode hex="003A"/>
  <outline>
    <contour>
      <point x="55" y="350" type="curve" smooth="yes"/>
      <point x="55" y="389"/>
      <point x="88" y="421"/>
      <point x="128" y="421" type="curve" smooth="yes"/>
      <point x="169" y="421"/>
      <point x="201" y="386"/>
      <point x="201" y="347" type="curve" smooth="yes"/>
      <point x="201" y="308"/>
      <point x="169" y="274"/>
      <point x="129" y="274" type="curve" smooth="yes"/>
      <point x="88" y="274"/>
      <point x="55" y="308"/>
    </contour>
    <contour>
      <point x="55" y="64" type="curve" smooth="yes"/>
      <point x="55" y="103"/>
      <point x="88" y="136"/>
      <point x="128" y="136" type="curve" smooth="yes"/>
      <point x="169" y="136"/>
      <point x="201" y="101"/>
      <point x="201" y="62" type="curve" smooth="yes"/>
      <point x="201" y="23"/>
      <point x="169" y="-11"/>
      <point x="129" y="-11" type="curve" smooth="yes"/>
      <point x="88" y="-11"/>
      <point x="55" y="22"/>
    </contour>
  </outline>
</glyph>
<glyph name="semicolon" format="2">
  <advance width="248"/>
  <unicode hex="003B"/>
  <outline>
    <contour>
      <point x="136" y="136" type="curve" smooth="yes"/>
      <point x="153" y="136"/>
      <point x="168" y="128"/>
      <point x="179" y="120" type="curve"/>
      <point x="187" y="105"/>
      <point x="192" y="80"/>
      <point x="192" y="57" type="curve" smooth="yes"/>
      <point x="192" y="-36"/>
      <point x="127" y="-119"/>
      <point x="59" y="-153" type="curve"/>
      <point x="48" y="-150"/>
      <point x="38" y="-136"/>
      <point x="38" y="-130" type="curve"/>
      <point x="57" y="-118"/>
      <point x="107" y="-74"/>
      <point x="107" y="-26" type="curve" smooth="yes"/>
      <point x="107" y="6"/>
      <point x="61" y="3"/>
      <point x="61" y="66" type="curve" smooth="yes"/>
      <point x="61" y="82"/>
      <point x="75" y="136"/>
    </contour>
    <contour>
      <point x="48" y="351" type="curve" smooth="yes"/>
      <point x="48" y="390"/>
      <point x="82" y="422"/>
      <point x="122" y="422" type="curve" smooth="yes"/>
      <point x="161" y="422"/>
      <point x="191" y="390"/>
      <point x="191" y="351" type="curve" smooth="yes"/>
      <point x="191" y="312"/>
      <point x="162" y="274"/>
      <point x="122" y="274" type="curve" smooth="yes"/>
      <point x="81" y="274"/>
      <point x="48" y="312"/>
    </contour>
  </outline>
</glyph>
<glyph name="equal" format="2">
  <advance width="545"/>
  <unicode hex="003D"/>
  <outline>
    <contour>
      <point x="465" y="131" type="curve"/>
      <point x="308" y="131"/>
      <point x="237" y="131"/>
      <point x="69" y="131" type="curve"/>
      <point x="57" y="131"/>
      <point x="71" y="183"/>
      <point x="85" y="188" type="curve"/>
      <point x="478" y="188" type="line"/>
      <point x="492" y="188"/>
      <point x="479" y="138"/>
    </contour>
    <contour>
      <point x="465" y="271" type="curve"/>
      <point x="308" y="271"/>
      <point x="237" y="271"/>
      <point x="69" y="271" type="curve"/>
      <point x="57" y="271"/>
      <point x="71" y="324"/>
      <point x="85" y="329" type="curve"/>
      <point x="478" y="329" type="line"/>
      <point x="492" y="329"/>
      <point x="479" y="278"/>
    </contour>
  </outline>
</glyph>
<glyph name="at" format="2">
  <advance width="749"/>
  <unicode hex="0040"/>
  <outline>
    <contour>
      <point x="436" y="564" type="curve" smooth="yes"/>
      <point x="627" y="564"/>
      <point x="715" y="435"/>
      <point x="715" y="283" type="curve" smooth="yes"/>
      <point x="715" y="134"/>
      <point x="613" y="-7"/>
      <point x="499" y="-7" type="curve" smooth="yes"/>
      <point x="451" y="-7"/>
      <point x="403" y="17"/>
      <point x="403" y="77" type="curve" smooth="yes"/>
      <point x="403" y="85"/>
      <point x="404" y="97"/>
      <point x="407" y="105" type="curve"/>
      <point x="388" y="69"/>
      <point x="329" y="-5"/>
      <point x="269" y="-5" type="curve" smooth="yes"/>
      <point x="219" y="-5"/>
      <point x="174" y="15"/>
      <point x="174" y="117" type="curve" smooth="yes"/>
      <point x="174" y="260"/>
      <point x="335" y="433"/>
      <point x="474" y="433" type="curve" smooth="yes"/>
      <point x="508" y="433"/>
      <point x="561" y="427"/>
      <point x="580" y="420" type="curve"/>
      <point x="525" y="124" type="line" smooth="yes"/>
      <point x="524" y="120"/>
      <point x="522" y="105"/>
      <point x="522" y="100" type="curve" smooth="yes"/>
      <point x="522" y="86"/>
      <point x="519" y="54"/>
      <point x="545" y="54" type="curve" smooth="yes"/>
      <point x="594" y="54"/>
      <point x="672" y="154"/>
      <point x="672" y="276" type="curve" smooth="yes"/>
      <point x="672" y="408"/>
      <point x="606" y="525"/>
      <point x="436" y="525" type="curve" smooth="yes"/>
      <point x="237" y="525"/>
      <point x="92" y="336"/>
      <point x="92" y="166" type="curve" smooth="yes"/>
      <point x="92" y="52"/>
      <point x="154" y="-34"/>
      <point x="224" y="-75" type="curve" smooth="yes"/>
      <point x="259" y="-96"/>
      <point x="280" y="-99"/>
      <point x="299" y="-102" type="curve"/>
      <point x="299" y="-110"/>
      <point x="276" y="-121"/>
      <point x="260" y="-121" type="curve" smooth="yes"/>
      <point x="243" y="-121"/>
      <point x="229" y="-117"/>
      <point x="216" y="-112" type="curve" smooth="yes"/>
      <point x="126" y="-79"/>
      <point x="45" y="23"/>
      <point x="45" y="161" type="curve" smooth="yes"/>
      <point x="45" y="352"/>
      <point x="209" y="564"/>
    </contour>
    <contour>
      <point x="433" y="380" type="curve" smooth="yes"/>
      <point x="352" y="380"/>
      <point x="294" y="257"/>
      <point x="294" y="145" type="curve" smooth="yes"/>
      <point x="294" y="109"/>
      <point x="311" y="92"/>
      <point x="333" y="92" type="curve" smooth="yes"/>
      <point x="374" y="92"/>
      <point x="417" y="161"/>
      <point x="438" y="268" type="curve" smooth="yes"/>
      <point x="458" y="367" type="line"/>
      <point x="449" y="377"/>
      <point x="446" y="380"/>
    </contour>
  </outline>
</glyph>
<glyph name="A" format="2">
  <advance width="659"/>
  <unicode hex="0041"/>
  <outline>
    <contour>
      <point x="92" y="131" type="curve" smooth="yes"/>
      <point x="300" y="609" type="line" smooth="yes"/>
      <point x="306" y="622"/>
      <point x="325" y="646"/>
      <point x="336" y="646" type="curve" smooth="yes"/>
      <point x="345" y="646"/>
      <point x="355" y="643"/>
      <point x="357" y="640" type="curve"/>
      <point x="557" y="145" type="line" smooth="yes"/>
      <point x="570" y="115"/>
      <point x="575" y="95"/>
      <point x="584" y="74" type="curve" smooth="yes"/>
      <point x="601" y="34"/>
      <point x="653" y="32"/>
      <point x="661" y="32" type="curve"/>
      <point x="666" y="23"/>
      <point x="667" y="0"/>
      <point x="663" y="-4" type="curve"/>
      <point x="624" y="-2"/>
      <point x="575" y="4"/>
      <point x="532" y="4" type="curve" smooth="yes"/>
      <point x="487" y="4"/>
      <point x="420" y="-2"/>
      <point x="385" y="-4" type="curve"/>
      <point x="380" y="1"/>
      <point x="380" y="32"/>
      <point x="385" y="32" type="curve"/>
      <point x="402" y="32"/>
      <point x="429" y="38"/>
      <point x="443" y="50" type="curve" smooth="yes"/>
      <point x="449" y="55"/>
      <point x="451" y="59"/>
      <point x="451" y="66" type="curve" smooth="yes"/>
      <point x="451" y="75"/>
      <point x="393" y="215"/>
      <point x="393" y="215" type="curve"/>
      <point x="393" y="215"/>
      <point x="389" y="219"/>
      <point x="386" y="219" type="curve" smooth="yes"/>
      <point x="349" y="221"/>
      <point x="316" y="220"/>
      <point x="292" y="220" type="curve" smooth="yes"/>
      <point x="252" y="220"/>
      <point x="225" y="220"/>
      <point x="191" y="219" type="curve" smooth="yes"/>
      <point x="188" y="219"/>
      <point x="185" y="216"/>
      <point x="184" y="214" type="curve"/>
      <point x="184" y="214"/>
      <point x="160" y="159"/>
      <point x="149" y="132" type="curve" smooth="yes"/>
      <point x="139" y="108"/>
      <point x="127" y="72"/>
      <point x="127" y="65" type="curve" smooth="yes"/>
      <point x="127" y="40"/>
      <point x="194" y="32"/>
      <point x="202" y="32" type="curve"/>
      <point x="208" y="25"/>
      <point x="206" y="0"/>
      <point x="203" y="-4" type="curve"/>
      <point x="169" y="0"/>
      <point x="141" y="4"/>
      <point x="98" y="4" type="curve" smooth="yes"/>
      <point x="53" y="4"/>
      <point x="25" y="0"/>
      <point x="-9" y="-4" type="curve"/>
      <point x="-13" y="0"/>
      <point x="-15" y="20"/>
      <point x="-11" y="31" type="curve"/>
      <point x="1" y="31"/>
      <point x="48" y="46"/>
      <point x="58" y="62" type="curve" smooth="yes"/>
      <point x="75" y="89"/>
      <point x="80" y="104"/>
    </contour>
    <contour>
      <point x="288" y="465" type="line"/>
      <point x="205" y="273" type="line"/>
      <point x="205" y="273"/>
      <point x="205" y="270"/>
      <point x="207" y="270" type="curve" smooth="yes"/>
      <point x="227" y="268"/>
      <point x="266" y="267"/>
      <point x="288" y="267" type="curve" smooth="yes"/>
      <point x="318" y="267"/>
      <point x="336" y="267"/>
      <point x="366" y="269" type="curve" smooth="yes"/>
      <point x="368" y="269"/>
      <point x="369" y="273"/>
      <point x="369" y="273" type="curve"/>
    </contour>
  </outline>
</glyph>
<glyph name="B" format="2">
  <advance width="604"/>
  <unicode hex="0042"/>
  <outline>
    <contour>
      <point x="245" y="324" type="line"/>
      <point x="245" y="106" type="line" smooth="yes"/>
      <point x="245" y="100"/>
      <point x="244" y="62"/>
      <point x="252" y="50" type="curve" smooth="yes"/>
      <point x="260" y="39"/>
      <point x="289" y="38"/>
      <point x="314" y="38" type="curve" smooth="yes"/>
      <point x="359" y="38"/>
      <point x="417" y="71"/>
      <point x="417" y="172" type="curve" smooth="yes"/>
      <point x="417" y="245"/>
      <point x="388" y="324"/>
      <point x="295" y="324" type="curve" smooth="yes"/>
    </contour>
    <contour>
      <point x="245" y="362" type="line"/>
      <point x="295" y="362" type="line" smooth="yes"/>
      <point x="344" y="362"/>
      <point x="379" y="403"/>
      <point x="379" y="476" type="curve" smooth="yes"/>
      <point x="379" y="569"/>
      <point x="348" y="605"/>
      <point x="298" y="605" type="curve" smooth="yes"/>
      <point x="276" y="605"/>
      <point x="254" y="605"/>
      <point x="249" y="594" type="curve" smooth="yes"/>
      <point x="244" y="582"/>
      <point x="245" y="562"/>
      <point x="245" y="534" type="curve" smooth="yes"/>
    </contour>
    <contour>
      <point x="327" y="645" type="curve" smooth="yes"/>
      <point x="418" y="645"/>
      <point x="524" y="603"/>
      <point x="524" y="490" type="curve" smooth="yes"/>
      <point x="524" y="412"/>
      <point x="444" y="367"/>
      <point x="418" y="357" type="curve" smooth="yes"/>
      <point x="410" y="354"/>
      <point x="412" y="352"/>
      <point x="413" y="352" type="curve" smooth="yes"/>
      <point x="462" y="346"/>
      <point x="571" y="290"/>
      <point x="571" y="188" type="curve" smooth="yes"/>
      <point x="571" y="124"/>
      <point x="529" y="65"/>
      <point x="468" y="29" type="curve" smooth="yes"/>
      <point x="410" y="-5"/>
      <point x="337" y="-4"/>
      <point x="265" y="-3" type="curve" smooth="yes"/>
      <point x="224" y="-3"/>
      <point x="75" y="-2"/>
      <point x="37" y="-3" type="curve"/>
      <point x="33" y="3"/>
      <point x="32" y="26"/>
      <point x="37" y="33" type="curve"/>
      <point x="50" y="34"/>
      <point x="95" y="37"/>
      <point x="100" y="50" type="curve" smooth="yes"/>
      <point x="108" y="70"/>
      <point x="108" y="100"/>
      <point x="108" y="142" type="curve" smooth="yes"/>
      <point x="108" y="501" type="line" smooth="yes"/>
      <point x="108" y="543"/>
      <point x="108" y="573"/>
      <point x="100" y="593" type="curve" smooth="yes"/>
      <point x="95" y="606"/>
      <point x="50" y="607"/>
      <point x="37" y="608" type="curve"/>
      <point x="32" y="615"/>
      <point x="33" y="639"/>
      <point x="37" y="645" type="curve"/>
      <point x="81" y="642"/>
      <point x="136" y="642"/>
      <point x="177" y="642" type="curve" smooth="yes"/>
      <point x="218" y="642"/>
      <point x="270" y="645"/>
    </contour>
  </outline>
</glyph>
<glyph name="C" format="2">
  <advance width="658"/>
  <unicode hex="0043"/>
  <outline>
    <contour>
      <point x="377" y="651" type="curve" smooth="yes"/>
      <point x="441" y="651"/>
      <point x="522" y="645"/>
      <point x="580" y="633" type="curve"/>
      <point x="582" y="622"/>
      <point x="613" y="497"/>
      <point x="613" y="485" type="curve" smooth="yes"/>
      <point x="613" y="479"/>
      <point x="600" y="471"/>
      <point x="588" y="471" type="curve" smooth="yes"/>
      <point x="583" y="471"/>
      <point x="578" y="471"/>
      <point x="574" y="475" type="curve"/>
      <point x="564" y="513"/>
      <point x="524" y="609"/>
      <point x="386" y="609" type="curve" smooth="yes"/>
      <point x="248" y="609"/>
      <point x="195" y="481"/>
      <point x="195" y="344" type="curve" smooth="yes"/>
      <point x="195" y="192"/>
      <point x="258" y="36"/>
      <point x="405" y="36" type="curve" smooth="yes"/>
      <point x="464" y="36"/>
      <point x="500" y="54"/>
      <point x="526" y="78" type="curve" smooth="yes"/>
      <point x="567" y="115"/>
      <point x="593" y="191"/>
      <point x="595" y="199" type="curve"/>
      <point x="610" y="199"/>
      <point x="621" y="195"/>
      <point x="629" y="188" type="curve"/>
      <point x="629" y="177"/>
      <point x="604" y="45"/>
      <point x="589" y="39" type="curve" smooth="yes"/>
      <point x="527" y="17"/>
      <point x="465" y="-7"/>
      <point x="375" y="-7" type="curve" smooth="yes"/>
      <point x="191" y="-7"/>
      <point x="39" y="129"/>
      <point x="39" y="314" type="curve" smooth="yes"/>
      <point x="39" y="502"/>
      <point x="191" y="651"/>
    </contour>
  </outline>
</glyph>
<glyph name="D" format="2">
  <advance width="743"/>
  <unicode hex="0044"/>
  <outline>
    <contour>
      <point x="245" y="534" type="curve" smooth="yes"/>
      <point x="245" y="138" type="line" smooth="yes"/>
      <point x="245" y="132"/>
      <point x="244" y="81"/>
      <point x="252" y="61" type="curve" smooth="yes"/>
      <point x="258" y="47"/>
      <point x="289" y="38"/>
      <point x="314" y="38" type="curve" smooth="yes"/>
      <point x="473" y="38"/>
      <point x="546" y="127"/>
      <point x="546" y="317" type="curve" smooth="yes"/>
      <point x="546" y="508"/>
      <point x="443" y="605"/>
      <point x="298" y="605" type="curve" smooth="yes"/>
      <point x="276" y="605"/>
      <point x="254" y="605"/>
      <point x="249" y="594" type="curve" smooth="yes"/>
      <point x="244" y="582"/>
      <point x="245" y="562"/>
    </contour>
    <contour>
      <point x="327" y="645" type="curve" smooth="yes"/>
      <point x="553" y="645"/>
      <point x="702" y="528"/>
      <point x="702" y="328" type="curve" smooth="yes"/>
      <point x="702" y="99"/>
      <point x="531" y="-3"/>
      <point x="320" y="-3" type="curve" smooth="yes"/>
      <point x="279" y="-3"/>
      <point x="75" y="-2"/>
      <point x="37" y="-3" type="curve"/>
      <point x="33" y="3"/>
      <point x="32" y="26"/>
      <point x="37" y="33" type="curve"/>
      <point x="50" y="34"/>
      <point x="95" y="37"/>
      <point x="100" y="50" type="curve" smooth="yes"/>
      <point x="108" y="70"/>
      <point x="108" y="100"/>
      <point x="108" y="142" type="curve" smooth="yes"/>
      <point x="108" y="501" type="line" smooth="yes"/>
      <point x="108" y="543"/>
      <point x="108" y="573"/>
      <point x="100" y="593" type="curve" smooth="yes"/>
      <point x="95" y="606"/>
      <point x="50" y="607"/>
      <point x="37" y="608" type="curve"/>
      <point x="32" y="615"/>
      <point x="33" y="639"/>
      <point x="37" y="645" type="curve"/>
      <point x="81" y="642"/>
      <point x="136" y="642"/>
      <point x="177" y="642" type="curve" smooth="yes"/>
      <point x="218" y="642"/>
      <point x="269" y="644"/>
    </contour>
  </outline>
</glyph>
<glyph name="F" format="2">
	<unicode hex="0046"/>
	<advance width="536"/>
	<outline>
		<contour>
			<point x="177" y="642" type="curve" smooth="yes"/>
			<point x="218" y="642"/>
			<point x="437" y="647"/>
			<point x="495" y="648" type="curve"/>
			<point x="502" y="599"/>
			<point x="514" y="548"/>
			<point x="523" y="504" type="curve"/>
			<point x="520" y="501"/>
			<point x="507" y="499"/>
			<point x="500" y="499" type="curve" smooth="yes"/>
			<point x="493" y="499"/>
			<point x="487" y="502"/>
			<point x="485" y="507" type="curve" smooth="yes"/>
			<point x="464" y="561"/>
			<point x="439" y="605"/>
			<point x="379" y="605" type="curve" smooth="yes"/>
			<point x="298" y="605" type="line" smooth="yes"/>
			<point x="276" y="605"/>
			<point x="254" y="605"/>
			<point x="249" y="594" type="curve" smooth="yes"/>
			<point x="244" y="582"/>
			<point x="245" y="562"/>
			<point x="245" y="534" type="curve" smooth="yes"/>
			<point x="245" y="355" type="line" smooth="yes"/>
			<point x="245" y="349"/>
			<point x="266" y="345"/>
			<point x="287" y="345" type="curve" smooth="yes"/>
			<point x="338" y="345" type="line" smooth="yes"/>
			<point x="396" y="345"/>
			<point x="408" y="356"/>
			<point x="424" y="413" type="curve" smooth="yes"/>
			<point x="425" y="418"/>
			<point x="429" y="421"/>
			<point x="436" y="421" type="curve" smooth="yes"/>
			<point x="443" y="421"/>
			<point x="451" y="419"/>
			<point x="454" y="416" type="curve"/>
			<point x="454" y="229" type="line"/>
			<point x="452" y="227"/>
			<point x="444" y="225"/>
			<point x="437" y="225" type="curve" smooth="yes"/>
			<point x="430" y="225"/>
			<point x="424" y="227"/>
			<point x="423" y="232" type="curve" smooth="yes"/>
			<point x="411" y="279"/>
			<point x="398" y="288"/>
			<point x="389" y="292" type="curve" smooth="yes"/>
			<point x="377" y="297"/>
			<point x="352" y="299"/>
			<point x="315" y="299" type="curve" smooth="yes"/>
			<point x="288" y="299"/>
			<point x="245" y="297"/>
			<point x="245" y="285" type="curve" smooth="yes"/>
			<point x="245" y="142" type="line" smooth="yes"/>
			<point x="245" y="100"/>
			<point x="244" y="70"/>
			<point x="252" y="50" type="curve" smooth="yes"/>
			<point x="257" y="37"/>
			<point x="311" y="33"/>
			<point x="324" y="32" type="curve"/>
			<point x="329" y="25"/>
			<point x="328" y="2"/>
			<point x="324" y="-4" type="curve"/>
			<point x="286" y="0"/>
			<point x="216" y="3"/>
			<point x="175" y="3" type="curve" smooth="yes"/>
			<point x="134" y="3"/>
			<point x="75" y="0"/>
			<point x="37" y="-4" type="curve"/>
			<point x="33" y="2"/>
			<point x="32" y="25"/>
			<point x="37" y="32" type="curve"/>
			<point x="50" y="33"/>
			<point x="95" y="37"/>
			<point x="100" y="50" type="curve" smooth="yes"/>
			<point x="108" y="70"/>
			<point x="108" y="100"/>
			<point x="108" y="142" type="curve" smooth="yes"/>
			<point x="108" y="501" type="line" smooth="yes"/>
			<point x="108" y="543"/>
			<point x="108" y="573"/>
			<point x="100" y="593" type="curve" smooth="yes"/>
			<point x="95" y="606"/>
			<point x="50" y="607"/>
			<point x="37" y="608" type="curve"/>
			<point x="32" y="615"/>
			<point x="33" y="639"/>
			<point x="37" y="645" type="curve"/>
			<point x="81" y="642"/>
			<point x="136" y="642"/>
		</contour>
	</outline>
</glyph>
<glyph name="G" format="2">
	<unicode hex="0047"/>
	<advance width="705"/>
	<outline>
		<contour>
			<point x="487" y="179" type="curve" smooth="yes"/>
			<point x="487" y="199"/>
			<point x="488" y="208"/>
			<point x="482" y="229" type="curve" smooth="yes"/>
			<point x="475" y="253"/>
			<point x="430" y="255"/>
			<point x="418" y="255" type="curve" smooth="yes"/>
			<point x="413" y="255"/>
			<point x="412" y="286"/>
			<point x="417" y="291" type="curve"/>
			<point x="467" y="289"/>
			<point x="516" y="285"/>
			<point x="566" y="285" type="curve" smooth="yes"/>
			<point x="607" y="285"/>
			<point x="648" y="289"/>
			<point x="687" y="291" type="curve"/>
			<point x="691" y="278"/>
			<point x="689" y="255"/>
			<point x="686" y="255" type="curve"/>
			<point x="678" y="255"/>
			<point x="645" y="249"/>
			<point x="634" y="242" type="curve" smooth="yes"/>
			<point x="628" y="238"/>
			<point x="622" y="219"/>
			<point x="622" y="200" type="curve" smooth="yes"/>
			<point x="622" y="164"/>
			<point x="622" y="129"/>
			<point x="622" y="96" type="curve" smooth="yes"/>
			<point x="622" y="87"/>
			<point x="628" y="72"/>
			<point x="628" y="67" type="curve" smooth="yes"/>
			<point x="628" y="56"/>
			<point x="607" y="47"/>
			<point x="594" y="42" type="curve" smooth="yes"/>
			<point x="532" y="19"/>
			<point x="465" y="-7"/>
			<point x="375" y="-7" type="curve" smooth="yes"/>
			<point x="190" y="-7"/>
			<point x="39" y="129"/>
			<point x="39" y="314" type="curve" smooth="yes"/>
			<point x="39" y="497"/>
			<point x="191" y="651"/>
			<point x="377" y="651" type="curve" smooth="yes"/>
			<point x="441" y="651"/>
			<point x="522" y="645"/>
			<point x="580" y="633" type="curve"/>
			<point x="582" y="622"/>
			<point x="613" y="497"/>
			<point x="613" y="485" type="curve" smooth="yes"/>
			<point x="613" y="479"/>
			<point x="600" y="471"/>
			<point x="588" y="471" type="curve" smooth="yes"/>
			<point x="583" y="471"/>
			<point x="578" y="471"/>
			<point x="574" y="475" type="curve"/>
			<point x="564" y="513"/>
			<point x="526" y="609"/>
			<point x="388" y="609" type="curve" smooth="yes"/>
			<point x="243" y="609"/>
			<point x="195" y="476"/>
			<point x="195" y="339" type="curve" smooth="yes"/>
			<point x="195" y="187"/>
			<point x="264" y="35"/>
			<point x="402" y="35" type="curve" smooth="yes"/>
			<point x="439" y="35"/>
			<point x="461" y="43"/>
			<point x="479" y="51" type="curve" smooth="yes"/>
			<point x="483" y="53"/>
			<point x="487" y="56"/>
			<point x="487" y="65" type="curve" smooth="yes"/>
			<point x="487" y="80"/>
			<point x="487" y="132"/>
		</contour>
	</outline>
</glyph>
<glyph name="H" format="2">
	<unicode hex="0048"/>
	<advance width="723"/>
	<outline>
		<contour>
			<point x="177" y="640" type="curve" smooth="yes"/>
			<point x="218" y="640"/>
			<point x="277" y="642"/>
			<point x="315" y="646" type="curve"/>
			<point x="319" y="640"/>
			<point x="320" y="617"/>
			<point x="315" y="610" type="curve"/>
			<point x="302" y="609"/>
			<point x="257" y="606"/>
			<point x="252" y="593" type="curve" smooth="yes"/>
			<point x="244" y="573"/>
			<point x="245" y="543"/>
			<point x="245" y="501" type="curve" smooth="yes"/>
			<point x="245" y="362" type="line"/>
			<point x="245" y="360"/>
			<point x="246" y="359"/>
			<point x="246" y="359" type="curve"/>
			<point x="284" y="358"/>
			<point x="321" y="356"/>
			<point x="365" y="356" type="curve" smooth="yes"/>
			<point x="401" y="356"/>
			<point x="444" y="358"/>
			<point x="479" y="359" type="curve"/>
			<point x="479" y="359"/>
			<point x="481" y="361"/>
			<point x="481" y="363" type="curve" smooth="yes"/>
			<point x="480" y="501" type="line" smooth="yes"/>
			<point x="480" y="543"/>
			<point x="480" y="573"/>
			<point x="472" y="593" type="curve" smooth="yes"/>
			<point x="467" y="606"/>
			<point x="423" y="609"/>
			<point x="410" y="610" type="curve"/>
			<point x="405" y="617"/>
			<point x="406" y="640"/>
			<point x="410" y="646" type="curve"/>
			<point x="448" y="642"/>
			<point x="508" y="640"/>
			<point x="549" y="640" type="curve" smooth="yes"/>
			<point x="590" y="640"/>
			<point x="649" y="642"/>
			<point x="687" y="646" type="curve"/>
			<point x="691" y="640"/>
			<point x="692" y="617"/>
			<point x="687" y="610" type="curve"/>
			<point x="674" y="609"/>
			<point x="629" y="606"/>
			<point x="624" y="593" type="curve" smooth="yes"/>
			<point x="616" y="573"/>
			<point x="617" y="543"/>
			<point x="617" y="501" type="curve" smooth="yes"/>
			<point x="617" y="142" type="line" smooth="yes"/>
			<point x="617" y="100"/>
			<point x="616" y="70"/>
			<point x="624" y="50" type="curve" smooth="yes"/>
			<point x="629" y="37"/>
			<point x="674" y="33"/>
			<point x="687" y="32" type="curve"/>
			<point x="692" y="25"/>
			<point x="691" y="2"/>
			<point x="687" y="-4" type="curve"/>
			<point x="649" y="0"/>
			<point x="588" y="3"/>
			<point x="547" y="3" type="curve" smooth="yes"/>
			<point x="506" y="3"/>
			<point x="448" y="0"/>
			<point x="410" y="-4" type="curve"/>
			<point x="406" y="2"/>
			<point x="405" y="25"/>
			<point x="410" y="32" type="curve"/>
			<point x="423" y="33"/>
			<point x="467" y="37"/>
			<point x="472" y="50" type="curve" smooth="yes"/>
			<point x="480" y="70"/>
			<point x="480" y="100"/>
			<point x="480" y="142" type="curve" smooth="yes"/>
			<point x="480" y="303" type="line" smooth="yes"/>
			<point x="480" y="305"/>
			<point x="478" y="308"/>
			<point x="478" y="308" type="curve"/>
			<point x="442" y="309"/>
			<point x="405" y="310"/>
			<point x="365" y="310" type="curve" smooth="yes"/>
			<point x="257" y="310"/>
			<point x="248" y="308"/>
			<point x="245" y="306" type="curve"/>
			<point x="244" y="305"/>
			<point x="245" y="302"/>
			<point x="245" y="302" type="curve"/>
			<point x="245" y="142" type="line" smooth="yes"/>
			<point x="245" y="100"/>
			<point x="244" y="70"/>
			<point x="252" y="50" type="curve" smooth="yes"/>
			<point x="257" y="37"/>
			<point x="302" y="33"/>
			<point x="315" y="32" type="curve"/>
			<point x="320" y="25"/>
			<point x="319" y="2"/>
			<point x="315" y="-4" type="curve"/>
			<point x="277" y="0"/>
			<point x="216" y="3"/>
			<point x="175" y="3" type="curve" smooth="yes"/>
			<point x="134" y="3"/>
			<point x="75" y="0"/>
			<point x="37" y="-4" type="curve"/>
			<point x="33" y="2"/>
			<point x="32" y="25"/>
			<point x="37" y="32" type="curve"/>
			<point x="50" y="33"/>
			<point x="95" y="37"/>
			<point x="100" y="50" type="curve" smooth="yes"/>
			<point x="108" y="70"/>
			<point x="108" y="100"/>
			<point x="108" y="142" type="curve" smooth="yes"/>
			<point x="108" y="501" type="line" smooth="yes"/>
			<point x="108" y="543"/>
			<point x="108" y="573"/>
			<point x="100" y="593" type="curve" smooth="yes"/>
			<point x="95" y="606"/>
			<point x="50" y="609"/>
			<point x="37" y="610" type="curve"/>
			<point x="32" y="617"/>
			<point x="33" y="640"/>
			<point x="37" y="646" type="curve"/>
			<point x="75" y="642"/>
			<point x="136" y="640"/>
		</contour>
	</outline>
</glyph>
<glyph name="I" format="2">
	<unicode hex="0049"/>
	<advance width="351"/>
	<outline>
		<contour>
			<point x="177" y="640" type="curve" smooth="yes"/>
			<point x="218" y="640"/>
			<point x="277" y="642"/>
			<point x="315" y="646" type="curve"/>
			<point x="319" y="640"/>
			<point x="320" y="617"/>
			<point x="315" y="610" type="curve"/>
			<point x="302" y="609"/>
			<point x="257" y="606"/>
			<point x="252" y="593" type="curve" smooth="yes"/>
			<point x="244" y="573"/>
			<point x="245" y="543"/>
			<point x="245" y="501" type="curve" smooth="yes"/>
			<point x="245" y="142" type="line" smooth="yes"/>
			<point x="245" y="100"/>
			<point x="244" y="70"/>
			<point x="252" y="50" type="curve" smooth="yes"/>
			<point x="257" y="37"/>
			<point x="302" y="33"/>
			<point x="315" y="32" type="curve"/>
			<point x="320" y="25"/>
			<point x="319" y="2"/>
			<point x="315" y="-4" type="curve"/>
			<point x="277" y="0"/>
			<point x="216" y="3"/>
			<point x="175" y="3" type="curve" smooth="yes"/>
			<point x="134" y="3"/>
			<point x="75" y="0"/>
			<point x="37" y="-4" type="curve"/>
			<point x="33" y="2"/>
			<point x="32" y="25"/>
			<point x="37" y="32" type="curve"/>
			<point x="50" y="33"/>
			<point x="95" y="37"/>
			<point x="100" y="50" type="curve" smooth="yes"/>
			<point x="108" y="70"/>
			<point x="108" y="100"/>
			<point x="108" y="142" type="curve" smooth="yes"/>
			<point x="108" y="501" type="line" smooth="yes"/>
			<point x="108" y="543"/>
			<point x="108" y="573"/>
			<point x="100" y="593" type="curve" smooth="yes"/>
			<point x="95" y="606"/>
			<point x="50" y="609"/>
			<point x="37" y="610" type="curve"/>
			<point x="32" y="617"/>
			<point x="33" y="640"/>
			<point x="37" y="646" type="curve"/>
			<point x="75" y="642"/>
			<point x="136" y="640"/>
		</contour>
	</outline>
</glyph>
<glyph name="J" format="2">
	<unicode hex="004A"/>
	<advance width="336"/>
	<outline>
		<contour>
			<point x="171" y="640" type="curve" smooth="yes"/>
			<point x="212" y="640"/>
			<point x="271" y="642"/>
			<point x="309" y="646" type="curve"/>
			<point x="313" y="640"/>
			<point x="314" y="617"/>
			<point x="309" y="610" type="curve"/>
			<point x="296" y="609"/>
			<point x="251" y="606"/>
			<point x="246" y="593" type="curve" smooth="yes"/>
			<point x="238" y="573"/>
			<point x="238" y="543"/>
			<point x="238" y="501" type="curve" smooth="yes"/>
			<point x="238" y="140" type="line" smooth="yes"/>
			<point x="238" y="-83"/>
			<point x="127" y="-213"/>
			<point x="-51" y="-213" type="curve" smooth="yes"/>
			<point x="-70" y="-213"/>
			<point x="-97" y="-202"/>
			<point x="-106" y="-195" type="curve"/>
			<point x="-113" y="-184"/>
			<point x="-122" y="-174"/>
			<point x="-122" y="-153" type="curve" smooth="yes"/>
			<point x="-122" y="-120"/>
			<point x="-94" y="-88"/>
			<point x="-63" y="-88" type="curve" smooth="yes"/>
			<point x="-41" y="-88"/>
			<point x="-24" y="-104"/>
			<point x="-8" y="-120" type="curve" smooth="yes"/>
			<point x="8" y="-136"/>
			<point x="23" y="-153"/>
			<point x="38" y="-153" type="curve" smooth="yes"/>
			<point x="100" y="-153"/>
			<point x="102" y="-30"/>
			<point x="102" y="132" type="curve" smooth="yes"/>
			<point x="102" y="501" type="line" smooth="yes"/>
			<point x="102" y="543"/>
			<point x="102" y="573"/>
			<point x="94" y="593" type="curve" smooth="yes"/>
			<point x="89" y="606"/>
			<point x="44" y="609"/>
			<point x="31" y="610" type="curve"/>
			<point x="26" y="617"/>
			<point x="27" y="640"/>
			<point x="31" y="646" type="curve"/>
			<point x="69" y="642"/>
			<point x="130" y="640"/>
		</contour>
	</outline>
</glyph>
<glyph name="K" format="2">
  <advance width="702"/>
  <unicode hex="004B"/>
  <outline>
    <contour>
      <point x="177" y="640" type="curve" smooth="yes"/>
      <point x="218" y="640"/>
      <point x="277" y="642"/>
      <point x="315" y="646" type="curve"/>
      <point x="319" y="640"/>
      <point x="320" y="617"/>
      <point x="315" y="610" type="curve"/>
      <point x="302" y="609"/>
      <point x="257" y="606"/>
      <point x="252" y="593" type="curve" smooth="yes"/>
      <point x="244" y="573"/>
      <point x="245" y="543"/>
      <point x="245" y="501" type="curve" smooth="yes"/>
      <point x="245" y="329" type="line"/>
      <point x="288" y="363"/>
      <point x="323" y="394"/>
      <point x="346" y="418" type="curve" smooth="yes"/>
      <point x="405" y="478"/>
      <point x="432" y="502"/>
      <point x="473" y="557" type="curve" smooth="yes"/>
      <point x="483" y="570"/>
      <point x="483" y="582"/>
      <point x="483" y="589" type="curve" smooth="yes"/>
      <point x="483" y="610"/>
      <point x="442" y="611"/>
      <point x="428" y="611" type="curve"/>
      <point x="423" y="619"/>
      <point x="423" y="637"/>
      <point x="426" y="646" type="curve"/>
      <point x="462" y="644"/>
      <point x="517" y="640"/>
      <point x="553" y="640" type="curve" smooth="yes"/>
      <point x="596" y="640"/>
      <point x="638" y="642"/>
      <point x="674" y="646" type="curve"/>
      <point x="677" y="639"/>
      <point x="677" y="618"/>
      <point x="672" y="612" type="curve"/>
      <point x="663" y="611"/>
      <point x="597" y="604"/>
      <point x="562" y="569" type="curve" smooth="yes"/>
      <point x="562" y="569"/>
      <point x="451" y="457"/>
      <point x="378" y="380" type="curve" smooth="yes"/>
      <point x="372" y="373"/>
      <point x="372" y="369"/>
      <point x="375" y="364" type="curve" smooth="yes"/>
      <point x="446" y="268"/>
      <point x="551" y="127"/>
      <point x="551" y="127" type="curve"/>
      <point x="623" y="35"/>
      <point x="705" y="32"/>
      <point x="713" y="32" type="curve"/>
      <point x="718" y="25"/>
      <point x="714" y="-2"/>
      <point x="713" y="-4" type="curve"/>
      <point x="685" y="-6"/>
      <point x="625" y="-8"/>
      <point x="585" y="-8" type="curve" smooth="yes"/>
      <point x="510" y="-8"/>
      <point x="460" y="32"/>
      <point x="436" y="65" type="curve" smooth="yes"/>
      <point x="411" y="100"/>
      <point x="307" y="237"/>
      <point x="264" y="295" type="curve" smooth="yes"/>
      <point x="261" y="298"/>
      <point x="256" y="299"/>
      <point x="254" y="299" type="curve" smooth="yes"/>
      <point x="250" y="299"/>
      <point x="247" y="297"/>
      <point x="245" y="293" type="curve"/>
      <point x="245" y="142" type="line" smooth="yes"/>
      <point x="245" y="100"/>
      <point x="244" y="70"/>
      <point x="252" y="50" type="curve" smooth="yes"/>
      <point x="257" y="37"/>
      <point x="302" y="33"/>
      <point x="315" y="32" type="curve"/>
      <point x="320" y="25"/>
      <point x="319" y="2"/>
      <point x="315" y="-4" type="curve"/>
      <point x="277" y="0"/>
      <point x="216" y="3"/>
      <point x="175" y="3" type="curve" smooth="yes"/>
      <point x="134" y="3"/>
      <point x="75" y="0"/>
      <point x="37" y="-4" type="curve"/>
      <point x="33" y="2"/>
      <point x="32" y="25"/>
      <point x="37" y="32" type="curve"/>
      <point x="50" y="33"/>
      <point x="95" y="37"/>
      <point x="100" y="50" type="curve" smooth="yes"/>
      <point x="108" y="70"/>
      <point x="108" y="100"/>
      <point x="108" y="142" type="curve" smooth="yes"/>
      <point x="108" y="501" type="line" smooth="yes"/>
      <point x="108" y="543"/>
      <point x="108" y="573"/>
      <point x="100" y="593" type="curve" smooth="yes"/>
      <point x="95" y="606"/>
      <point x="50" y="609"/>
      <point x="37" y="610" type="curve"/>
      <point x="32" y="617"/>
      <point x="33" y="640"/>
      <point x="37" y="646" type="curve"/>
      <point x="75" y="642"/>
      <point x="136" y="640"/>
    </contour>
  </outline>
</glyph>
<glyph name="L" format="2">
	<unicode hex="004C"/>
	<advance width="565"/>
	<outline>
		<contour>
			<point x="245" y="138" type="line" smooth="yes"/>
			<point x="245" y="132"/>
			<point x="244" y="81"/>
			<point x="252" y="61" type="curve" smooth="yes"/>
			<point x="258" y="47"/>
			<point x="291" y="41"/>
			<point x="316" y="41" type="curve" smooth="yes"/>
			<point x="380" y="41" type="line" smooth="yes"/>
			<point x="417" y="41"/>
			<point x="449" y="51"/>
			<point x="471" y="73" type="curve" smooth="yes"/>
			<point x="492" y="94"/>
			<point x="507" y="122"/>
			<point x="524" y="166" type="curve" smooth="yes"/>
			<point x="525" y="170"/>
			<point x="530" y="172"/>
			<point x="537" y="172" type="curve" smooth="yes"/>
			<point x="547" y="172"/>
			<point x="564" y="169"/>
			<point x="567" y="166" type="curve"/>
			<point x="548" y="113"/>
			<point x="521" y="41"/>
			<point x="514" y="-2" type="curve"/>
			<point x="487" y="-2"/>
			<point x="308" y="-2"/>
			<point x="177" y="-2" type="curve" smooth="yes"/>
			<point x="107" y="-2"/>
			<point x="50" y="-3"/>
			<point x="37" y="-3" type="curve"/>
			<point x="33" y="3"/>
			<point x="32" y="26"/>
			<point x="37" y="33" type="curve"/>
			<point x="50" y="34"/>
			<point x="95" y="37"/>
			<point x="100" y="50" type="curve" smooth="yes"/>
			<point x="108" y="70"/>
			<point x="108" y="100"/>
			<point x="108" y="142" type="curve" smooth="yes"/>
			<point x="108" y="501" type="line" smooth="yes"/>
			<point x="108" y="543"/>
			<point x="108" y="573"/>
			<point x="100" y="593" type="curve" smooth="yes"/>
			<point x="95" y="606"/>
			<point x="50" y="609"/>
			<point x="37" y="610" type="curve"/>
			<point x="32" y="617"/>
			<point x="33" y="640"/>
			<point x="37" y="646" type="curve"/>
			<point x="75" y="642"/>
			<point x="136" y="640"/>
			<point x="177" y="640" type="curve" smooth="yes"/>
			<point x="218" y="640"/>
			<point x="277" y="642"/>
			<point x="315" y="646" type="curve"/>
			<point x="319" y="640"/>
			<point x="320" y="617"/>
			<point x="315" y="610" type="curve"/>
			<point x="302" y="609"/>
			<point x="257" y="606"/>
			<point x="252" y="593" type="curve" smooth="yes"/>
			<point x="244" y="573"/>
			<point x="245" y="543"/>
			<point x="245" y="501" type="curve" smooth="yes"/>
		</contour>
	</outline>
</glyph>
<glyph name="M" format="2">
  <advance width="885"/>
  <unicode hex="004D"/>
  <outline>
    <contour>
      <point x="167" y="641" type="curve" smooth="yes"/>
      <point x="200" y="641"/>
      <point x="231" y="644"/>
      <point x="270" y="646" type="curve"/>
      <point x="298" y="584"/>
      <point x="381" y="398"/>
      <point x="454" y="232" type="curve"/>
      <point x="454" y="232"/>
      <point x="457" y="230"/>
      <point x="458" y="230" type="curve" smooth="yes"/>
      <point x="459" y="230"/>
      <point x="462" y="235"/>
      <point x="462" y="236" type="curve" smooth="yes"/>
      <point x="462" y="236"/>
      <point x="535" y="416"/>
      <point x="577" y="533" type="curve" smooth="yes"/>
      <point x="592" y="575"/>
      <point x="610" y="643"/>
      <point x="610" y="643" type="curve"/>
      <point x="619" y="642"/>
      <point x="696" y="640"/>
      <point x="715" y="640" type="curve" smooth="yes"/>
      <point x="748" y="640"/>
      <point x="790" y="644"/>
      <point x="829" y="646" type="curve"/>
      <point x="833" y="642"/>
      <point x="838" y="617"/>
      <point x="833" y="609" type="curve"/>
      <point x="825" y="609"/>
      <point x="792" y="606"/>
      <point x="782" y="599" type="curve" smooth="yes"/>
      <point x="772" y="592"/>
      <point x="768" y="585"/>
      <point x="769" y="559" type="curve" smooth="yes"/>
      <point x="772" y="491"/>
      <point x="777" y="273"/>
      <point x="783" y="148" type="curve" smooth="yes"/>
      <point x="785" y="110"/>
      <point x="786" y="75"/>
      <point x="796" y="50" type="curve" smooth="yes"/>
      <point x="802" y="36"/>
      <point x="850" y="32"/>
      <point x="858" y="32" type="curve"/>
      <point x="862" y="23"/>
      <point x="863" y="6"/>
      <point x="860" y="-4" type="curve"/>
      <point x="821" y="-2"/>
      <point x="770" y="4"/>
      <point x="727" y="4" type="curve" smooth="yes"/>
      <point x="682" y="4"/>
      <point x="618" y="-2"/>
      <point x="573" y="-4" type="curve"/>
      <point x="569" y="0"/>
      <point x="568" y="24"/>
      <point x="571" y="32" type="curve"/>
      <point x="583" y="32"/>
      <point x="631" y="37"/>
      <point x="640" y="51" type="curve" smooth="yes"/>
      <point x="645" y="59"/>
      <point x="648" y="75"/>
      <point x="648" y="85" type="curve" smooth="yes"/>
      <point x="648" y="95"/>
      <point x="648" y="127"/>
      <point x="647" y="145" type="curve" smooth="yes"/>
      <point x="637" y="485" type="line" smooth="yes"/>
      <point x="637" y="488"/>
      <point x="637" y="511"/>
      <point x="630" y="511" type="curve" smooth="yes"/>
      <point x="628" y="511"/>
      <point x="627" y="509"/>
      <point x="625" y="504" type="curve" smooth="yes"/>
      <point x="453" y="39" type="line" smooth="yes"/>
      <point x="450" y="30"/>
      <point x="429" y="-2"/>
      <point x="411" y="-2" type="curve" smooth="yes"/>
      <point x="408" y="-2"/>
      <point x="405" y="-1"/>
      <point x="402" y="0" type="curve"/>
      <point x="185" y="511" type="line"/>
      <point x="178" y="308"/>
      <point x="178" y="284"/>
      <point x="172" y="131" type="curve" smooth="yes"/>
      <point x="171" y="110"/>
      <point x="174" y="70"/>
      <point x="176" y="63" type="curve" smooth="yes"/>
      <point x="182" y="42"/>
      <point x="253" y="32"/>
      <point x="261" y="32" type="curve"/>
      <point x="264" y="25"/>
      <point x="266" y="6"/>
      <point x="263" y="-4" type="curve"/>
      <point x="224" y="-2"/>
      <point x="185" y="4"/>
      <point x="142" y="4" type="curve" smooth="yes"/>
      <point x="97" y="4"/>
      <point x="65" y="-2"/>
      <point x="20" y="-4" type="curve"/>
      <point x="16" y="3"/>
      <point x="16" y="21"/>
      <point x="19" y="31" type="curve"/>
      <point x="31" y="31"/>
      <point x="91" y="41"/>
      <point x="102" y="66" type="curve" smooth="yes"/>
      <point x="106" y="76"/>
      <point x="112" y="136"/>
      <point x="113" y="152" type="curve" smooth="yes"/>
      <point x="119" y="266"/>
      <point x="128" y="521"/>
      <point x="130" y="567" type="curve" smooth="yes"/>
      <point x="130" y="574"/>
      <point x="130" y="582"/>
      <point x="125" y="589" type="curve" smooth="yes"/>
      <point x="117" y="600"/>
      <point x="79" y="610"/>
      <point x="62" y="610" type="curve"/>
      <point x="56" y="618"/>
      <point x="60" y="644"/>
      <point x="62" y="646" type="curve"/>
      <point x="107" y="644"/>
      <point x="122" y="641"/>
    </contour>
  </outline>
</glyph>
<glyph name="N" format="2">
  <advance width="742"/>
  <unicode hex="004E"/>
  <outline>
    <contour>
      <point x="147" y="640" type="curve" smooth="yes"/>
      <point x="181" y="640"/>
      <point x="223" y="642"/>
      <point x="254" y="646" type="curve"/>
      <point x="291" y="570"/>
      <point x="447" y="391"/>
      <point x="567" y="242" type="curve"/>
      <point x="569" y="249"/>
      <point x="569" y="268"/>
      <point x="569" y="282" type="curve" smooth="yes"/>
      <point x="569" y="465" type="line" smooth="yes"/>
      <point x="569" y="502"/>
      <point x="565" y="575"/>
      <point x="558" y="590" type="curve" smooth="yes"/>
      <point x="550" y="608"/>
      <point x="491" y="611"/>
      <point x="479" y="611" type="curve"/>
      <point x="477" y="611"/>
      <point x="474" y="638"/>
      <point x="479" y="647" type="curve"/>
      <point x="524" y="645"/>
      <point x="553" y="640"/>
      <point x="598" y="640" type="curve" smooth="yes"/>
      <point x="641" y="640"/>
      <point x="682" y="645"/>
      <point x="721" y="647" type="curve"/>
      <point x="723" y="641"/>
      <point x="725" y="620"/>
      <point x="719" y="610" type="curve"/>
      <point x="711" y="610"/>
      <point x="646" y="609"/>
      <point x="638" y="588" type="curve" smooth="yes"/>
      <point x="633" y="574"/>
      <point x="629" y="503"/>
      <point x="629" y="468" type="curve" smooth="yes"/>
      <point x="629" y="136" type="line" smooth="yes"/>
      <point x="629" y="79"/>
      <point x="631" y="50"/>
      <point x="633" y="-1" type="curve"/>
      <point x="630" y="-4"/>
      <point x="611" y="-5"/>
      <point x="608" y="-5" type="curve" smooth="yes"/>
      <point x="599" y="-5"/>
      <point x="588" y="5"/>
      <point x="578" y="18" type="curve" smooth="yes"/>
      <point x="180" y="507" type="line"/>
      <point x="180" y="153" type="line" smooth="yes"/>
      <point x="180" y="118"/>
      <point x="186" y="73"/>
      <point x="191" y="59" type="curve" smooth="yes"/>
      <point x="198" y="40"/>
      <point x="263" y="33"/>
      <point x="271" y="33" type="curve"/>
      <point x="277" y="23"/>
      <point x="275" y="2"/>
      <point x="273" y="-4" type="curve"/>
      <point x="234" y="-2"/>
      <point x="193" y="4"/>
      <point x="150" y="4" type="curve" smooth="yes"/>
      <point x="105" y="4"/>
      <point x="76" y="-2"/>
      <point x="31" y="-4" type="curve"/>
      <point x="26" y="5"/>
      <point x="29" y="32"/>
      <point x="31" y="32" type="curve"/>
      <point x="43" y="32"/>
      <point x="101" y="40"/>
      <point x="109" y="58" type="curve" smooth="yes"/>
      <point x="116" y="73"/>
      <point x="121" y="119"/>
      <point x="121" y="156" type="curve" smooth="yes"/>
      <point x="121" y="284"/>
      <point x="121" y="374"/>
      <point x="121" y="502" type="curve" smooth="yes"/>
      <point x="121" y="529"/>
      <point x="116" y="571"/>
      <point x="103" y="590" type="curve" smooth="yes"/>
      <point x="94" y="603"/>
      <point x="51" y="610"/>
      <point x="39" y="610" type="curve" smooth="yes"/>
      <point x="34" y="610"/>
      <point x="32" y="641"/>
      <point x="37" y="646" type="curve"/>
      <point x="67" y="644"/>
      <point x="102" y="640"/>
    </contour>
  </outline>
</glyph>
<glyph name="O" format="2">
  <advance width="742"/>
  <unicode hex="004F"/>
  <outline>
    <contour>
      <point x="348" y="609" type="curve" smooth="yes"/>
      <point x="233" y="609"/>
      <point x="195" y="472"/>
      <point x="195" y="354" type="curve" smooth="yes"/>
      <point x="195" y="205"/>
      <point x="246" y="32"/>
      <point x="392" y="32" type="curve" smooth="yes"/>
      <point x="508" y="32"/>
      <point x="547" y="167"/>
      <point x="547" y="285" type="curve" smooth="yes"/>
      <point x="547" y="434"/>
      <point x="494" y="609"/>
    </contour>
    <contour>
      <point x="371" y="651" type="curve" smooth="yes"/>
      <point x="543" y="651"/>
      <point x="703" y="503"/>
      <point x="703" y="320" type="curve" smooth="yes"/>
      <point x="703" y="137"/>
      <point x="543" y="-10"/>
      <point x="371" y="-10" type="curve" smooth="yes"/>
      <point x="199" y="-10"/>
      <point x="39" y="137"/>
      <point x="39" y="320" type="curve" smooth="yes"/>
      <point x="39" y="503"/>
      <point x="199" y="651"/>
    </contour>
  </outline>
</glyph>
<glyph name="P" format="2">
  <advance width="571"/>
  <unicode hex="0050"/>
  <outline>
    <contour>
      <point x="552" y="471" type="curve" smooth="yes"/>
      <point x="552" y="354"/>
      <point x="455" y="280"/>
      <point x="356" y="280" type="curve" smooth="yes"/>
      <point x="321" y="280"/>
      <point x="295" y="296"/>
      <point x="288" y="303" type="curve" smooth="yes"/>
      <point x="284" y="307"/>
      <point x="281" y="319"/>
      <point x="281" y="327" type="curve" smooth="yes"/>
      <point x="281" y="331"/>
      <point x="283" y="334"/>
      <point x="285" y="334" type="curve"/>
      <point x="295" y="331"/>
      <point x="310" y="330"/>
      <point x="325" y="330" type="curve" smooth="yes"/>
      <point x="373" y="330"/>
      <point x="407" y="382"/>
      <point x="407" y="457" type="curve" smooth="yes"/>
      <point x="407" y="534"/>
      <point x="363" y="605"/>
      <point x="298" y="605" type="curve" smooth="yes"/>
      <point x="276" y="605"/>
      <point x="254" y="605"/>
      <point x="249" y="594" type="curve" smooth="yes"/>
      <point x="244" y="582"/>
      <point x="245" y="562"/>
      <point x="245" y="534" type="curve" smooth="yes"/>
      <point x="245" y="142" type="line" smooth="yes"/>
      <point x="245" y="100"/>
      <point x="244" y="70"/>
      <point x="252" y="50" type="curve" smooth="yes"/>
      <point x="257" y="37"/>
      <point x="302" y="33"/>
      <point x="315" y="32" type="curve"/>
      <point x="320" y="25"/>
      <point x="319" y="2"/>
      <point x="315" y="-4" type="curve"/>
      <point x="277" y="0"/>
      <point x="216" y="3"/>
      <point x="175" y="3" type="curve" smooth="yes"/>
      <point x="134" y="3"/>
      <point x="75" y="0"/>
      <point x="37" y="-4" type="curve"/>
      <point x="33" y="2"/>
      <point x="32" y="25"/>
      <point x="37" y="32" type="curve"/>
      <point x="50" y="33"/>
      <point x="95" y="37"/>
      <point x="100" y="50" type="curve" smooth="yes"/>
      <point x="108" y="70"/>
      <point x="108" y="100"/>
      <point x="108" y="142" type="curve" smooth="yes"/>
      <point x="108" y="501" type="line" smooth="yes"/>
      <point x="108" y="543"/>
      <point x="108" y="573"/>
      <point x="100" y="593" type="curve" smooth="yes"/>
      <point x="95" y="606"/>
      <point x="50" y="607"/>
      <point x="37" y="608" type="curve"/>
      <point x="32" y="615"/>
      <point x="33" y="639"/>
      <point x="37" y="645" type="curve"/>
      <point x="81" y="642"/>
      <point x="136" y="642"/>
      <point x="177" y="642" type="curve" smooth="yes"/>
      <point x="218" y="642"/>
      <point x="270" y="645"/>
      <point x="328" y="645" type="curve" smooth="yes"/>
      <point x="450" y="645"/>
      <point x="552" y="582"/>
    </contour>
  </outline>
</glyph>
<glyph name="Q" format="2">
  <advance width="742"/>
  <unicode hex="0051"/>
  <outline>
    <contour>
      <point x="371" y="651" type="curve" smooth="yes"/>
      <point x="543" y="651"/>
      <point x="703" y="503"/>
      <point x="703" y="320" type="curve" smooth="yes"/>
      <point x="703" y="174"/>
      <point x="600" y="50"/>
      <point x="471" y="7" type="curve"/>
      <point x="561" y="-37"/>
      <point x="588" y="-72"/>
      <point x="688" y="-72" type="curve" smooth="yes"/>
      <point x="727" y="-72"/>
      <point x="751" y="-64"/>
      <point x="758" y="-64" type="curve"/>
      <point x="764" y="-64"/>
      <point x="775" y="-69"/>
      <point x="780" y="-77" type="curve" smooth="yes"/>
      <point x="782" y="-80"/>
      <point x="782" y="-82"/>
      <point x="782" y="-82" type="curve"/>
      <point x="728" y="-110"/>
      <point x="642" y="-140"/>
      <point x="582" y="-140" type="curve" smooth="yes"/>
      <point x="475" y="-140"/>
      <point x="399" y="-32"/>
      <point x="294" y="0" type="curve" smooth="yes"/>
      <point x="153" y="37"/>
      <point x="39" y="166"/>
      <point x="39" y="320" type="curve" smooth="yes"/>
      <point x="39" y="503"/>
      <point x="199" y="651"/>
    </contour>
    <contour>
      <point x="348" y="609" type="curve" smooth="yes"/>
      <point x="233" y="609"/>
      <point x="195" y="472"/>
      <point x="195" y="354" type="curve" smooth="yes"/>
      <point x="195" y="205"/>
      <point x="246" y="32"/>
      <point x="392" y="32" type="curve" smooth="yes"/>
      <point x="508" y="32"/>
      <point x="547" y="167"/>
      <point x="547" y="285" type="curve" smooth="yes"/>
      <point x="547" y="434"/>
      <point x="494" y="609"/>
    </contour>
  </outline>
</glyph>
<glyph name="R" format="2">
  <advance width="676"/>
  <unicode hex="0052"/>
  <outline>
    <contour>
      <point x="328" y="645" type="curve" smooth="yes"/>
      <point x="450" y="645"/>
      <point x="541" y="584"/>
      <point x="541" y="467" type="curve" smooth="yes"/>
      <point x="541" y="387"/>
      <point x="456" y="321"/>
      <point x="409" y="309" type="curve"/>
      <point x="480" y="213"/>
      <point x="550" y="127"/>
      <point x="550" y="127" type="curve"/>
      <point x="622" y="35"/>
      <point x="704" y="32"/>
      <point x="712" y="32" type="curve"/>
      <point x="717" y="25"/>
      <point x="713" y="-2"/>
      <point x="712" y="-4" type="curve"/>
      <point x="684" y="-6"/>
      <point x="624" y="-8"/>
      <point x="584" y="-8" type="curve" smooth="yes"/>
      <point x="509" y="-8"/>
      <point x="459" y="32"/>
      <point x="435" y="65" type="curve" smooth="yes"/>
      <point x="277" y="277" type="line" smooth="yes"/>
      <point x="277" y="277"/>
      <point x="267" y="292"/>
      <point x="259" y="292" type="curve" smooth="yes"/>
      <point x="245" y="292" type="line"/>
      <point x="245" y="142" type="line" smooth="yes"/>
      <point x="245" y="100"/>
      <point x="244" y="70"/>
      <point x="252" y="50" type="curve" smooth="yes"/>
      <point x="257" y="37"/>
      <point x="302" y="33"/>
      <point x="315" y="32" type="curve"/>
      <point x="320" y="25"/>
      <point x="319" y="2"/>
      <point x="315" y="-4" type="curve"/>
      <point x="277" y="0"/>
      <point x="216" y="3"/>
      <point x="175" y="3" type="curve" smooth="yes"/>
      <point x="134" y="3"/>
      <point x="75" y="0"/>
      <point x="37" y="-4" type="curve"/>
      <point x="33" y="2"/>
      <point x="32" y="25"/>
      <point x="37" y="32" type="curve"/>
      <point x="50" y="33"/>
      <point x="95" y="37"/>
      <point x="100" y="50" type="curve" smooth="yes"/>
      <point x="108" y="70"/>
      <point x="108" y="100"/>
      <point x="108" y="142" type="curve" smooth="yes"/>
      <point x="108" y="501" type="line" smooth="yes"/>
      <point x="108" y="543"/>
      <point x="108" y="573"/>
      <point x="100" y="593" type="curve" smooth="yes"/>
      <point x="95" y="606"/>
      <point x="50" y="607"/>
      <point x="37" y="608" type="curve"/>
      <point x="32" y="615"/>
      <point x="33" y="639"/>
      <point x="37" y="645" type="curve"/>
      <point x="81" y="642"/>
      <point x="136" y="642"/>
      <point x="177" y="642" type="curve" smooth="yes"/>
      <point x="218" y="642"/>
      <point x="270" y="645"/>
    </contour>
    <contour>
      <point x="396" y="457" type="curve" smooth="yes"/>
      <point x="396" y="534"/>
      <point x="378" y="605"/>
      <point x="298" y="605" type="curve" smooth="yes"/>
      <point x="276" y="605"/>
      <point x="254" y="605"/>
      <point x="249" y="594" type="curve" smooth="yes"/>
      <point x="244" y="582"/>
      <point x="245" y="562"/>
      <point x="245" y="534" type="curve" smooth="yes"/>
      <point x="245" y="330" type="line"/>
      <point x="289" y="330" type="line" smooth="yes"/>
      <point x="345" y="330"/>
      <point x="396" y="382"/>
    </contour>
  </outline>
</glyph>
<glyph name="S" format="2">
	<unicode hex="0053"/>
	<advance width="508"/>
	<outline>
		<contour>
			<point x="261" y="654" type="curve" smooth="yes"/>
			<point x="319" y="654"/>
			<point x="365" y="640"/>
			<point x="425" y="627" type="curve"/>
			<point x="430" y="575"/>
			<point x="433" y="525"/>
			<point x="436" y="465" type="curve"/>
			<point x="433" y="461"/>
			<point x="429" y="459"/>
			<point x="425" y="459" type="curve" smooth="yes"/>
			<point x="422" y="459"/>
			<point x="398" y="458"/>
			<point x="396" y="466" type="curve" smooth="yes"/>
			<point x="388" y="521"/>
			<point x="341" y="613"/>
			<point x="266" y="613" type="curve" smooth="yes"/>
			<point x="228" y="613"/>
			<point x="183" y="593"/>
			<point x="183" y="528" type="curve" smooth="yes"/>
			<point x="183" y="467"/>
			<point x="264" y="412"/>
			<point x="324" y="372" type="curve" smooth="yes"/>
			<point x="388" y="329"/>
			<point x="468" y="287"/>
			<point x="468" y="171" type="curve" smooth="yes"/>
			<point x="468" y="64"/>
			<point x="362" y="-10"/>
			<point x="255" y="-10" type="curve" smooth="yes"/>
			<point x="197" y="-10"/>
			<point x="128" y="2"/>
			<point x="69" y="16" type="curve"/>
			<point x="59" y="59"/>
			<point x="48" y="155"/>
			<point x="46" y="182" type="curve"/>
			<point x="50" y="188"/>
			<point x="69" y="195"/>
			<point x="74" y="195" type="curve" smooth="yes"/>
			<point x="81" y="195"/>
			<point x="86" y="194"/>
			<point x="87" y="188" type="curve" smooth="yes"/>
			<point x="96" y="135"/>
			<point x="157" y="31"/>
			<point x="245" y="31" type="curve" smooth="yes"/>
			<point x="295" y="31"/>
			<point x="340" y="57"/>
			<point x="340" y="126" type="curve" smooth="yes"/>
			<point x="340" y="195"/>
			<point x="244" y="252"/>
			<point x="195" y="285" type="curve" smooth="yes"/>
			<point x="124" y="333"/>
			<point x="53" y="376"/>
			<point x="53" y="478" type="curve" smooth="yes"/>
			<point x="53" y="579"/>
			<point x="160" y="654"/>
		</contour>
	</outline>
</glyph>
<glyph name="T" format="2">
  <advance width="619"/>
  <unicode hex="0054"/>
  <outline>
    <contour>
      <point x="472" y="642" type="curve" smooth="yes"/>
      <point x="542" y="642"/>
      <point x="555" y="660"/>
      <point x="573" y="660" type="curve" smooth="yes"/>
      <point x="581" y="660"/>
      <point x="581" y="659"/>
      <point x="585" y="657" type="curve"/>
      <point x="611" y="478" type="line"/>
      <point x="608" y="475"/>
      <point x="592" y="471"/>
      <point x="583" y="471" type="curve" smooth="yes"/>
      <point x="578" y="471"/>
      <point x="574" y="472"/>
      <point x="573" y="476" type="curve" smooth="yes"/>
      <point x="563" y="539"/>
      <point x="519" y="599"/>
      <point x="469" y="599" type="curve" smooth="yes"/>
      <point x="378" y="599" type="line"/>
      <point x="378" y="142" type="line" smooth="yes"/>
      <point x="378" y="100"/>
      <point x="378" y="70"/>
      <point x="386" y="50" type="curve" smooth="yes"/>
      <point x="391" y="37"/>
      <point x="435" y="33"/>
      <point x="448" y="32" type="curve"/>
      <point x="453" y="25"/>
      <point x="452" y="2"/>
      <point x="448" y="-4" type="curve"/>
      <point x="410" y="0"/>
      <point x="350" y="3"/>
      <point x="309" y="3" type="curve" smooth="yes"/>
      <point x="268" y="3"/>
      <point x="209" y="0"/>
      <point x="171" y="-4" type="curve"/>
      <point x="167" y="2"/>
      <point x="166" y="25"/>
      <point x="171" y="32" type="curve"/>
      <point x="184" y="33"/>
      <point x="228" y="37"/>
      <point x="233" y="50" type="curve" smooth="yes"/>
      <point x="241" y="70"/>
      <point x="241" y="100"/>
      <point x="241" y="142" type="curve" smooth="yes"/>
      <point x="241" y="599" type="line"/>
      <point x="150" y="599" type="line" smooth="yes"/>
      <point x="100" y="599"/>
      <point x="56" y="539"/>
      <point x="46" y="476" type="curve" smooth="yes"/>
      <point x="45" y="472"/>
      <point x="41" y="471"/>
      <point x="36" y="471" type="curve" smooth="yes"/>
      <point x="27" y="471"/>
      <point x="11" y="475"/>
      <point x="8" y="478" type="curve"/>
      <point x="34" y="657" type="line"/>
      <point x="38" y="659"/>
      <point x="38" y="660"/>
      <point x="46" y="660" type="curve" smooth="yes"/>
      <point x="64" y="660"/>
      <point x="77" y="642"/>
      <point x="147" y="642" type="curve" smooth="yes"/>
      <point x="234" y="642"/>
      <point x="385" y="642"/>
    </contour>
  </outline>
</glyph>
<glyph name="U" format="2">
  <advance width="712"/>
  <unicode hex="0055"/>
  <outline>
    <contour>
      <point x="162" y="640" type="curve" smooth="yes"/>
      <point x="203" y="640"/>
      <point x="261" y="642"/>
      <point x="299" y="646" type="curve"/>
      <point x="303" y="640"/>
      <point x="304" y="617"/>
      <point x="299" y="610" type="curve"/>
      <point x="286" y="609"/>
      <point x="242" y="606"/>
      <point x="237" y="593" type="curve" smooth="yes"/>
      <point x="229" y="573"/>
      <point x="229" y="543"/>
      <point x="229" y="501" type="curve" smooth="yes"/>
      <point x="229" y="322" type="line" smooth="yes"/>
      <point x="229" y="256"/>
      <point x="231" y="207"/>
      <point x="253" y="155" type="curve" smooth="yes"/>
      <point x="290" y="69"/>
      <point x="364" y="62"/>
      <point x="402" y="62" type="curve" smooth="yes"/>
      <point x="480" y="62"/>
      <point x="560" y="131"/>
      <point x="560" y="302" type="curve" smooth="yes"/>
      <point x="560" y="468" type="line" smooth="yes"/>
      <point x="560" y="510"/>
      <point x="554" y="567"/>
      <point x="546" y="587" type="curve" smooth="yes"/>
      <point x="538" y="606"/>
      <point x="486" y="609"/>
      <point x="473" y="610" type="curve"/>
      <point x="468" y="617"/>
      <point x="469" y="640"/>
      <point x="473" y="646" type="curve"/>
      <point x="519" y="642"/>
      <point x="550" y="640"/>
      <point x="595" y="640" type="curve" smooth="yes"/>
      <point x="638" y="640"/>
      <point x="669" y="644"/>
      <point x="709" y="646" type="curve"/>
      <point x="713" y="640"/>
      <point x="714" y="617"/>
      <point x="709" y="610" type="curve"/>
      <point x="696" y="609"/>
      <point x="642" y="608"/>
      <point x="634" y="587" type="curve" smooth="yes"/>
      <point x="626" y="567"/>
      <point x="620" y="511"/>
      <point x="620" y="469" type="curve" smooth="yes"/>
      <point x="620" y="279" type="line" smooth="yes"/>
      <point x="620" y="80"/>
      <point x="494" y="-9"/>
      <point x="353" y="-9" type="curve" smooth="yes"/>
      <point x="271" y="-9"/>
      <point x="194" y="18"/>
      <point x="147" y="77" type="curve" smooth="yes"/>
      <point x="109" y="125"/>
      <point x="92" y="192"/>
      <point x="92" y="294" type="curve" smooth="yes"/>
      <point x="92" y="501" type="line" smooth="yes"/>
      <point x="92" y="543"/>
      <point x="92" y="573"/>
      <point x="84" y="593" type="curve" smooth="yes"/>
      <point x="79" y="606"/>
      <point x="35" y="609"/>
      <point x="22" y="610" type="curve"/>
      <point x="17" y="617"/>
      <point x="18" y="640"/>
      <point x="22" y="646" type="curve"/>
      <point x="60" y="642"/>
      <point x="121" y="640"/>
    </contour>
  </outline>
</glyph>
<glyph name="V" format="2">
	<unicode hex="0056"/>
	<advance width="667"/>
	<outline>
		<contour>
			<point x="137" y="640" type="curve" smooth="yes"/>
			<point x="178" y="640"/>
			<point x="237" y="642"/>
			<point x="275" y="646" type="curve"/>
			<point x="279" y="640"/>
			<point x="280" y="617"/>
			<point x="275" y="610" type="curve"/>
			<point x="262" y="609"/>
			<point x="215" y="608"/>
			<point x="215" y="584" type="curve" smooth="yes"/>
			<point x="215" y="568"/>
			<point x="227" y="538"/>
			<point x="239" y="511" type="curve" smooth="yes"/>
			<point x="296" y="381"/>
			<point x="384" y="182"/>
			<point x="384" y="182" type="curve"/>
			<point x="384" y="182"/>
			<point x="503" y="482"/>
			<point x="513" y="509" type="curve" smooth="yes"/>
			<point x="522" y="534"/>
			<point x="535" y="566"/>
			<point x="535" y="587" type="curve" smooth="yes"/>
			<point x="535" y="605"/>
			<point x="469" y="609"/>
			<point x="456" y="610" type="curve"/>
			<point x="451" y="617"/>
			<point x="452" y="640"/>
			<point x="456" y="646" type="curve"/>
			<point x="502" y="642"/>
			<point x="528" y="640"/>
			<point x="573" y="640" type="curve" smooth="yes"/>
			<point x="616" y="640"/>
			<point x="642" y="644"/>
			<point x="682" y="646" type="curve"/>
			<point x="686" y="640"/>
			<point x="687" y="617"/>
			<point x="682" y="610" type="curve"/>
			<point x="669" y="609"/>
			<point x="626" y="609"/>
			<point x="614" y="593" type="curve" smooth="yes"/>
			<point x="599" y="573"/>
			<point x="588" y="544"/>
			<point x="574" y="512" type="curve" smooth="yes"/>
			<point x="494" y="316"/>
			<point x="446" y="210"/>
			<point x="371" y="29" type="curve" smooth="yes"/>
			<point x="363" y="11"/>
			<point x="337" y="-11"/>
			<point x="325" y="-11" type="curve" smooth="yes"/>
			<point x="316" y="-11"/>
			<point x="316" y="-4"/>
			<point x="311" y="3" type="curve"/>
			<point x="98" y="498" type="line" smooth="yes"/>
			<point x="86" y="526"/>
			<point x="73" y="558"/>
			<point x="64" y="578" type="curve" smooth="yes"/>
			<point x="52" y="603"/>
			<point x="10" y="609"/>
			<point x="-3" y="610" type="curve"/>
			<point x="-8" y="617"/>
			<point x="-7" y="640"/>
			<point x="-3" y="646" type="curve"/>
			<point x="35" y="642"/>
			<point x="96" y="640"/>
		</contour>
	</outline>
</glyph>
<glyph name="W" format="2">
  <advance width="928"/>
  <unicode hex="0057"/>
  <outline>
    <contour>
      <point x="137" y="640" type="curve" smooth="yes"/>
      <point x="178" y="640"/>
      <point x="237" y="642"/>
      <point x="275" y="646" type="curve"/>
      <point x="279" y="640"/>
      <point x="280" y="617"/>
      <point x="275" y="610" type="curve"/>
      <point x="262" y="609"/>
      <point x="216" y="608"/>
      <point x="216" y="584" type="curve" smooth="yes"/>
      <point x="216" y="568"/>
      <point x="228" y="539"/>
      <point x="239" y="511" type="curve" smooth="yes"/>
      <point x="282" y="392"/>
      <point x="335" y="245"/>
      <point x="335" y="245" type="curve"/>
      <point x="335" y="245"/>
      <point x="442" y="547"/>
      <point x="465" y="610" type="curve" smooth="yes"/>
      <point x="472" y="629"/>
      <point x="484" y="646"/>
      <point x="495" y="646" type="curve" smooth="yes"/>
      <point x="499" y="646"/>
      <point x="503" y="642"/>
      <point x="507" y="631" type="curve" smooth="yes"/>
      <point x="571" y="467"/>
      <point x="674" y="209"/>
      <point x="674" y="209" type="curve"/>
      <point x="674" y="209"/>
      <point x="759" y="478"/>
      <point x="769" y="509" type="curve" smooth="yes"/>
      <point x="777" y="534"/>
      <point x="789" y="566"/>
      <point x="789" y="587" type="curve" smooth="yes"/>
      <point x="789" y="605"/>
      <point x="726" y="609"/>
      <point x="713" y="610" type="curve"/>
      <point x="708" y="617"/>
      <point x="709" y="640"/>
      <point x="713" y="646" type="curve"/>
      <point x="759" y="642"/>
      <point x="784" y="640"/>
      <point x="829" y="640" type="curve" smooth="yes"/>
      <point x="872" y="640"/>
      <point x="898" y="644"/>
      <point x="938" y="646" type="curve"/>
      <point x="942" y="640"/>
      <point x="943" y="617"/>
      <point x="938" y="610" type="curve"/>
      <point x="925" y="609"/>
      <point x="882" y="609"/>
      <point x="870" y="593" type="curve" smooth="yes"/>
      <point x="855" y="573"/>
      <point x="841" y="546"/>
      <point x="830" y="512" type="curve" smooth="yes"/>
      <point x="769" y="327"/>
      <point x="732" y="220"/>
      <point x="670" y="39" type="curve" smooth="yes"/>
      <point x="661" y="15"/>
      <point x="643" y="-11"/>
      <point x="631" y="-11" type="curve" smooth="yes"/>
      <point x="622" y="-11"/>
      <point x="617" y="-4"/>
      <point x="612" y="3" type="curve"/>
      <point x="451" y="408" type="line"/>
      <point x="451" y="408"/>
      <point x="375" y="184"/>
      <point x="327" y="43" type="curve" smooth="yes"/>
      <point x="323" y="32"/>
      <point x="305" y="-11"/>
      <point x="293" y="-11" type="curve" smooth="yes"/>
      <point x="284" y="-11"/>
      <point x="279" y="-4"/>
      <point x="274" y="3" type="curve"/>
      <point x="98" y="498" type="line" smooth="yes"/>
      <point x="88" y="527"/>
      <point x="73" y="558"/>
      <point x="64" y="578" type="curve" smooth="yes"/>
      <point x="52" y="603"/>
      <point x="11" y="609"/>
      <point x="-2" y="610" type="curve"/>
      <point x="-8" y="617"/>
      <point x="-6" y="640"/>
      <point x="-2" y="646" type="curve"/>
      <point x="36" y="642"/>
      <point x="96" y="640"/>
    </contour>
  </outline>
</glyph>
<glyph name="X" format="2">
	<unicode hex="0058"/>
	<advance width="693"/>
	<outline>
		<contour>
			<point x="172" y="641" type="curve" smooth="yes"/>
			<point x="220" y="641"/>
			<point x="273" y="644"/>
			<point x="312" y="646" type="curve"/>
			<point x="314" y="640"/>
			<point x="315" y="610"/>
			<point x="310" y="610" type="curve"/>
			<point x="296" y="610"/>
			<point x="260" y="605"/>
			<point x="259" y="590" type="curve" smooth="yes"/>
			<point x="259" y="584"/>
			<point x="262" y="574"/>
			<point x="266" y="568" type="curve" smooth="yes"/>
			<point x="375" y="404" type="line"/>
			<point x="418" y="460"/>
			<point x="487" y="538"/>
			<point x="502" y="570" type="curve" smooth="yes"/>
			<point x="504" y="574"/>
			<point x="505" y="578"/>
			<point x="505" y="580" type="curve" smooth="yes"/>
			<point x="505" y="597"/>
			<point x="465" y="610"/>
			<point x="432" y="610" type="curve"/>
			<point x="427" y="610"/>
			<point x="426" y="641"/>
			<point x="431" y="646" type="curve"/>
			<point x="465" y="642"/>
			<point x="525" y="640"/>
			<point x="561" y="640" type="curve" smooth="yes"/>
			<point x="612" y="640"/>
			<point x="650" y="642"/>
			<point x="678" y="646" type="curve"/>
			<point x="681" y="640"/>
			<point x="682" y="610"/>
			<point x="677" y="610" type="curve"/>
			<point x="669" y="610"/>
			<point x="610" y="609"/>
			<point x="568" y="559" type="curve" smooth="yes"/>
			<point x="401" y="360" type="line"/>
			<point x="483" y="236"/>
			<point x="582" y="91"/>
			<point x="597" y="74" type="curve" smooth="yes"/>
			<point x="625" y="40"/>
			<point x="680" y="32"/>
			<point x="694" y="32" type="curve"/>
			<point x="698" y="23"/>
			<point x="699" y="4"/>
			<point x="694" y="-4" type="curve"/>
			<point x="655" y="-2"/>
			<point x="578" y="2"/>
			<point x="538" y="2" type="curve" smooth="yes"/>
			<point x="483" y="2"/>
			<point x="439" y="-2"/>
			<point x="384" y="-4" type="curve"/>
			<point x="379" y="1"/>
			<point x="380" y="32"/>
			<point x="385" y="32" type="curve" smooth="yes"/>
			<point x="396" y="32"/>
			<point x="440" y="42"/>
			<point x="440" y="60" type="curve" smooth="yes"/>
			<point x="440" y="63"/>
			<point x="439" y="67"/>
			<point x="437" y="70" type="curve" smooth="yes"/>
			<point x="307" y="267" type="line"/>
			<point x="292" y="247"/>
			<point x="201" y="127"/>
			<point x="173" y="81" type="curve" smooth="yes"/>
			<point x="168" y="73"/>
			<point x="165" y="67"/>
			<point x="165" y="64" type="curve" smooth="yes"/>
			<point x="165" y="41"/>
			<point x="217" y="32"/>
			<point x="246" y="32" type="curve"/>
			<point x="251" y="25"/>
			<point x="252" y="7"/>
			<point x="249" y="-4" type="curve"/>
			<point x="217" y="-2"/>
			<point x="156" y="2"/>
			<point x="120" y="2" type="curve" smooth="yes"/>
			<point x="69" y="2"/>
			<point x="34" y="-2"/>
			<point x="-5" y="-4" type="curve"/>
			<point x="-10" y="2"/>
			<point x="-10" y="25"/>
			<point x="-5" y="32" type="curve"/>
			<point x="3" y="32"/>
			<point x="70" y="34"/>
			<point x="101" y="77" type="curve" smooth="yes"/>
			<point x="275" y="314" type="line"/>
			<point x="138" y="524" type="line" smooth="yes"/>
			<point x="120" y="550"/>
			<point x="100" y="586"/>
			<point x="86" y="596" type="curve" smooth="yes"/>
			<point x="72" y="606"/>
			<point x="31" y="610"/>
			<point x="19" y="610" type="curve"/>
			<point x="14" y="610"/>
			<point x="14" y="641"/>
			<point x="19" y="646" type="curve"/>
			<point x="67" y="644"/>
			<point x="124" y="641"/>
		</contour>
	</outline>
</glyph>
<glyph name="Y" format="2">
  <advance width="609"/>
  <unicode hex="0059"/>
  <outline>
    <contour>
      <point x="228" y="142" type="curve" smooth="yes"/>
      <point x="228" y="277" type="line" smooth="yes"/>
      <point x="228" y="284"/>
      <point x="226" y="289"/>
      <point x="222" y="297" type="curve" smooth="yes"/>
      <point x="197" y="350"/>
      <point x="100" y="524"/>
      <point x="100" y="524" type="curve" smooth="yes"/>
      <point x="85" y="551"/>
      <point x="82" y="558"/>
      <point x="70" y="578" type="curve" smooth="yes"/>
      <point x="55" y="602"/>
      <point x="16" y="609"/>
      <point x="3" y="610" type="curve"/>
      <point x="-2" y="617"/>
      <point x="-1" y="640"/>
      <point x="3" y="646" type="curve"/>
      <point x="41" y="642"/>
      <point x="102" y="640"/>
      <point x="143" y="640" type="curve" smooth="yes"/>
      <point x="184" y="640"/>
      <point x="243" y="642"/>
      <point x="281" y="646" type="curve"/>
      <point x="285" y="640"/>
      <point x="286" y="617"/>
      <point x="281" y="610" type="curve"/>
      <point x="268" y="609"/>
      <point x="221" y="608"/>
      <point x="221" y="584" type="curve" smooth="yes"/>
      <point x="221" y="580"/>
      <point x="224" y="575"/>
      <point x="228" y="568" type="curve" smooth="yes"/>
      <point x="345" y="353" type="line"/>
      <point x="350" y="348"/>
      <point x="426" y="486"/>
      <point x="468" y="564" type="curve" smooth="yes"/>
      <point x="472" y="572"/>
      <point x="473" y="580"/>
      <point x="473" y="587" type="curve" smooth="yes"/>
      <point x="473" y="605"/>
      <point x="414" y="609"/>
      <point x="401" y="610" type="curve"/>
      <point x="396" y="617"/>
      <point x="397" y="640"/>
      <point x="401" y="646" type="curve"/>
      <point x="447" y="642"/>
      <point x="466" y="640"/>
      <point x="511" y="640" type="curve" smooth="yes"/>
      <point x="554" y="640"/>
      <point x="580" y="644"/>
      <point x="620" y="646" type="curve"/>
      <point x="624" y="640"/>
      <point x="625" y="617"/>
      <point x="620" y="610" type="curve"/>
      <point x="607" y="609"/>
      <point x="563" y="608"/>
      <point x="548" y="586" type="curve" smooth="yes"/>
      <point x="529" y="557"/>
      <point x="398" y="349"/>
      <point x="370" y="291" type="curve" smooth="yes"/>
      <point x="367" y="284"/>
      <point x="365" y="278"/>
      <point x="365" y="272" type="curve" smooth="yes"/>
      <point x="365" y="142" type="line" smooth="yes"/>
      <point x="365" y="100"/>
      <point x="364" y="70"/>
      <point x="372" y="50" type="curve" smooth="yes"/>
      <point x="377" y="37"/>
      <point x="422" y="33"/>
      <point x="435" y="32" type="curve"/>
      <point x="440" y="25"/>
      <point x="439" y="2"/>
      <point x="435" y="-4" type="curve"/>
      <point x="397" y="0"/>
      <point x="336" y="3"/>
      <point x="295" y="3" type="curve" smooth="yes"/>
      <point x="254" y="3"/>
      <point x="196" y="0"/>
      <point x="158" y="-4" type="curve"/>
      <point x="154" y="2"/>
      <point x="153" y="25"/>
      <point x="158" y="32" type="curve"/>
      <point x="171" y="33"/>
      <point x="215" y="37"/>
      <point x="220" y="50" type="curve" smooth="yes"/>
      <point x="228" y="70"/>
      <point x="228" y="100"/>
    </contour>
  </outline>
</glyph>
<glyph name="Z" format="2">
	<unicode hex="005A"/>
	<advance width="625"/>
	<outline>
		<contour>
			<point x="228" y="596" type="line" smooth="yes"/>
			<point x="124" y="596"/>
			<point x="108" y="524"/>
			<point x="86" y="463" type="curve" smooth="yes"/>
			<point x="85" y="460"/>
			<point x="84" y="457"/>
			<point x="74" y="457" type="curve" smooth="yes"/>
			<point x="63" y="457"/>
			<point x="48" y="459"/>
			<point x="45" y="462" type="curve"/>
			<point x="56" y="519"/>
			<point x="70" y="584"/>
			<point x="80" y="646" type="curve"/>
			<point x="96" y="642"/>
			<point x="194" y="640"/>
			<point x="208" y="640" type="curve" smooth="yes"/>
			<point x="345" y="641" type="line" smooth="yes"/>
			<point x="427" y="642"/>
			<point x="490" y="644"/>
			<point x="572" y="650" type="curve"/>
			<point x="576" y="649"/>
			<point x="581" y="628"/>
			<point x="581" y="618" type="curve"/>
			<point x="579" y="610"/>
			<point x="202" y="46"/>
			<point x="202" y="46" type="curve"/>
			<point x="412" y="46" type="line" smooth="yes"/>
			<point x="449" y="46"/>
			<point x="483" y="58"/>
			<point x="505" y="80" type="curve" smooth="yes"/>
			<point x="526" y="101"/>
			<point x="540" y="122"/>
			<point x="557" y="166" type="curve" smooth="yes"/>
			<point x="558" y="170"/>
			<point x="564" y="172"/>
			<point x="571" y="172" type="curve" smooth="yes"/>
			<point x="581" y="172"/>
			<point x="597" y="169"/>
			<point x="600" y="166" type="curve"/>
			<point x="584" y="114"/>
			<point x="556" y="43"/>
			<point x="547" y="1" type="curve"/>
			<point x="506" y="1"/>
			<point x="45" y="0"/>
			<point x="45" y="0" type="curve"/>
			<point x="32" y="0"/>
			<point x="17" y="17"/>
			<point x="20" y="21" type="curve" smooth="yes"/>
			<point x="407" y="596" type="line"/>
		</contour>
	</outline>
</glyph>
<glyph name="asciicircum" format="2">
	<unicode hex="005E"/>
	<advance width="381"/>
	<outline>
		<contour>
			<point x="182" y="653" type="curve" smooth="yes"/>
			<point x="188" y="653"/>
			<point x="196" y="649"/>
			<point x="201" y="640" type="curve" smooth="yes"/>
			<point x="251" y="553"/>
			<point x="272" y="509"/>
			<point x="325" y="427" type="curve"/>
			<point x="325" y="416"/>
			<point x="315" y="409"/>
			<point x="307" y="409" type="curve"/>
			<point x="250" y="462"/>
			<point x="182" y="543"/>
			<point x="182" y="543" type="curve"/>
			<point x="182" y="543"/>
			<point x="114" y="462"/>
			<point x="57" y="409" type="curve"/>
			<point x="49" y="409"/>
			<point x="37" y="416"/>
			<point x="37" y="427" type="curve"/>
			<point x="90" y="509"/>
			<point x="113" y="553"/>
			<point x="163" y="640" type="curve" smooth="yes"/>
			<point x="168" y="649"/>
			<point x="176" y="653"/>
		</contour>
	</outline>
</glyph>
<glyph name="a" format="2">
	<unicode hex="0061"/>
	<advance width="460"/>
	<outline>
		<contour>
			<point x="222" y="61" type="curve" smooth="yes"/>
			<point x="246" y="61"/>
			<point x="262" y="75"/>
			<point x="262" y="81" type="curve" smooth="yes"/>
			<point x="262" y="218" type="line"/>
			<point x="242" y="208"/>
			<point x="217" y="200"/>
			<point x="197" y="187" type="curve" smooth="yes"/>
			<point x="170" y="169"/>
			<point x="161" y="142"/>
			<point x="162" y="121" type="curve" smooth="yes"/>
			<point x="163" y="79"/>
			<point x="197" y="61"/>
		</contour>
		<contour>
			<point x="242" y="438" type="curve" smooth="yes"/>
			<point x="323" y="438"/>
			<point x="389" y="377"/>
			<point x="389" y="289" type="curve" smooth="yes"/>
			<point x="389" y="106" type="line" smooth="yes"/>
			<point x="389" y="80"/>
			<point x="399" y="66"/>
			<point x="412" y="66" type="curve" smooth="yes"/>
			<point x="426" y="66"/>
			<point x="436" y="74"/>
			<point x="440" y="76" type="curve"/>
			<point x="444" y="74"/>
			<point x="447" y="66"/>
			<point x="447" y="60" type="curve" smooth="yes"/>
			<point x="447" y="53"/>
			<point x="446" y="50"/>
			<point x="443" y="45" type="curve"/>
			<point x="429" y="32"/>
			<point x="384" y="-6"/>
			<point x="343" y="-6" type="curve" smooth="yes"/>
			<point x="311" y="-6"/>
			<point x="278" y="20"/>
			<point x="269" y="43" type="curve"/>
			<point x="260" y="35"/>
			<point x="193" y="-8"/>
			<point x="158" y="-8" type="curve" smooth="yes"/>
			<point x="84" y="-8"/>
			<point x="30" y="53"/>
			<point x="30" y="111" type="curve" smooth="yes"/>
			<point x="30" y="149"/>
			<point x="56" y="181"/>
			<point x="81" y="189" type="curve" smooth="yes"/>
			<point x="118" y="201"/>
			<point x="212" y="239"/>
			<point x="262" y="258" type="curve"/>
			<point x="262" y="265"/>
			<point x="262" y="271"/>
			<point x="262" y="278" type="curve" smooth="yes"/>
			<point x="262" y="304" type="line" smooth="yes"/>
			<point x="262" y="353"/>
			<point x="238" y="401"/>
			<point x="204" y="401" type="curve" smooth="yes"/>
			<point x="167" y="401"/>
			<point x="157" y="363"/>
			<point x="147" y="319" type="curve" smooth="yes"/>
			<point x="142" y="297"/>
			<point x="127" y="276"/>
			<point x="93" y="276" type="curve" smooth="yes"/>
			<point x="67" y="276"/>
			<point x="42" y="296"/>
			<point x="42" y="323" type="curve" smooth="yes"/>
			<point x="42" y="336"/>
			<point x="48" y="349"/>
			<point x="56" y="363" type="curve"/>
			<point x="69" y="376"/>
			<point x="156" y="438"/>
		</contour>
	</outline>
</glyph>
<glyph name="b" format="2">
  <advance width="529"/>
  <unicode hex="0062"/>
  <outline>
    <contour>
      <point x="238" y="-8" type="curve" smooth="yes"/>
      <point x="187" y="-8"/>
      <point x="140" y="15"/>
      <point x="115" y="15" type="curve" smooth="yes"/>
      <point x="97" y="15"/>
      <point x="86" y="11"/>
      <point x="79" y="8" type="curve"/>
      <point x="76" y="8"/>
      <point x="55" y="25"/>
      <point x="55" y="32" type="curve"/>
      <point x="62" y="50"/>
      <point x="67" y="84"/>
      <point x="67" y="148" type="curve" smooth="yes"/>
      <point x="67" y="545" type="line" smooth="yes"/>
      <point x="67" y="562"/>
      <point x="67" y="575"/>
      <point x="60" y="592" type="curve" smooth="yes"/>
      <point x="55" y="604"/>
      <point x="13" y="609"/>
      <point x="1" y="609" type="curve"/>
      <point x="-3" y="609"/>
      <point x="-4" y="637"/>
      <point x="1" y="641" type="curve"/>
      <point x="110" y="651"/>
      <point x="187" y="679"/>
      <point x="190" y="679" type="curve"/>
      <point x="196" y="678"/>
      <point x="203" y="667"/>
      <point x="204" y="662" type="curve"/>
      <point x="204" y="662"/>
      <point x="194" y="618"/>
      <point x="194" y="563" type="curve" smooth="yes"/>
      <point x="194" y="405" type="line" smooth="yes"/>
      <point x="194" y="400"/>
      <point x="194" y="388"/>
      <point x="200" y="393" type="curve" smooth="yes"/>
      <point x="215" y="405"/>
      <point x="263" y="438"/>
      <point x="296" y="438" type="curve" smooth="yes"/>
      <point x="409" y="438"/>
      <point x="499" y="350"/>
      <point x="499" y="230" type="curve" smooth="yes"/>
      <point x="499" y="74"/>
      <point x="365" y="-8"/>
    </contour>
    <contour>
      <point x="247" y="366" type="curve" smooth="yes"/>
      <point x="220" y="366"/>
      <point x="206" y="355"/>
      <point x="197" y="345" type="curve" smooth="yes"/>
      <point x="194" y="342"/>
      <point x="194" y="339"/>
      <point x="194" y="336" type="curve" smooth="yes"/>
      <point x="194" y="96" type="line" smooth="yes"/>
      <point x="194" y="63"/>
      <point x="217" y="35"/>
      <point x="258" y="35" type="curve" smooth="yes"/>
      <point x="320" y="35"/>
      <point x="359" y="119"/>
      <point x="359" y="191" type="curve" smooth="yes"/>
      <point x="359" y="325"/>
      <point x="308" y="366"/>
    </contour>
  </outline>
</glyph>
<glyph name="c" format="2">
	<unicode hex="0063"/>
	<advance width="436"/>
	<outline>
		<contour>
			<point x="403" y="373" type="curve" smooth="yes"/>
			<point x="403" y="345"/>
			<point x="382" y="312"/>
			<point x="347" y="312" type="curve" smooth="yes"/>
			<point x="321" y="312"/>
			<point x="304" y="338"/>
			<point x="288" y="356" type="curve" smooth="yes"/>
			<point x="271" y="375"/>
			<point x="246" y="387"/>
			<point x="222" y="387" type="curve" smooth="yes"/>
			<point x="179" y="387"/>
			<point x="153" y="312"/>
			<point x="153" y="252" type="curve" smooth="yes"/>
			<point x="153" y="115"/>
			<point x="232" y="73"/>
			<point x="294" y="73" type="curve" smooth="yes"/>
			<point x="351" y="73"/>
			<point x="382" y="100"/>
			<point x="403" y="122" type="curve"/>
			<point x="410" y="120"/>
			<point x="415" y="110"/>
			<point x="415" y="104" type="curve" smooth="yes"/>
			<point x="415" y="97"/>
			<point x="414" y="89"/>
			<point x="412" y="86" type="curve" smooth="yes"/>
			<point x="394" y="59"/>
			<point x="328" y="-9"/>
			<point x="235" y="-9" type="curve" smooth="yes"/>
			<point x="126" y="-9"/>
			<point x="30" y="67"/>
			<point x="30" y="195" type="curve" smooth="yes"/>
			<point x="30" y="314"/>
			<point x="150" y="438"/>
			<point x="285" y="438" type="curve" smooth="yes"/>
			<point x="339" y="438"/>
			<point x="373" y="427"/>
			<point x="384" y="420" type="curve"/>
			<point x="393" y="410"/>
			<point x="403" y="398"/>
		</contour>
	</outline>
</glyph>
<glyph name="d" format="2">
	<unicode hex="0064"/>
	<advance width="534"/>
	<outline>
		<contour>
			<point x="287" y="436" type="curve" smooth="yes"/>
			<point x="308" y="436"/>
			<point x="318" y="435"/>
			<point x="326" y="434" type="curve"/>
			<point x="330" y="434"/>
			<point x="331" y="448"/>
			<point x="331" y="456" type="curve" smooth="yes"/>
			<point x="331" y="480"/>
			<point x="331" y="513"/>
			<point x="331" y="545" type="curve" smooth="yes"/>
			<point x="331" y="564"/>
			<point x="331" y="575"/>
			<point x="324" y="592" type="curve" smooth="yes"/>
			<point x="319" y="604"/>
			<point x="278" y="609"/>
			<point x="266" y="609" type="curve"/>
			<point x="262" y="609"/>
			<point x="261" y="637"/>
			<point x="266" y="641" type="curve"/>
			<point x="375" y="651"/>
			<point x="451" y="679"/>
			<point x="454" y="679" type="curve"/>
			<point x="460" y="678"/>
			<point x="468" y="667"/>
			<point x="469" y="662" type="curve"/>
			<point x="469" y="662"/>
			<point x="458" y="618"/>
			<point x="458" y="563" type="curve" smooth="yes"/>
			<point x="458" y="105" type="line" smooth="yes"/>
			<point x="458" y="90"/>
			<point x="458" y="78"/>
			<point x="467" y="68" type="curve" smooth="yes"/>
			<point x="476" y="58"/>
			<point x="502" y="59"/>
			<point x="511" y="59" type="curve"/>
			<point x="513" y="57"/>
			<point x="514" y="53"/>
			<point x="514" y="46" type="curve" smooth="yes"/>
			<point x="514" y="40"/>
			<point x="512" y="33"/>
			<point x="508" y="27" type="curve"/>
			<point x="450" y="21"/>
			<point x="353" y="-7"/>
			<point x="340" y="-7" type="curve" smooth="yes"/>
			<point x="336" y="-7"/>
			<point x="331" y="2"/>
			<point x="331" y="17" type="curve" smooth="yes"/>
			<point x="331" y="32" type="line" smooth="yes"/>
			<point x="331" y="34"/>
			<point x="331" y="39"/>
			<point x="328" y="37" type="curve" smooth="yes"/>
			<point x="312" y="26"/>
			<point x="260" y="-8"/>
			<point x="208" y="-8" type="curve" smooth="yes"/>
			<point x="114" y="-8"/>
			<point x="31" y="80"/>
			<point x="31" y="195" type="curve" smooth="yes"/>
			<point x="31" y="361"/>
			<point x="198" y="436"/>
		</contour>
		<contour>
			<point x="255" y="386" type="curve" smooth="yes"/>
			<point x="193" y="386"/>
			<point x="170" y="315"/>
			<point x="170" y="237" type="curve" smooth="yes"/>
			<point x="170" y="130"/>
			<point x="208" y="55"/>
			<point x="269" y="55" type="curve" smooth="yes"/>
			<point x="296" y="55"/>
			<point x="331" y="78"/>
			<point x="331" y="91" type="curve" smooth="yes"/>
			<point x="331" y="342" type="line" smooth="yes"/>
			<point x="331" y="360"/>
			<point x="296" y="386"/>
		</contour>
	</outline>
</glyph>
<glyph name="e" format="2">
  <advance width="449"/>
  <unicode hex="0065"/>
  <outline>
    <contour>
      <point x="159" y="275" type="curve"/>
      <point x="168" y="274"/>
      <point x="262" y="280"/>
      <point x="285" y="283" type="curve" smooth="yes"/>
      <point x="297" y="284"/>
      <point x="298" y="293"/>
      <point x="298" y="299" type="curve" smooth="yes"/>
      <point x="298" y="344"/>
      <point x="282" y="396"/>
      <point x="238" y="396" type="curve" smooth="yes"/>
      <point x="180" y="396"/>
      <point x="159" y="308"/>
    </contour>
    <contour>
      <point x="158" y="236" type="curve"/>
      <point x="158" y="99"/>
      <point x="251" y="73"/>
      <point x="295" y="73" type="curve" smooth="yes"/>
      <point x="352" y="73"/>
      <point x="383" y="100"/>
      <point x="404" y="122" type="curve"/>
      <point x="411" y="120"/>
      <point x="416" y="110"/>
      <point x="416" y="104" type="curve" smooth="yes"/>
      <point x="416" y="97"/>
      <point x="415" y="89"/>
      <point x="413" y="86" type="curve" smooth="yes"/>
      <point x="395" y="59"/>
      <point x="329" y="-9"/>
      <point x="236" y="-9" type="curve" smooth="yes"/>
      <point x="127" y="-9"/>
      <point x="31" y="67"/>
      <point x="31" y="195" type="curve" smooth="yes"/>
      <point x="31" y="318"/>
      <point x="136" y="437"/>
      <point x="248" y="437" type="curve" smooth="yes"/>
      <point x="376" y="437"/>
      <point x="419" y="346"/>
      <point x="419" y="289" type="curve" smooth="yes"/>
      <point x="419" y="268"/>
      <point x="408" y="249"/>
      <point x="393" y="248" type="curve" smooth="yes"/>
      <point x="327" y="242"/>
      <point x="230" y="238"/>
    </contour>
  </outline>
</glyph>
<glyph name="f" format="2">
  <advance width="346"/>
  <unicode hex="0066"/>
  <outline>
    <contour>
      <point x="299" y="682" type="curve" smooth="yes"/>
      <point x="330" y="682"/>
      <point x="347" y="676"/>
      <point x="361" y="672" type="curve"/>
      <point x="378" y="663"/>
      <point x="399" y="650"/>
      <point x="399" y="627" type="curve" smooth="yes"/>
      <point x="399" y="595"/>
      <point x="382" y="560"/>
      <point x="350" y="560" type="curve" smooth="yes"/>
      <point x="321" y="560"/>
      <point x="304" y="582"/>
      <point x="285" y="597" type="curve" smooth="yes"/>
      <point x="274" y="606"/>
      <point x="262" y="611"/>
      <point x="246" y="611" type="curve" smooth="yes"/>
      <point x="230" y="611"/>
      <point x="217" y="577"/>
      <point x="217" y="531" type="curve" smooth="yes"/>
      <point x="217" y="486"/>
      <point x="219" y="433"/>
      <point x="221" y="403" type="curve"/>
      <point x="228" y="403"/>
      <point x="303" y="403"/>
      <point x="335" y="403" type="curve" smooth="yes"/>
      <point x="339" y="403"/>
      <point x="341" y="395"/>
      <point x="341" y="390" type="curve" smooth="yes"/>
      <point x="341" y="381"/>
      <point x="328" y="364"/>
      <point x="318" y="357" type="curve"/>
      <point x="289" y="357"/>
      <point x="256" y="357"/>
      <point x="224" y="357" type="curve"/>
      <point x="224" y="142" type="line" smooth="yes"/>
      <point x="224" y="100"/>
      <point x="223" y="70"/>
      <point x="231" y="50" type="curve" smooth="yes"/>
      <point x="236" y="37"/>
      <point x="281" y="33"/>
      <point x="294" y="32" type="curve"/>
      <point x="299" y="25"/>
      <point x="298" y="2"/>
      <point x="294" y="-4" type="curve"/>
      <point x="256" y="0"/>
      <point x="201" y="3"/>
      <point x="160" y="3" type="curve" smooth="yes"/>
      <point x="119" y="3"/>
      <point x="64" y="0"/>
      <point x="26" y="-4" type="curve"/>
      <point x="22" y="2"/>
      <point x="21" y="25"/>
      <point x="26" y="32" type="curve"/>
      <point x="39" y="33"/>
      <point x="84" y="37"/>
      <point x="89" y="50" type="curve" smooth="yes"/>
      <point x="97" y="70"/>
      <point x="97" y="100"/>
      <point x="97" y="142" type="curve" smooth="yes"/>
      <point x="97" y="142"/>
      <point x="97" y="270"/>
      <point x="97" y="357" type="curve"/>
      <point x="71" y="357"/>
      <point x="52" y="357"/>
      <point x="27" y="357" type="curve"/>
      <point x="22" y="359"/>
      <point x="22" y="366"/>
      <point x="22" y="370" type="curve"/>
      <point x="32" y="384"/>
      <point x="42" y="393"/>
      <point x="54" y="403" type="curve"/>
      <point x="67" y="403"/>
      <point x="87" y="403"/>
      <point x="97" y="403" type="curve"/>
      <point x="97" y="433" type="line" smooth="yes"/>
      <point x="97" y="567"/>
      <point x="226" y="682"/>
    </contour>
  </outline>
</glyph>
<glyph name="g" format="2">
  <advance width="466"/>
  <unicode hex="0067"/>
  <outline>
    <contour>
      <point x="210" y="396" type="curve" smooth="yes"/>
      <point x="159" y="396"/>
      <point x="156" y="344"/>
      <point x="156" y="300" type="curve" smooth="yes"/>
      <point x="156" y="245"/>
      <point x="175" y="181"/>
      <point x="226" y="181" type="curve" smooth="yes"/>
      <point x="277" y="181"/>
      <point x="275" y="235"/>
      <point x="275" y="278" type="curve" smooth="yes"/>
      <point x="275" y="332"/>
      <point x="261" y="396"/>
    </contour>
    <contour>
      <point x="254" y="-14" type="curve" smooth="yes"/>
      <point x="218" y="-14"/>
      <point x="165" y="-14"/>
      <point x="146" y="-14" type="curve"/>
      <point x="139" y="-22"/>
      <point x="131" y="-35"/>
      <point x="131" y="-57" type="curve" smooth="yes"/>
      <point x="131" y="-121"/>
      <point x="180" y="-158"/>
      <point x="248" y="-158" type="curve" smooth="yes"/>
      <point x="342" y="-158"/>
      <point x="363" y="-109"/>
      <point x="363" y="-77" type="curve" smooth="yes"/>
      <point x="363" y="-36"/>
      <point x="316" y="-14"/>
    </contour>
    <contour>
      <point x="318" y="94" type="curve" smooth="yes"/>
      <point x="408" y="89"/>
      <point x="448" y="19"/>
      <point x="448" y="-14" type="curve" smooth="yes"/>
      <point x="448" y="-132"/>
      <point x="320" y="-213"/>
      <point x="187" y="-213" type="curve" smooth="yes"/>
      <point x="91" y="-213"/>
      <point x="23" y="-167"/>
      <point x="23" y="-101" type="curve" smooth="yes"/>
      <point x="23" y="-62"/>
      <point x="70" y="-24"/>
      <point x="106" y="-6" type="curve"/>
      <point x="73" y="3"/>
      <point x="48" y="49"/>
      <point x="48" y="90" type="curve" smooth="yes"/>
      <point x="48" y="108"/>
      <point x="92" y="140"/>
      <point x="129" y="161" type="curve"/>
      <point x="73" y="183"/>
      <point x="38" y="231"/>
      <point x="38" y="287" type="curve" smooth="yes"/>
      <point x="38" y="368"/>
      <point x="115" y="433"/>
      <point x="215" y="433" type="curve" smooth="yes"/>
      <point x="259" y="433"/>
      <point x="292" y="427"/>
      <point x="319" y="408" type="curve" smooth="yes"/>
      <point x="322" y="405"/>
      <point x="323" y="405"/>
      <point x="325" y="405" type="curve" smooth="yes"/>
      <point x="447" y="417" type="line"/>
      <point x="450" y="416"/>
      <point x="458" y="412"/>
      <point x="458" y="406" type="curve" smooth="yes"/>
      <point x="458" y="399"/>
      <point x="444" y="364"/>
      <point x="434" y="357" type="curve"/>
      <point x="413" y="359"/>
      <point x="404" y="360"/>
      <point x="379" y="363" type="curve" smooth="yes"/>
      <point x="377" y="363"/>
      <point x="373" y="362"/>
      <point x="373" y="360" type="curve"/>
      <point x="389" y="339"/>
      <point x="394" y="319"/>
      <point x="394" y="292" type="curve" smooth="yes"/>
      <point x="394" y="211"/>
      <point x="318" y="145"/>
      <point x="217" y="145" type="curve" smooth="yes"/>
      <point x="199" y="145"/>
      <point x="182" y="146"/>
      <point x="166" y="149" type="curve"/>
      <point x="155" y="140"/>
      <point x="143" y="129"/>
      <point x="143" y="119" type="curve" smooth="yes"/>
      <point x="143" y="104"/>
      <point x="166" y="95"/>
      <point x="189" y="95" type="curve" smooth="yes"/>
      <point x="226" y="95"/>
      <point x="284" y="96"/>
    </contour>
  </outline>
</glyph>
<glyph name="h" format="2">
	<unicode hex="0068"/>
	<advance width="569"/>
	<outline>
		<contour>
			<point x="359" y="436" type="curve" smooth="yes"/>
			<point x="470" y="436"/>
			<point x="492" y="359"/>
			<point x="492" y="205" type="curve" smooth="yes"/>
			<point x="492" y="142" type="line" smooth="yes"/>
			<point x="492" y="100"/>
			<point x="491" y="70"/>
			<point x="499" y="50" type="curve" smooth="yes"/>
			<point x="504" y="37"/>
			<point x="549" y="33"/>
			<point x="562" y="32" type="curve"/>
			<point x="567" y="25"/>
			<point x="566" y="2"/>
			<point x="562" y="-4" type="curve"/>
			<point x="524" y="0"/>
			<point x="469" y="3"/>
			<point x="428" y="3" type="curve" smooth="yes"/>
			<point x="387" y="3"/>
			<point x="344" y="0"/>
			<point x="306" y="-4" type="curve"/>
			<point x="302" y="2"/>
			<point x="301" y="25"/>
			<point x="306" y="32" type="curve"/>
			<point x="319" y="33"/>
			<point x="352" y="37"/>
			<point x="357" y="50" type="curve" smooth="yes"/>
			<point x="365" y="70"/>
			<point x="365" y="100"/>
			<point x="365" y="142" type="curve" smooth="yes"/>
			<point x="365" y="219" type="line" smooth="yes"/>
			<point x="365" y="289"/>
			<point x="351" y="356"/>
			<point x="299" y="356" type="curve" smooth="yes"/>
			<point x="260" y="356"/>
			<point x="213" y="322"/>
			<point x="213" y="302" type="curve" smooth="yes"/>
			<point x="213" y="142" type="line" smooth="yes"/>
			<point x="213" y="106"/>
			<point x="213" y="70"/>
			<point x="221" y="50" type="curve" smooth="yes"/>
			<point x="226" y="37"/>
			<point x="264" y="33"/>
			<point x="277" y="32" type="curve"/>
			<point x="282" y="25"/>
			<point x="281" y="2"/>
			<point x="277" y="-4" type="curve"/>
			<point x="239" y="0"/>
			<point x="191" y="3"/>
			<point x="150" y="3" type="curve" smooth="yes"/>
			<point x="109" y="3"/>
			<point x="54" y="0"/>
			<point x="16" y="-4" type="curve"/>
			<point x="12" y="2"/>
			<point x="11" y="25"/>
			<point x="16" y="32" type="curve"/>
			<point x="29" y="33"/>
			<point x="74" y="37"/>
			<point x="79" y="50" type="curve" smooth="yes"/>
			<point x="87" y="70"/>
			<point x="86" y="100"/>
			<point x="86" y="142" type="curve" smooth="yes"/>
			<point x="86" y="545" type="line" smooth="yes"/>
			<point x="86" y="562"/>
			<point x="86" y="575"/>
			<point x="79" y="592" type="curve" smooth="yes"/>
			<point x="74" y="604"/>
			<point x="33" y="609"/>
			<point x="21" y="609" type="curve"/>
			<point x="17" y="609"/>
			<point x="16" y="637"/>
			<point x="21" y="641" type="curve"/>
			<point x="130" y="651"/>
			<point x="206" y="679"/>
			<point x="209" y="679" type="curve"/>
			<point x="215" y="678"/>
			<point x="223" y="667"/>
			<point x="224" y="662" type="curve"/>
			<point x="224" y="662"/>
			<point x="213" y="601"/>
			<point x="213" y="562" type="curve" smooth="yes"/>
			<point x="213" y="363" type="line" smooth="yes"/>
			<point x="213" y="360"/>
			<point x="213" y="358"/>
			<point x="214" y="357" type="curve"/>
			<point x="216" y="357"/>
			<point x="219" y="360"/>
			<point x="221" y="362" type="curve" smooth="yes"/>
			<point x="248" y="393"/>
			<point x="314" y="436"/>
		</contour>
	</outline>
</glyph>
<glyph name="i" format="2">
	<unicode hex="0069"/>
	<advance width="307"/>
	<outline>
		<contour>
			<point x="226" y="302" type="curve" smooth="yes"/>
			<point x="226" y="142" type="line" smooth="yes"/>
			<point x="226" y="106"/>
			<point x="226" y="70"/>
			<point x="234" y="50" type="curve" smooth="yes"/>
			<point x="239" y="37"/>
			<point x="276" y="33"/>
			<point x="289" y="32" type="curve"/>
			<point x="294" y="25"/>
			<point x="293" y="2"/>
			<point x="289" y="-4" type="curve"/>
			<point x="251" y="0"/>
			<point x="203" y="3"/>
			<point x="162" y="3" type="curve" smooth="yes"/>
			<point x="121" y="3"/>
			<point x="67" y="0"/>
			<point x="29" y="-4" type="curve"/>
			<point x="25" y="2"/>
			<point x="24" y="25"/>
			<point x="29" y="32" type="curve"/>
			<point x="42" y="33"/>
			<point x="86" y="37"/>
			<point x="91" y="50" type="curve" smooth="yes"/>
			<point x="99" y="70"/>
			<point x="99" y="100"/>
			<point x="99" y="142" type="curve" smooth="yes"/>
			<point x="99" y="254" type="line" smooth="yes"/>
			<point x="99" y="264"/>
			<point x="98" y="319"/>
			<point x="90" y="334" type="curve" smooth="yes"/>
			<point x="82" y="349"/>
			<point x="36" y="354"/>
			<point x="29" y="354" type="curve"/>
			<point x="26" y="356"/>
			<point x="25" y="384"/>
			<point x="30" y="384" type="curve"/>
			<point x="104" y="390"/>
			<point x="183" y="417"/>
			<point x="220" y="436" type="curve"/>
			<point x="227" y="434"/>
			<point x="237" y="422"/>
			<point x="237" y="419" type="curve"/>
			<point x="234" y="411"/>
			<point x="228" y="377"/>
			<point x="227" y="363" type="curve" smooth="yes"/>
			<point x="226" y="342"/>
			<point x="226" y="308"/>
		</contour>
		<contour>
			<point x="82" y="602" type="curve" smooth="yes"/>
			<point x="82" y="641"/>
			<point x="114" y="672"/>
			<point x="153" y="672" type="curve" smooth="yes"/>
			<point x="192" y="672"/>
			<point x="224" y="641"/>
			<point x="224" y="602" type="curve" smooth="yes"/>
			<point x="224" y="563"/>
			<point x="192" y="531"/>
			<point x="153" y="531" type="curve" smooth="yes"/>
			<point x="114" y="531"/>
			<point x="82" y="563"/>
		</contour>
	</outline>
</glyph>
<glyph name="j" format="2">
  <advance width="279"/>
  <unicode hex="006A"/>
  <outline>
    <contour>
      <point x="87" y="62" type="curve" smooth="yes"/>
      <point x="87" y="254" type="line" smooth="yes"/>
      <point x="87" y="264"/>
      <point x="86" y="319"/>
      <point x="78" y="334" type="curve" smooth="yes"/>
      <point x="70" y="349"/>
      <point x="24" y="354"/>
      <point x="17" y="354" type="curve"/>
      <point x="14" y="356"/>
      <point x="13" y="384"/>
      <point x="18" y="384" type="curve"/>
      <point x="92" y="390"/>
      <point x="171" y="417"/>
      <point x="208" y="436" type="curve"/>
      <point x="215" y="434"/>
      <point x="225" y="422"/>
      <point x="225" y="419" type="curve"/>
      <point x="222" y="411"/>
      <point x="216" y="377"/>
      <point x="215" y="363" type="curve" smooth="yes"/>
      <point x="214" y="342"/>
      <point x="214" y="308"/>
      <point x="214" y="302" type="curve" smooth="yes"/>
      <point x="214" y="117" type="line" smooth="yes"/>
      <point x="214" y="35"/>
      <point x="203" y="-47"/>
      <point x="167" y="-100" type="curve" smooth="yes"/>
      <point x="121" y="-166"/>
      <point x="35" y="-213"/>
      <point x="2" y="-213" type="curve"/>
      <point x="-5" y="-209"/>
      <point x="-12" y="-202"/>
      <point x="-12" y="-196" type="curve" smooth="yes"/>
      <point x="-12" y="-194"/>
      <point x="-12" y="-190"/>
      <point x="-11" y="-189" type="curve" smooth="yes"/>
      <point x="-7" y="-187"/>
      <point x="87" y="-139"/>
    </contour>
    <contour>
      <point x="70" y="602" type="curve" smooth="yes"/>
      <point x="70" y="642"/>
      <point x="103" y="674"/>
      <point x="143" y="674" type="curve" smooth="yes"/>
      <point x="183" y="674"/>
      <point x="215" y="642"/>
      <point x="215" y="602" type="curve" smooth="yes"/>
      <point x="215" y="562"/>
      <point x="183" y="529"/>
      <point x="143" y="529" type="curve" smooth="yes"/>
      <point x="103" y="529"/>
      <point x="70" y="562"/>
    </contour>
  </outline>
</glyph>
<glyph name="k" format="2">
  <advance width="576"/>
  <unicode hex="006B"/>
  <outline>
    <contour>
      <point x="213" y="142" type="line" smooth="yes"/>
      <point x="213" y="100"/>
      <point x="213" y="70"/>
      <point x="221" y="50" type="curve" smooth="yes"/>
      <point x="226" y="37"/>
      <point x="271" y="33"/>
      <point x="284" y="32" type="curve"/>
      <point x="289" y="25"/>
      <point x="288" y="2"/>
      <point x="284" y="-4" type="curve"/>
      <point x="246" y="0"/>
      <point x="191" y="3"/>
      <point x="150" y="3" type="curve" smooth="yes"/>
      <point x="109" y="3"/>
      <point x="54" y="0"/>
      <point x="16" y="-4" type="curve"/>
      <point x="12" y="2"/>
      <point x="11" y="25"/>
      <point x="16" y="32" type="curve"/>
      <point x="29" y="33"/>
      <point x="74" y="37"/>
      <point x="79" y="50" type="curve" smooth="yes"/>
      <point x="87" y="70"/>
      <point x="86" y="100"/>
      <point x="86" y="142" type="curve" smooth="yes"/>
      <point x="86" y="545" type="line" smooth="yes"/>
      <point x="86" y="562"/>
      <point x="86" y="575"/>
      <point x="79" y="592" type="curve" smooth="yes"/>
      <point x="74" y="604"/>
      <point x="33" y="609"/>
      <point x="21" y="609" type="curve"/>
      <point x="17" y="609"/>
      <point x="16" y="637"/>
      <point x="21" y="641" type="curve"/>
      <point x="130" y="651"/>
      <point x="206" y="679"/>
      <point x="209" y="679" type="curve"/>
      <point x="215" y="678"/>
      <point x="223" y="667"/>
      <point x="224" y="662" type="curve"/>
      <point x="224" y="662"/>
      <point x="213" y="601"/>
      <point x="213" y="562" type="curve" smooth="yes"/>
      <point x="212" y="230" type="line"/>
      <point x="229" y="236"/>
      <point x="252" y="251"/>
      <point x="286" y="280" type="curve" smooth="yes"/>
      <point x="354" y="339"/>
      <point x="371" y="359"/>
      <point x="371" y="374" type="curve" smooth="yes"/>
      <point x="371" y="386"/>
      <point x="327" y="395"/>
      <point x="309" y="396" type="curve"/>
      <point x="306" y="405"/>
      <point x="306" y="427"/>
      <point x="311" y="429" type="curve"/>
      <point x="311" y="429"/>
      <point x="398" y="425"/>
      <point x="439" y="425" type="curve" smooth="yes"/>
      <point x="474" y="425"/>
      <point x="503" y="428"/>
      <point x="547" y="430" type="curve"/>
      <point x="553" y="420"/>
      <point x="550" y="399"/>
      <point x="544" y="396" type="curve"/>
      <point x="514" y="393"/>
      <point x="473" y="383"/>
      <point x="448" y="365" type="curve" smooth="yes"/>
      <point x="427" y="350"/>
      <point x="379" y="303"/>
      <point x="319" y="250" type="curve"/>
      <point x="388" y="169"/>
      <point x="402" y="158"/>
      <point x="457" y="96" type="curve" smooth="yes"/>
      <point x="511" y="36"/>
      <point x="543" y="35"/>
      <point x="574" y="35" type="curve"/>
      <point x="580" y="24"/>
      <point x="575" y="8"/>
      <point x="574" y="6" type="curve"/>
      <point x="558" y="0"/>
      <point x="512" y="-6"/>
      <point x="475" y="-6" type="curve" smooth="yes"/>
      <point x="418" y="-6"/>
      <point x="370" y="18"/>
      <point x="341" y="52" type="curve" smooth="yes"/>
      <point x="341" y="52"/>
      <point x="274" y="124"/>
      <point x="226" y="184" type="curve" smooth="yes"/>
      <point x="222" y="190"/>
      <point x="213" y="196"/>
      <point x="213" y="196" type="curve"/>
    </contour>
  </outline>
</glyph>
<glyph name="l" format="2">
  <advance width="298"/>
  <unicode hex="006C"/>
  <outline>
    <contour>
      <point x="86" y="545" type="line" smooth="yes"/>
      <point x="86" y="562"/>
      <point x="86" y="575"/>
      <point x="79" y="592" type="curve" smooth="yes"/>
      <point x="74" y="604"/>
      <point x="33" y="609"/>
      <point x="21" y="609" type="curve"/>
      <point x="17" y="609"/>
      <point x="16" y="637"/>
      <point x="21" y="641" type="curve"/>
      <point x="130" y="651"/>
      <point x="206" y="679"/>
      <point x="209" y="679" type="curve"/>
      <point x="215" y="678"/>
      <point x="223" y="667"/>
      <point x="224" y="662" type="curve"/>
      <point x="224" y="662"/>
      <point x="213" y="601"/>
      <point x="213" y="562" type="curve" smooth="yes"/>
      <point x="213" y="142" type="line" smooth="yes"/>
      <point x="213" y="100"/>
      <point x="213" y="70"/>
      <point x="221" y="50" type="curve" smooth="yes"/>
      <point x="226" y="37"/>
      <point x="271" y="33"/>
      <point x="284" y="32" type="curve"/>
      <point x="289" y="25"/>
      <point x="288" y="2"/>
      <point x="284" y="-4" type="curve"/>
      <point x="246" y="0"/>
      <point x="191" y="3"/>
      <point x="150" y="3" type="curve" smooth="yes"/>
      <point x="109" y="3"/>
      <point x="54" y="0"/>
      <point x="16" y="-4" type="curve"/>
      <point x="12" y="2"/>
      <point x="11" y="25"/>
      <point x="16" y="32" type="curve"/>
      <point x="29" y="33"/>
      <point x="74" y="37"/>
      <point x="79" y="50" type="curve" smooth="yes"/>
      <point x="87" y="70"/>
      <point x="86" y="100"/>
      <point x="86" y="142" type="curve" smooth="yes"/>
    </contour>
  </outline>
</glyph>
<glyph name="m" format="2">
	<unicode hex="006D"/>
	<advance width="862"/>
	<outline>
		<contour>
			<point x="371" y="436" type="curve" smooth="yes"/>
			<point x="433" y="436"/>
			<point x="469" y="414"/>
			<point x="492" y="352" type="curve"/>
			<point x="535" y="394"/>
			<point x="607" y="436"/>
			<point x="652" y="436" type="curve" smooth="yes"/>
			<point x="763" y="436"/>
			<point x="785" y="359"/>
			<point x="785" y="205" type="curve" smooth="yes"/>
			<point x="785" y="142" type="line" smooth="yes"/>
			<point x="785" y="100"/>
			<point x="784" y="70"/>
			<point x="792" y="50" type="curve" smooth="yes"/>
			<point x="797" y="37"/>
			<point x="842" y="33"/>
			<point x="855" y="32" type="curve"/>
			<point x="860" y="25"/>
			<point x="859" y="2"/>
			<point x="855" y="-4" type="curve"/>
			<point x="817" y="0"/>
			<point x="762" y="3"/>
			<point x="721" y="3" type="curve" smooth="yes"/>
			<point x="680" y="3"/>
			<point x="637" y="0"/>
			<point x="599" y="-4" type="curve"/>
			<point x="595" y="2"/>
			<point x="594" y="25"/>
			<point x="599" y="32" type="curve"/>
			<point x="612" y="33"/>
			<point x="645" y="37"/>
			<point x="650" y="50" type="curve" smooth="yes"/>
			<point x="658" y="70"/>
			<point x="658" y="100"/>
			<point x="658" y="142" type="curve" smooth="yes"/>
			<point x="658" y="219" type="line" smooth="yes"/>
			<point x="658" y="289"/>
			<point x="644" y="356"/>
			<point x="592" y="356" type="curve" smooth="yes"/>
			<point x="553" y="356"/>
			<point x="500" y="323"/>
			<point x="500" y="303" type="curve" smooth="yes"/>
			<point x="500" y="301"/>
			<point x="500" y="299"/>
			<point x="500" y="297" type="curve" smooth="yes"/>
			<point x="502" y="270"/>
			<point x="504" y="239"/>
			<point x="504" y="205" type="curve" smooth="yes"/>
			<point x="504" y="142" type="line" smooth="yes"/>
			<point x="504" y="100"/>
			<point x="504" y="70"/>
			<point x="512" y="50" type="curve" smooth="yes"/>
			<point x="517" y="37"/>
			<point x="560" y="33"/>
			<point x="573" y="32" type="curve"/>
			<point x="578" y="25"/>
			<point x="577" y="2"/>
			<point x="573" y="-4" type="curve"/>
			<point x="535" y="0"/>
			<point x="482" y="3"/>
			<point x="441" y="3" type="curve" smooth="yes"/>
			<point x="400" y="3"/>
			<point x="355" y="0"/>
			<point x="317" y="-4" type="curve"/>
			<point x="313" y="2"/>
			<point x="312" y="25"/>
			<point x="317" y="32" type="curve"/>
			<point x="330" y="33"/>
			<point x="365" y="37"/>
			<point x="370" y="50" type="curve" smooth="yes"/>
			<point x="378" y="70"/>
			<point x="377" y="100"/>
			<point x="377" y="142" type="curve" smooth="yes"/>
			<point x="377" y="219" type="line" smooth="yes"/>
			<point x="377" y="289"/>
			<point x="364" y="356"/>
			<point x="312" y="356" type="curve" smooth="yes"/>
			<point x="273" y="356"/>
			<point x="226" y="322"/>
			<point x="226" y="302" type="curve" smooth="yes"/>
			<point x="226" y="142" type="line" smooth="yes"/>
			<point x="226" y="106"/>
			<point x="226" y="70"/>
			<point x="234" y="50" type="curve" smooth="yes"/>
			<point x="239" y="37"/>
			<point x="276" y="33"/>
			<point x="289" y="32" type="curve"/>
			<point x="294" y="25"/>
			<point x="293" y="2"/>
			<point x="289" y="-4" type="curve"/>
			<point x="251" y="0"/>
			<point x="203" y="3"/>
			<point x="162" y="3" type="curve" smooth="yes"/>
			<point x="121" y="3"/>
			<point x="67" y="0"/>
			<point x="29" y="-4" type="curve"/>
			<point x="25" y="2"/>
			<point x="24" y="25"/>
			<point x="29" y="32" type="curve"/>
			<point x="42" y="33"/>
			<point x="86" y="37"/>
			<point x="91" y="50" type="curve" smooth="yes"/>
			<point x="99" y="70"/>
			<point x="99" y="100"/>
			<point x="99" y="142" type="curve" smooth="yes"/>
			<point x="99" y="254" type="line" smooth="yes"/>
			<point x="99" y="264"/>
			<point x="98" y="319"/>
			<point x="90" y="334" type="curve" smooth="yes"/>
			<point x="82" y="349"/>
			<point x="36" y="354"/>
			<point x="29" y="354" type="curve"/>
			<point x="26" y="356"/>
			<point x="25" y="384"/>
			<point x="30" y="384" type="curve"/>
			<point x="104" y="390"/>
			<point x="183" y="417"/>
			<point x="220" y="436" type="curve"/>
			<point x="227" y="434"/>
			<point x="237" y="422"/>
			<point x="237" y="419" type="curve"/>
			<point x="234" y="411"/>
			<point x="226" y="364"/>
			<point x="227" y="363" type="curve" smooth="yes"/>
			<point x="227" y="360"/>
			<point x="227" y="358"/>
			<point x="228" y="357" type="curve"/>
			<point x="230" y="357"/>
			<point x="233" y="360"/>
			<point x="235" y="362" type="curve" smooth="yes"/>
			<point x="262" y="393"/>
			<point x="326" y="436"/>
		</contour>
	</outline>
</glyph>
<glyph name="n" format="2">
  <advance width="582"/>
  <unicode hex="006E"/>
  <outline>
    <contour>
      <point x="371" y="436" type="curve" smooth="yes"/>
      <point x="482" y="436"/>
      <point x="504" y="359"/>
      <point x="504" y="205" type="curve" smooth="yes"/>
      <point x="504" y="142" type="line" smooth="yes"/>
      <point x="504" y="100"/>
      <point x="504" y="70"/>
      <point x="512" y="50" type="curve" smooth="yes"/>
      <point x="517" y="37"/>
      <point x="562" y="33"/>
      <point x="575" y="32" type="curve"/>
      <point x="580" y="25"/>
      <point x="579" y="2"/>
      <point x="575" y="-4" type="curve"/>
      <point x="537" y="0"/>
      <point x="482" y="3"/>
      <point x="441" y="3" type="curve" smooth="yes"/>
      <point x="400" y="3"/>
      <point x="357" y="0"/>
      <point x="319" y="-4" type="curve"/>
      <point x="315" y="2"/>
      <point x="314" y="25"/>
      <point x="319" y="32" type="curve"/>
      <point x="332" y="33"/>
      <point x="365" y="37"/>
      <point x="370" y="50" type="curve" smooth="yes"/>
      <point x="378" y="70"/>
      <point x="377" y="100"/>
      <point x="377" y="142" type="curve" smooth="yes"/>
      <point x="377" y="219" type="line" smooth="yes"/>
      <point x="377" y="289"/>
      <point x="364" y="356"/>
      <point x="312" y="356" type="curve" smooth="yes"/>
      <point x="273" y="356"/>
      <point x="226" y="322"/>
      <point x="226" y="302" type="curve" smooth="yes"/>
      <point x="226" y="142" type="line" smooth="yes"/>
      <point x="226" y="106"/>
      <point x="226" y="70"/>
      <point x="234" y="50" type="curve" smooth="yes"/>
      <point x="239" y="37"/>
      <point x="276" y="33"/>
      <point x="289" y="32" type="curve"/>
      <point x="294" y="25"/>
      <point x="293" y="2"/>
      <point x="289" y="-4" type="curve"/>
      <point x="251" y="0"/>
      <point x="203" y="3"/>
      <point x="162" y="3" type="curve" smooth="yes"/>
      <point x="121" y="3"/>
      <point x="67" y="0"/>
      <point x="29" y="-4" type="curve"/>
      <point x="25" y="2"/>
      <point x="24" y="25"/>
      <point x="29" y="32" type="curve"/>
      <point x="42" y="33"/>
      <point x="86" y="37"/>
      <point x="91" y="50" type="curve" smooth="yes"/>
      <point x="99" y="70"/>
      <point x="99" y="100"/>
      <point x="99" y="142" type="curve" smooth="yes"/>
      <point x="99" y="254" type="line" smooth="yes"/>
      <point x="99" y="264"/>
      <point x="98" y="319"/>
      <point x="90" y="334" type="curve" smooth="yes"/>
      <point x="82" y="349"/>
      <point x="36" y="354"/>
      <point x="29" y="354" type="curve"/>
      <point x="26" y="356"/>
      <point x="25" y="384"/>
      <point x="30" y="384" type="curve"/>
      <point x="104" y="390"/>
      <point x="183" y="417"/>
      <point x="220" y="436" type="curve"/>
      <point x="226" y="436"/>
      <point x="237" y="424"/>
      <point x="237" y="419" type="curve"/>
      <point x="235" y="411"/>
      <point x="227" y="364"/>
      <point x="227" y="363" type="curve" smooth="yes"/>
      <point x="227" y="360"/>
      <point x="227" y="358"/>
      <point x="228" y="357" type="curve"/>
      <point x="230" y="357"/>
      <point x="233" y="360"/>
      <point x="235" y="362" type="curve" smooth="yes"/>
      <point x="262" y="393"/>
      <point x="326" y="436"/>
    </contour>
  </outline>
</glyph>
<glyph name="o" format="2">
	<unicode hex="006F"/>
	<advance width="519"/>
	<outline>
		<contour>
			<point x="248" y="396" type="curve" smooth="yes"/>
			<point x="177" y="396"/>
			<point x="170" y="302"/>
			<point x="170" y="231" type="curve" smooth="yes"/>
			<point x="170" y="145"/>
			<point x="200" y="34"/>
			<point x="271" y="34" type="curve" smooth="yes"/>
			<point x="342" y="34"/>
			<point x="350" y="127"/>
			<point x="350" y="197" type="curve" smooth="yes"/>
			<point x="350" y="284"/>
			<point x="319" y="396"/>
		</contour>
		<contour>
			<point x="259" y="437" type="curve" smooth="yes"/>
			<point x="394" y="437"/>
			<point x="488" y="344"/>
			<point x="488" y="220" type="curve" smooth="yes"/>
			<point x="488" y="97"/>
			<point x="390" y="-7"/>
			<point x="261" y="-7" type="curve" smooth="yes"/>
			<point x="125" y="-7"/>
			<point x="31" y="89"/>
			<point x="31" y="212" type="curve" smooth="yes"/>
			<point x="31" y="335"/>
			<point x="131" y="437"/>
		</contour>
	</outline>
</glyph>
<glyph name="p" format="2">
  <advance width="540"/>
  <unicode hex="0070"/>
  <outline>
    <contour>
      <point x="318" y="438" type="curve" smooth="yes"/>
      <point x="436" y="438"/>
      <point x="509" y="337"/>
      <point x="509" y="229" type="curve" smooth="yes"/>
      <point x="509" y="80"/>
      <point x="377" y="-8"/>
      <point x="270" y="-8" type="curve" smooth="yes"/>
      <point x="243" y="-8"/>
      <point x="217" y="1"/>
      <point x="213" y="1" type="curve"/>
      <point x="210" y="1"/>
      <point x="210" y="-3"/>
      <point x="210" y="-15" type="curve" smooth="yes"/>
      <point x="210" y="-67" type="line" smooth="yes"/>
      <point x="210" y="-109"/>
      <point x="210" y="-139"/>
      <point x="218" y="-159" type="curve" smooth="yes"/>
      <point x="223" y="-172"/>
      <point x="268" y="-176"/>
      <point x="281" y="-177" type="curve"/>
      <point x="286" y="-184"/>
      <point x="285" y="-207"/>
      <point x="281" y="-213" type="curve"/>
      <point x="243" y="-209"/>
      <point x="188" y="-206"/>
      <point x="147" y="-206" type="curve" smooth="yes"/>
      <point x="106" y="-206"/>
      <point x="51" y="-209"/>
      <point x="13" y="-213" type="curve"/>
      <point x="9" y="-207"/>
      <point x="8" y="-184"/>
      <point x="13" y="-177" type="curve"/>
      <point x="26" y="-176"/>
      <point x="71" y="-172"/>
      <point x="76" y="-159" type="curve" smooth="yes"/>
      <point x="84" y="-139"/>
      <point x="83" y="-109"/>
      <point x="83" y="-67" type="curve" smooth="yes"/>
      <point x="83" y="254" type="line" smooth="yes"/>
      <point x="83" y="264"/>
      <point x="83" y="319"/>
      <point x="75" y="334" type="curve" smooth="yes"/>
      <point x="67" y="349"/>
      <point x="20" y="354"/>
      <point x="13" y="354" type="curve"/>
      <point x="10" y="356"/>
      <point x="9" y="384"/>
      <point x="14" y="384" type="curve"/>
      <point x="88" y="390"/>
      <point x="167" y="417"/>
      <point x="204" y="436" type="curve"/>
      <point x="211" y="434"/>
      <point x="221" y="422"/>
      <point x="221" y="419" type="curve"/>
      <point x="219" y="413"/>
      <point x="212" y="402"/>
      <point x="212" y="386" type="curve" smooth="yes"/>
      <point x="212" y="380"/>
      <point x="214" y="378"/>
      <point x="216" y="380" type="curve" smooth="yes"/>
      <point x="245" y="411"/>
      <point x="288" y="438"/>
    </contour>
    <contour>
      <point x="264" y="366" type="curve" smooth="yes"/>
      <point x="228" y="366"/>
      <point x="210" y="344"/>
      <point x="210" y="339" type="curve" smooth="yes"/>
      <point x="210" y="94" type="line" smooth="yes"/>
      <point x="210" y="55"/>
      <point x="243" y="35"/>
      <point x="277" y="35" type="curve" smooth="yes"/>
      <point x="309" y="35"/>
      <point x="369" y="81"/>
      <point x="369" y="194" type="curve" smooth="yes"/>
      <point x="369" y="295"/>
      <point x="343" y="366"/>
    </contour>
  </outline>
</glyph>
<glyph name="q" format="2">
  <advance width="521"/>
  <unicode hex="0071"/>
  <outline>
    <contour>
      <point x="256" y="385" type="curve" smooth="yes"/>
      <point x="188" y="385"/>
      <point x="170" y="306"/>
      <point x="170" y="237" type="curve" smooth="yes"/>
      <point x="170" y="156"/>
      <point x="195" y="55"/>
      <point x="270" y="55" type="curve" smooth="yes"/>
      <point x="305" y="55"/>
      <point x="328" y="74"/>
      <point x="328" y="78" type="curve" smooth="yes"/>
      <point x="328" y="336" type="line" smooth="yes"/>
      <point x="328" y="346"/>
      <point x="307" y="385"/>
    </contour>
    <contour>
      <point x="293" y="436" type="curve" smooth="yes"/>
      <point x="330" y="436"/>
      <point x="379" y="413"/>
      <point x="408" y="413" type="curve" smooth="yes"/>
      <point x="429" y="413"/>
      <point x="437" y="418"/>
      <point x="443" y="420" type="curve"/>
      <point x="449" y="418"/>
      <point x="467" y="403"/>
      <point x="467" y="396" type="curve"/>
      <point x="462" y="384"/>
      <point x="455" y="351"/>
      <point x="455" y="284" type="curve" smooth="yes"/>
      <point x="455" y="-67" type="line" smooth="yes"/>
      <point x="455" y="-109"/>
      <point x="455" y="-139"/>
      <point x="463" y="-159" type="curve" smooth="yes"/>
      <point x="468" y="-172"/>
      <point x="512" y="-176"/>
      <point x="525" y="-177" type="curve"/>
      <point x="530" y="-184"/>
      <point x="529" y="-207"/>
      <point x="525" y="-213" type="curve"/>
      <point x="487" y="-209"/>
      <point x="433" y="-206"/>
      <point x="392" y="-206" type="curve" smooth="yes"/>
      <point x="351" y="-206"/>
      <point x="296" y="-209"/>
      <point x="258" y="-213" type="curve"/>
      <point x="254" y="-207"/>
      <point x="253" y="-184"/>
      <point x="258" y="-177" type="curve"/>
      <point x="271" y="-176"/>
      <point x="315" y="-172"/>
      <point x="320" y="-159" type="curve" smooth="yes"/>
      <point x="328" y="-139"/>
      <point x="328" y="-109"/>
      <point x="328" y="-67" type="curve" smooth="yes"/>
      <point x="328" y="17" type="line" smooth="yes"/>
      <point x="328" y="23"/>
      <point x="328" y="34"/>
      <point x="322" y="29" type="curve" smooth="yes"/>
      <point x="307" y="18"/>
      <point x="257" y="-8"/>
      <point x="211" y="-8" type="curve" smooth="yes"/>
      <point x="112" y="-8"/>
      <point x="31" y="83"/>
      <point x="31" y="188" type="curve" smooth="yes"/>
      <point x="31" y="341"/>
      <point x="169" y="436"/>
    </contour>
  </outline>
</glyph>
<glyph name="r" format="2">
	<unicode hex="0072"/>
	<advance width="438"/>
	<outline>
		<contour>
			<point x="355" y="437" type="curve" smooth="yes"/>
			<point x="380" y="437"/>
			<point x="403" y="432"/>
			<point x="416" y="420" type="curve"/>
			<point x="420" y="414"/>
			<point x="427" y="393"/>
			<point x="427" y="372" type="curve" smooth="yes"/>
			<point x="427" y="339"/>
			<point x="402" y="295"/>
			<point x="369" y="295" type="curve" smooth="yes"/>
			<point x="351" y="295"/>
			<point x="339" y="309"/>
			<point x="327" y="319" type="curve" smooth="yes"/>
			<point x="316" y="329"/>
			<point x="308" y="340"/>
			<point x="291" y="340" type="curve" smooth="yes"/>
			<point x="251" y="340"/>
			<point x="226" y="282"/>
			<point x="226" y="261" type="curve" smooth="yes"/>
			<point x="226" y="142" type="line" smooth="yes"/>
			<point x="226" y="106"/>
			<point x="226" y="70"/>
			<point x="234" y="50" type="curve" smooth="yes"/>
			<point x="239" y="37"/>
			<point x="293" y="33"/>
			<point x="306" y="32" type="curve"/>
			<point x="311" y="25"/>
			<point x="310" y="2"/>
			<point x="306" y="-4" type="curve"/>
			<point x="268" y="0"/>
			<point x="203" y="3"/>
			<point x="162" y="3" type="curve" smooth="yes"/>
			<point x="121" y="3"/>
			<point x="67" y="0"/>
			<point x="29" y="-4" type="curve"/>
			<point x="25" y="2"/>
			<point x="24" y="25"/>
			<point x="29" y="32" type="curve"/>
			<point x="42" y="33"/>
			<point x="86" y="37"/>
			<point x="91" y="50" type="curve" smooth="yes"/>
			<point x="99" y="70"/>
			<point x="99" y="100"/>
			<point x="99" y="142" type="curve" smooth="yes"/>
			<point x="99" y="254" type="line" smooth="yes"/>
			<point x="99" y="264"/>
			<point x="98" y="319"/>
			<point x="90" y="334" type="curve" smooth="yes"/>
			<point x="82" y="349"/>
			<point x="36" y="354"/>
			<point x="29" y="354" type="curve"/>
			<point x="26" y="356"/>
			<point x="25" y="384"/>
			<point x="30" y="384" type="curve"/>
			<point x="104" y="390"/>
			<point x="183" y="417"/>
			<point x="220" y="436" type="curve"/>
			<point x="227" y="434"/>
			<point x="237" y="422"/>
			<point x="237" y="419" type="curve"/>
			<point x="234" y="411"/>
			<point x="227" y="356"/>
			<point x="227" y="342" type="curve" smooth="yes"/>
			<point x="227" y="337"/>
			<point x="232" y="337"/>
			<point x="233" y="339" type="curve" smooth="yes"/>
			<point x="256" y="381"/>
			<point x="293" y="437"/>
		</contour>
	</outline>
</glyph>
<glyph name="s" format="2">
	<unicode hex="0073"/>
	<advance width="394"/>
	<outline>
		<contour>
			<point x="219" y="438" type="curve" smooth="yes"/>
			<point x="265" y="438"/>
			<point x="296" y="426"/>
			<point x="328" y="419" type="curve"/>
			<point x="336" y="386"/>
			<point x="349" y="316"/>
			<point x="349" y="299" type="curve" smooth="yes"/>
			<point x="349" y="295"/>
			<point x="338" y="292"/>
			<point x="331" y="292" type="curve" smooth="yes"/>
			<point x="323" y="292"/>
			<point x="318" y="296"/>
			<point x="312" y="300" type="curve"/>
			<point x="302" y="344"/>
			<point x="277" y="398"/>
			<point x="209" y="398" type="curve" smooth="yes"/>
			<point x="177" y="398"/>
			<point x="153" y="381"/>
			<point x="153" y="346" type="curve" smooth="yes"/>
			<point x="153" y="295"/>
			<point x="210" y="280"/>
			<point x="253" y="259" type="curve" smooth="yes"/>
			<point x="304" y="234"/>
			<point x="358" y="210"/>
			<point x="358" y="127" type="curve" smooth="yes"/>
			<point x="358" y="29"/>
			<point x="268" y="-8"/>
			<point x="166" y="-8" type="curve" smooth="yes"/>
			<point x="123" y="-8"/>
			<point x="76" y="7"/>
			<point x="52" y="13" type="curve"/>
			<point x="48" y="35"/>
			<point x="44" y="129"/>
			<point x="44" y="140" type="curve" smooth="yes"/>
			<point x="44" y="146"/>
			<point x="54" y="146"/>
			<point x="59" y="146" type="curve" smooth="yes"/>
			<point x="66" y="146"/>
			<point x="77" y="143"/>
			<point x="80" y="137" type="curve"/>
			<point x="94" y="52"/>
			<point x="147" y="31"/>
			<point x="186" y="31" type="curve" smooth="yes"/>
			<point x="220" y="31"/>
			<point x="241" y="57"/>
			<point x="241" y="84" type="curve" smooth="yes"/>
			<point x="241" y="133"/>
			<point x="187" y="146"/>
			<point x="141" y="171" type="curve" smooth="yes"/>
			<point x="84" y="202"/>
			<point x="37" y="237"/>
			<point x="37" y="303" type="curve" smooth="yes"/>
			<point x="37" y="401"/>
			<point x="142" y="438"/>
		</contour>
	</outline>
</glyph>
<glyph name="t" format="2">
	<unicode hex="0074"/>
	<advance width="333"/>
	<outline>
		<contour>
			<point x="207" y="418" type="curve"/>
			<point x="214" y="418"/>
			<point x="286" y="418"/>
			<point x="318" y="418" type="curve" smooth="yes"/>
			<point x="322" y="418"/>
			<point x="324" y="410"/>
			<point x="324" y="405" type="curve" smooth="yes"/>
			<point x="324" y="396"/>
			<point x="312" y="379"/>
			<point x="302" y="372" type="curve"/>
			<point x="273" y="372"/>
			<point x="239" y="372"/>
			<point x="207" y="372" type="curve"/>
			<point x="207" y="130" type="line" smooth="yes"/>
			<point x="207" y="78"/>
			<point x="224" y="56"/>
			<point x="260" y="56" type="curve" smooth="yes"/>
			<point x="283" y="56"/>
			<point x="309" y="76"/>
			<point x="312" y="79" type="curve"/>
			<point x="314" y="77"/>
			<point x="318" y="70"/>
			<point x="318" y="65" type="curve" smooth="yes"/>
			<point x="318" y="60"/>
			<point x="313" y="49"/>
			<point x="311" y="47" type="curve" smooth="yes"/>
			<point x="302" y="37"/>
			<point x="258" y="-7"/>
			<point x="207" y="-7" type="curve" smooth="yes"/>
			<point x="146" y="-7"/>
			<point x="80" y="27"/>
			<point x="80" y="136" type="curve" smooth="yes"/>
			<point x="80" y="372" type="line"/>
			<point x="54" y="372"/>
			<point x="36" y="372"/>
			<point x="11" y="372" type="curve"/>
			<point x="6" y="374"/>
			<point x="6" y="381"/>
			<point x="6" y="385" type="curve"/>
			<point x="16" y="399"/>
			<point x="25" y="408"/>
			<point x="37" y="418" type="curve"/>
			<point x="50" y="418"/>
			<point x="70" y="418"/>
			<point x="80" y="418" type="curve"/>
			<point x="80" y="418"/>
			<point x="80" y="450"/>
			<point x="80" y="470" type="curve"/>
			<point x="117" y="501"/>
			<point x="153" y="543"/>
			<point x="183" y="573" type="curve"/>
			<point x="194" y="580"/>
			<point x="206" y="579"/>
			<point x="207" y="573" type="curve"/>
			<point x="207" y="520"/>
			<point x="207" y="470"/>
		</contour>
	</outline>
</glyph>
<glyph name="u" format="2">
	<unicode hex="0075"/>
	<advance width="552"/>
	<outline>
		<contour>
			<point x="347" y="254" type="line" smooth="yes"/>
			<point x="347" y="264"/>
			<point x="346" y="319"/>
			<point x="338" y="334" type="curve" smooth="yes"/>
			<point x="330" y="349"/>
			<point x="284" y="354"/>
			<point x="277" y="354" type="curve"/>
			<point x="274" y="356"/>
			<point x="273" y="384"/>
			<point x="278" y="384" type="curve"/>
			<point x="352" y="390"/>
			<point x="431" y="417"/>
			<point x="468" y="436" type="curve"/>
			<point x="475" y="434"/>
			<point x="485" y="422"/>
			<point x="485" y="419" type="curve"/>
			<point x="482" y="411"/>
			<point x="476" y="377"/>
			<point x="475" y="363" type="curve" smooth="yes"/>
			<point x="474" y="342"/>
			<point x="474" y="308"/>
			<point x="474" y="302" type="curve" smooth="yes"/>
			<point x="474" y="105" type="line" smooth="yes"/>
			<point x="474" y="90"/>
			<point x="474" y="78"/>
			<point x="483" y="68" type="curve" smooth="yes"/>
			<point x="492" y="58"/>
			<point x="518" y="59"/>
			<point x="527" y="59" type="curve"/>
			<point x="529" y="57"/>
			<point x="530" y="53"/>
			<point x="530" y="46" type="curve" smooth="yes"/>
			<point x="530" y="40"/>
			<point x="528" y="33"/>
			<point x="524" y="27" type="curve"/>
			<point x="466" y="21"/>
			<point x="369" y="-7"/>
			<point x="356" y="-7" type="curve" smooth="yes"/>
			<point x="352" y="-7"/>
			<point x="347" y="2"/>
			<point x="347" y="17" type="curve" smooth="yes"/>
			<point x="347" y="32" type="line" smooth="yes"/>
			<point x="347" y="34"/>
			<point x="347" y="39"/>
			<point x="344" y="37" type="curve" smooth="yes"/>
			<point x="328" y="26"/>
			<point x="275" y="-5"/>
			<point x="207" y="-5" type="curve" smooth="yes"/>
			<point x="112" y="-5"/>
			<point x="82" y="78"/>
			<point x="82" y="170" type="curve" smooth="yes"/>
			<point x="82" y="254" type="line" smooth="yes"/>
			<point x="82" y="264"/>
			<point x="81" y="319"/>
			<point x="73" y="334" type="curve" smooth="yes"/>
			<point x="65" y="349"/>
			<point x="18" y="354"/>
			<point x="11" y="354" type="curve"/>
			<point x="8" y="356"/>
			<point x="7" y="384"/>
			<point x="12" y="384" type="curve"/>
			<point x="86" y="390"/>
			<point x="166" y="417"/>
			<point x="203" y="436" type="curve"/>
			<point x="210" y="434"/>
			<point x="219" y="422"/>
			<point x="219" y="419" type="curve"/>
			<point x="216" y="411"/>
			<point x="210" y="377"/>
			<point x="209" y="363" type="curve" smooth="yes"/>
			<point x="208" y="342"/>
			<point x="208" y="308"/>
			<point x="208" y="302" type="curve" smooth="yes"/>
			<point x="208" y="214" type="line" smooth="yes"/>
			<point x="208" y="110"/>
			<point x="224" y="55"/>
			<point x="285" y="55" type="curve" smooth="yes"/>
			<point x="312" y="55"/>
			<point x="347" y="76"/>
			<point x="347" y="91" type="curve" smooth="yes"/>
		</contour>
	</outline>
</glyph>
<glyph name="v" format="2">
	<unicode hex="0076"/>
	<advance width="520"/>
	<outline>
		<contour>
			<point x="132" y="426" type="curve" smooth="yes"/>
			<point x="173" y="426"/>
			<point x="231" y="430"/>
			<point x="255" y="433" type="curve"/>
			<point x="260" y="428"/>
			<point x="260" y="402"/>
			<point x="255" y="396" type="curve"/>
			<point x="243" y="396"/>
			<point x="197" y="387"/>
			<point x="197" y="370" type="curve" smooth="yes"/>
			<point x="197" y="367"/>
			<point x="197" y="360"/>
			<point x="199" y="355" type="curve" smooth="yes"/>
			<point x="234" y="287"/>
			<point x="300" y="163"/>
			<point x="300" y="163" type="curve"/>
			<point x="300" y="163"/>
			<point x="345" y="262"/>
			<point x="377" y="334" type="curve" smooth="yes"/>
			<point x="382" y="344"/>
			<point x="387" y="359"/>
			<point x="387" y="370" type="curve" smooth="yes"/>
			<point x="387" y="394"/>
			<point x="326" y="396"/>
			<point x="318" y="396" type="curve"/>
			<point x="313" y="401"/>
			<point x="313" y="426"/>
			<point x="317" y="433" type="curve"/>
			<point x="346" y="429"/>
			<point x="382" y="426"/>
			<point x="420" y="426" type="curve" smooth="yes"/>
			<point x="461" y="426"/>
			<point x="506" y="431"/>
			<point x="521" y="433" type="curve"/>
			<point x="525" y="428"/>
			<point x="526" y="403"/>
			<point x="521" y="396" type="curve"/>
			<point x="509" y="396"/>
			<point x="456" y="392"/>
			<point x="442" y="364" type="curve" smooth="yes"/>
			<point x="292" y="44" type="line" smooth="yes"/>
			<point x="272" y="6"/>
			<point x="260" y="-11"/>
			<point x="248" y="-11" type="curve" smooth="yes"/>
			<point x="245" y="-11"/>
			<point x="239" y="-6"/>
			<point x="236" y="-3" type="curve"/>
			<point x="179" y="114"/>
			<point x="126" y="224"/>
			<point x="61" y="359" type="curve"/>
			<point x="48" y="388"/>
			<point x="8" y="396"/>
			<point x="0" y="396" type="curve"/>
			<point x="-6" y="404"/>
			<point x="-4" y="427"/>
			<point x="0" y="433" type="curve"/>
			<point x="25" y="430"/>
			<point x="94" y="426"/>
		</contour>
	</outline>
</glyph>
<glyph name="w" format="2">
	<unicode hex="0077"/>
	<advance width="770"/>
	<outline>
		<contour>
			<point x="125" y="426" type="curve" smooth="yes"/>
			<point x="166" y="426"/>
			<point x="231" y="430"/>
			<point x="255" y="433" type="curve"/>
			<point x="260" y="428"/>
			<point x="260" y="402"/>
			<point x="255" y="396" type="curve"/>
			<point x="243" y="396"/>
			<point x="197" y="387"/>
			<point x="197" y="370" type="curve" smooth="yes"/>
			<point x="197" y="367"/>
			<point x="197" y="360"/>
			<point x="199" y="355" type="curve" smooth="yes"/>
			<point x="234" y="287"/>
			<point x="294" y="168"/>
			<point x="294" y="168" type="curve"/>
			<point x="294" y="168"/>
			<point x="358" y="312"/>
			<point x="358" y="327" type="curve" smooth="yes"/>
			<point x="358" y="338"/>
			<point x="352" y="353"/>
			<point x="349" y="359" type="curve" smooth="yes"/>
			<point x="334" y="387"/>
			<point x="296" y="396"/>
			<point x="288" y="396" type="curve"/>
			<point x="281" y="404"/>
			<point x="283" y="427"/>
			<point x="287" y="433" type="curve"/>
			<point x="326" y="428"/>
			<point x="381" y="427"/>
			<point x="419" y="426" type="curve"/>
			<point x="460" y="426"/>
			<point x="518" y="430"/>
			<point x="542" y="433" type="curve"/>
			<point x="547" y="428"/>
			<point x="547" y="402"/>
			<point x="542" y="396" type="curve"/>
			<point x="530" y="396"/>
			<point x="484" y="387"/>
			<point x="484" y="370" type="curve" smooth="yes"/>
			<point x="484" y="367"/>
			<point x="484" y="360"/>
			<point x="486" y="355" type="curve" smooth="yes"/>
			<point x="517" y="285"/>
			<point x="568" y="176"/>
			<point x="568" y="176" type="curve"/>
			<point x="568" y="176"/>
			<point x="604" y="263"/>
			<point x="635" y="334" type="curve" smooth="yes"/>
			<point x="639" y="344"/>
			<point x="645" y="359"/>
			<point x="645" y="370" type="curve" smooth="yes"/>
			<point x="645" y="394"/>
			<point x="584" y="396"/>
			<point x="576" y="396" type="curve"/>
			<point x="571" y="401"/>
			<point x="571" y="426"/>
			<point x="575" y="433" type="curve"/>
			<point x="604" y="429"/>
			<point x="640" y="426"/>
			<point x="678" y="426" type="curve" smooth="yes"/>
			<point x="719" y="426"/>
			<point x="755" y="431"/>
			<point x="770" y="433" type="curve"/>
			<point x="774" y="428"/>
			<point x="775" y="403"/>
			<point x="770" y="396" type="curve"/>
			<point x="758" y="396"/>
			<point x="717" y="395"/>
			<point x="704" y="366" type="curve" smooth="yes"/>
			<point x="649" y="239"/>
			<point x="618" y="168"/>
			<point x="560" y="43" type="curve" smooth="yes"/>
			<point x="542" y="5"/>
			<point x="521" y="-11"/>
			<point x="512" y="-11" type="curve" smooth="yes"/>
			<point x="509" y="-11"/>
			<point x="503" y="-6"/>
			<point x="500" y="-3" type="curve"/>
			<point x="500" y="-3"/>
			<point x="423" y="194"/>
			<point x="391" y="270" type="curve"/>
			<point x="361" y="194"/>
			<point x="295" y="43"/>
			<point x="295" y="43" type="curve" smooth="yes"/>
			<point x="278" y="5"/>
			<point x="255" y="-11"/>
			<point x="246" y="-11" type="curve" smooth="yes"/>
			<point x="243" y="-11"/>
			<point x="237" y="-6"/>
			<point x="234" y="-3" type="curve"/>
			<point x="166" y="143"/>
			<point x="127" y="225"/>
			<point x="61" y="359" type="curve"/>
			<point x="47" y="388"/>
			<point x="8" y="396"/>
			<point x="0" y="396" type="curve"/>
			<point x="-6" y="404"/>
			<point x="-4" y="427"/>
			<point x="0" y="433" type="curve"/>
			<point x="25" y="430"/>
			<point x="87" y="426"/>
		</contour>
	</outline>
</glyph>
<glyph name="x" format="2">
  <advance width="544"/>
  <unicode hex="0078"/>
  <outline>
    <contour>
      <point x="152" y="426" type="curve"/>
      <point x="193" y="426"/>
      <point x="251" y="430"/>
      <point x="275" y="433" type="curve"/>
      <point x="280" y="428"/>
      <point x="280" y="402"/>
      <point x="275" y="396" type="curve"/>
      <point x="263" y="396"/>
      <point x="228" y="392"/>
      <point x="228" y="375" type="curve" smooth="yes"/>
      <point x="228" y="372"/>
      <point x="234" y="366"/>
      <point x="238" y="361" type="curve" smooth="yes"/>
      <point x="300" y="281" type="line"/>
      <point x="328" y="311"/>
      <point x="375" y="361"/>
      <point x="375" y="370" type="curve" smooth="yes"/>
      <point x="375" y="394"/>
      <point x="314" y="396"/>
      <point x="306" y="396" type="curve"/>
      <point x="301" y="401"/>
      <point x="301" y="426"/>
      <point x="305" y="433" type="curve"/>
      <point x="334" y="429"/>
      <point x="370" y="426"/>
      <point x="408" y="426" type="curve" smooth="yes"/>
      <point x="449" y="426"/>
      <point x="511" y="431"/>
      <point x="526" y="433" type="curve"/>
      <point x="530" y="428"/>
      <point x="531" y="403"/>
      <point x="526" y="396" type="curve"/>
      <point x="508" y="396"/>
      <point x="472" y="393"/>
      <point x="445" y="365" type="curve" smooth="yes"/>
      <point x="410" y="328"/>
      <point x="380" y="295"/>
      <point x="332" y="240" type="curve"/>
      <point x="386" y="172"/>
      <point x="418" y="131"/>
      <point x="471" y="64" type="curve" smooth="yes"/>
      <point x="491" y="39"/>
      <point x="529" y="32"/>
      <point x="537" y="32" type="curve"/>
      <point x="544" y="24"/>
      <point x="541" y="2"/>
      <point x="537" y="-4" type="curve"/>
      <point x="498" y="1"/>
      <point x="440" y="2"/>
      <point x="402" y="3" type="curve"/>
      <point x="361" y="3"/>
      <point x="302" y="-1"/>
      <point x="278" y="-4" type="curve"/>
      <point x="273" y="1"/>
      <point x="273" y="26"/>
      <point x="278" y="32" type="curve"/>
      <point x="290" y="32"/>
      <point x="325" y="37"/>
      <point x="325" y="54" type="curve" smooth="yes"/>
      <point x="325" y="57"/>
      <point x="319" y="62"/>
      <point x="315" y="67" type="curve" smooth="yes"/>
      <point x="245" y="152" type="line"/>
      <point x="223" y="129"/>
      <point x="188" y="94"/>
      <point x="172" y="73" type="curve" smooth="yes"/>
      <point x="167" y="67"/>
      <point x="164" y="62"/>
      <point x="164" y="59" type="curve" smooth="yes"/>
      <point x="164" y="35"/>
      <point x="226" y="32"/>
      <point x="234" y="32" type="curve"/>
      <point x="239" y="27"/>
      <point x="239" y="3"/>
      <point x="235" y="-4" type="curve"/>
      <point x="206" y="0"/>
      <point x="170" y="3"/>
      <point x="132" y="3" type="curve" smooth="yes"/>
      <point x="91" y="3"/>
      <point x="23" y="-2"/>
      <point x="8" y="-4" type="curve"/>
      <point x="4" y="1"/>
      <point x="3" y="25"/>
      <point x="8" y="32" type="curve"/>
      <point x="26" y="32"/>
      <point x="67" y="43"/>
      <point x="90" y="65" type="curve" smooth="yes"/>
      <point x="138" y="111"/>
      <point x="165" y="144"/>
      <point x="213" y="194" type="curve"/>
      <point x="163" y="260"/>
      <point x="138" y="298"/>
      <point x="85" y="365" type="curve" smooth="yes"/>
      <point x="65" y="390"/>
      <point x="26" y="396"/>
      <point x="18" y="396" type="curve"/>
      <point x="11" y="404"/>
      <point x="13" y="427"/>
      <point x="17" y="433" type="curve"/>
      <point x="56" y="428"/>
      <point x="114" y="427"/>
    </contour>
  </outline>
</glyph>
<glyph name="y" format="2">
  <advance width="521"/>
  <unicode hex="0079"/>
  <outline>
    <contour>
      <point x="132" y="426" type="curve" smooth="yes"/>
      <point x="173" y="426"/>
      <point x="231" y="430"/>
      <point x="255" y="433" type="curve"/>
      <point x="260" y="428"/>
      <point x="260" y="402"/>
      <point x="255" y="396" type="curve"/>
      <point x="243" y="396"/>
      <point x="197" y="387"/>
      <point x="197" y="370" type="curve" smooth="yes"/>
      <point x="197" y="367"/>
      <point x="197" y="360"/>
      <point x="199" y="355" type="curve" smooth="yes"/>
      <point x="234" y="287"/>
      <point x="300" y="163"/>
      <point x="300" y="163" type="curve"/>
      <point x="300" y="163"/>
      <point x="345" y="262"/>
      <point x="377" y="334" type="curve" smooth="yes"/>
      <point x="382" y="344"/>
      <point x="387" y="359"/>
      <point x="387" y="370" type="curve" smooth="yes"/>
      <point x="387" y="394"/>
      <point x="326" y="396"/>
      <point x="318" y="396" type="curve"/>
      <point x="313" y="401"/>
      <point x="313" y="426"/>
      <point x="317" y="433" type="curve"/>
      <point x="346" y="429"/>
      <point x="382" y="426"/>
      <point x="420" y="426" type="curve" smooth="yes"/>
      <point x="461" y="426"/>
      <point x="506" y="431"/>
      <point x="521" y="433" type="curve"/>
      <point x="525" y="428"/>
      <point x="526" y="403"/>
      <point x="521" y="396" type="curve"/>
      <point x="509" y="396"/>
      <point x="456" y="392"/>
      <point x="442" y="364" type="curve" smooth="yes"/>
      <point x="442" y="364"/>
      <point x="342" y="153"/>
      <point x="281" y="24" type="curve" smooth="yes"/>
      <point x="251" y="-39"/>
      <point x="236" y="-81"/>
      <point x="195" y="-132" type="curve" smooth="yes"/>
      <point x="144" y="-196"/>
      <point x="101" y="-213"/>
      <point x="71" y="-213" type="curve" smooth="yes"/>
      <point x="30" y="-213"/>
      <point x="6" y="-187"/>
      <point x="6" y="-161" type="curve" smooth="yes"/>
      <point x="6" y="-139"/>
      <point x="15" y="-124"/>
      <point x="28" y="-115" type="curve"/>
      <point x="105" y="-115"/>
      <point x="149" y="-105"/>
      <point x="189" y="-39" type="curve" smooth="yes"/>
      <point x="207" y="-10"/>
      <point x="210" y="1"/>
      <point x="223" y="30" type="curve"/>
      <point x="183" y="111"/>
      <point x="61" y="359"/>
      <point x="61" y="359" type="curve"/>
      <point x="48" y="388"/>
      <point x="8" y="396"/>
      <point x="0" y="396" type="curve"/>
      <point x="-6" y="404"/>
      <point x="-4" y="427"/>
      <point x="0" y="433" type="curve"/>
      <point x="25" y="430"/>
      <point x="94" y="426"/>
    </contour>
  </outline>
</glyph>
<glyph name="z" format="2">
	<unicode hex="007A"/>
	<advance width="449"/>
	<outline>
		<contour>
			<point x="146" y="418" type="curve" smooth="yes"/>
			<point x="281" y="418" type="line" smooth="yes"/>
			<point x="334" y="418"/>
			<point x="367" y="421"/>
			<point x="407" y="426" type="curve"/>
			<point x="412" y="418"/>
			<point x="410" y="407"/>
			<point x="410" y="402" type="curve"/>
			<point x="173" y="45" type="line"/>
			<point x="284" y="45" type="line" smooth="yes"/>
			<point x="344" y="45"/>
			<point x="379" y="107"/>
			<point x="387" y="144" type="curve" smooth="yes"/>
			<point x="388" y="149"/>
			<point x="395" y="150"/>
			<point x="399" y="150" type="curve" smooth="yes"/>
			<point x="410" y="150"/>
			<point x="423" y="142"/>
			<point x="424" y="141" type="curve"/>
			<point x="411" y="103"/>
			<point x="385" y="0"/>
			<point x="385" y="0" type="curve"/>
			<point x="38" y="0" type="line"/>
			<point x="38" y="0"/>
			<point x="28" y="8"/>
			<point x="28" y="17" type="curve" smooth="yes"/>
			<point x="28" y="22"/>
			<point x="30" y="29"/>
			<point x="32" y="33" type="curve" smooth="yes"/>
			<point x="251" y="372" type="line"/>
			<point x="251" y="372"/>
			<point x="180" y="373"/>
			<point x="149" y="373" type="curve" smooth="yes"/>
			<point x="99" y="373"/>
			<point x="81" y="315"/>
			<point x="70" y="281" type="curve" smooth="yes"/>
			<point x="69" y="277"/>
			<point x="58" y="274"/>
			<point x="48" y="274" type="curve" smooth="yes"/>
			<point x="42" y="274"/>
			<point x="36" y="276"/>
			<point x="36" y="278" type="curve"/>
			<point x="39" y="294"/>
			<point x="51" y="372"/>
			<point x="54" y="424" type="curve"/>
			<point x="54" y="424"/>
			<point x="111" y="418"/>
		</contour>
	</outline>
</glyph>
<glyph name="asciitilde" format="2">
	<unicode hex="007E"/>
	<advance width="537"/>
	<outline>
		<contour>
			<point x="255" y="267" type="curve" smooth="yes"/>
			<point x="221" y="281"/>
			<point x="182" y="299"/>
			<point x="138" y="299" type="curve" smooth="yes"/>
			<point x="100" y="299"/>
			<point x="66" y="269"/>
			<point x="54" y="253" type="curve"/>
			<point x="51" y="254"/>
			<point x="48" y="257"/>
			<point x="47" y="261" type="curve"/>
			<point x="47" y="300"/>
			<point x="109" y="357"/>
			<point x="167" y="357" type="curve" smooth="yes"/>
			<point x="213" y="357"/>
			<point x="254" y="339"/>
			<point x="288" y="324" type="curve" smooth="yes"/>
			<point x="321" y="310"/>
			<point x="361" y="292"/>
			<point x="405" y="292" type="curve" smooth="yes"/>
			<point x="443" y="292"/>
			<point x="477" y="322"/>
			<point x="489" y="338" type="curve"/>
			<point x="492" y="337"/>
			<point x="495" y="334"/>
			<point x="496" y="330" type="curve"/>
			<point x="496" y="291"/>
			<point x="434" y="233"/>
			<point x="376" y="233" type="curve" smooth="yes"/>
			<point x="330" y="233"/>
			<point x="289" y="253"/>
		</contour>
	</outline>
</glyph>
<glyph name="exclamdown" format="2">
  <advance width="241"/>
  <unicode hex="00A1"/>
  <outline>
    <contour>
      <point x="48" y="360" type="curve" smooth="yes"/>
      <point x="48" y="399"/>
      <point x="80" y="433"/>
      <point x="120" y="433" type="curve" smooth="yes"/>
      <point x="161" y="433"/>
      <point x="194" y="399"/>
      <point x="194" y="357" type="curve" smooth="yes"/>
      <point x="194" y="318"/>
      <point x="161" y="286"/>
      <point x="121" y="286" type="curve" smooth="yes"/>
      <point x="80" y="286"/>
      <point x="48" y="321"/>
    </contour>
    <contour>
      <point x="117" y="-205" type="curve" smooth="yes"/>
      <point x="87" y="-205"/>
      <point x="57" y="-181"/>
      <point x="57" y="-139" type="curve" smooth="yes"/>
      <point x="57" y="-112"/>
      <point x="85" y="120"/>
      <point x="98" y="206" type="curve"/>
      <point x="102" y="219"/>
      <point x="105" y="227"/>
      <point x="117" y="231" type="curve"/>
      <point x="122" y="231"/>
      <point x="134" y="225"/>
      <point x="140" y="215" type="curve"/>
      <point x="151" y="150"/>
      <point x="182" y="-90"/>
      <point x="182" y="-140" type="curve" smooth="yes"/>
      <point x="182" y="-181"/>
      <point x="152" y="-205"/>
    </contour>
  </outline>
</glyph>
<glyph name="cent" format="2">
  <advance width="470"/>
  <unicode hex="00A2"/>
  <outline>
    <contour>
      <point x="274" y="470" type="line"/>
      <point x="282" y="470"/>
      <point x="309" y="469"/>
      <point x="309" y="462" type="curve"/>
      <point x="228" y="-37" type="line"/>
      <point x="219" y="-37"/>
      <point x="196" y="-34"/>
      <point x="193" y="-28" type="curve"/>
    </contour>
    <component base="c" xOffset="13"/>
  </outline>
</glyph>
<glyph name="sterling" format="2">
  <advance width="466"/>
  <unicode hex="00A3"/>
  <outline>
    <contour>
      <point x="309" y="621" type="curve" smooth="yes"/>
      <point x="343" y="621"/>
      <point x="359" y="612"/>
      <point x="378" y="600" type="curve"/>
      <point x="382" y="596"/>
      <point x="387" y="578"/>
      <point x="387" y="568" type="curve" smooth="yes"/>
      <point x="387" y="533"/>
      <point x="365" y="511"/>
      <point x="339" y="511" type="curve" smooth="yes"/>
      <point x="312" y="511"/>
      <point x="300" y="522"/>
      <point x="289" y="536" type="curve" smooth="yes"/>
      <point x="277" y="551"/>
      <point x="265" y="566"/>
      <point x="247" y="566" type="curve" smooth="yes"/>
      <point x="208" y="566"/>
      <point x="199" y="515"/>
      <point x="199" y="448" type="curve" smooth="yes"/>
      <point x="199" y="376"/>
      <point x="239" y="331"/>
      <point x="239" y="276" type="curve" smooth="yes"/>
      <point x="239" y="203"/>
      <point x="193" y="141"/>
      <point x="169" y="119" type="curve"/>
      <point x="187" y="129"/>
      <point x="211" y="134"/>
      <point x="233" y="134" type="curve" smooth="yes"/>
      <point x="270" y="134"/>
      <point x="302" y="92"/>
      <point x="353" y="92" type="curve" smooth="yes"/>
      <point x="390" y="92"/>
      <point x="404" y="123"/>
      <point x="412" y="138" type="curve"/>
      <point x="416" y="140"/>
      <point x="424" y="136"/>
      <point x="428" y="131" type="curve" smooth="yes"/>
      <point x="433" y="125"/>
      <point x="433" y="118"/>
      <point x="433" y="112" type="curve"/>
      <point x="422" y="81"/>
      <point x="377" y="-8"/>
      <point x="301" y="-8" type="curve" smooth="yes"/>
      <point x="235" y="-8"/>
      <point x="208" y="50"/>
      <point x="136" y="50" type="curve" smooth="yes"/>
      <point x="111" y="50"/>
      <point x="78" y="10"/>
      <point x="61" y="-6" type="curve"/>
      <point x="53" y="-6"/>
      <point x="45" y="7"/>
      <point x="45" y="16" type="curve" smooth="yes"/>
      <point x="45" y="44"/>
      <point x="80" y="76"/>
      <point x="94" y="92" type="curve" smooth="yes"/>
      <point x="118" y="119"/>
      <point x="127" y="179"/>
      <point x="127" y="227" type="curve" smooth="yes"/>
      <point x="127" y="276"/>
      <point x="97" y="348"/>
      <point x="97" y="375" type="curve" smooth="yes"/>
      <point x="97" y="508"/>
      <point x="217" y="621"/>
    </contour>
    <contour>
      <point x="66" y="341" type="curve"/>
      <point x="82" y="341"/>
      <point x="363" y="341"/>
      <point x="374" y="341" type="curve"/>
      <point x="388" y="330"/>
      <point x="371" y="304"/>
      <point x="365" y="300" type="curve"/>
      <point x="46" y="300" type="line"/>
      <point x="40" y="306"/>
      <point x="57" y="341"/>
    </contour>
  </outline>
</glyph>
<glyph name="currency" format="2">
  <advance width="549"/>
  <unicode hex="00A4"/>
  <outline>
    <contour>
      <point x="281" y="156" type="curve" smooth="yes"/>
      <point x="330" y="156"/>
      <point x="360" y="214"/>
      <point x="360" y="287" type="curve" smooth="yes"/>
      <point x="360" y="377"/>
      <point x="319" y="445"/>
      <point x="268" y="445" type="curve" smooth="yes"/>
      <point x="219" y="445"/>
      <point x="186" y="385"/>
      <point x="186" y="312" type="curve" smooth="yes"/>
      <point x="186" y="222"/>
      <point x="230" y="156"/>
    </contour>
    <contour>
      <point x="384" y="444" type="curve"/>
      <point x="441" y="498" type="line" smooth="yes"/>
      <point x="449" y="506"/>
      <point x="474" y="478"/>
      <point x="481" y="455" type="curve"/>
      <point x="423" y="400" type="line"/>
      <point x="441" y="371"/>
      <point x="451" y="336"/>
      <point x="451" y="300" type="curve" smooth="yes"/>
      <point x="451" y="261"/>
      <point x="440" y="224"/>
      <point x="419" y="194" type="curve"/>
      <point x="472" y="138" type="line" smooth="yes"/>
      <point x="480" y="130"/>
      <point x="452" y="105"/>
      <point x="429" y="98" type="curve"/>
      <point x="378" y="151" type="line"/>
      <point x="349" y="130"/>
      <point x="313" y="117"/>
      <point x="274" y="117" type="curve" smooth="yes"/>
      <point x="232" y="117"/>
      <point x="193" y="132"/>
      <point x="163" y="156" type="curve"/>
      <point x="111" y="107" type="line" smooth="yes"/>
      <point x="103" y="99"/>
      <point x="78" y="127"/>
      <point x="71" y="150" type="curve"/>
      <point x="124" y="200" type="line"/>
      <point x="105" y="229"/>
      <point x="95" y="264"/>
      <point x="95" y="300" type="curve" smooth="yes"/>
      <point x="95" y="343"/>
      <point x="109" y="382"/>
      <point x="132" y="413" type="curve"/>
      <point x="81" y="468" type="line" smooth="yes"/>
      <point x="73" y="476"/>
      <point x="101" y="501"/>
      <point x="124" y="508" type="curve"/>
      <point x="175" y="454" type="line"/>
      <point x="203" y="474"/>
      <point x="237" y="484"/>
      <point x="274" y="484" type="curve" smooth="yes"/>
      <point x="316" y="484"/>
      <point x="354" y="469"/>
    </contour>
  </outline>
</glyph>
<glyph name="yen" format="2">
  <advance width="675"/>
  <unicode hex="00A5"/>
  <outline>
    <contour>
      <point x="178" y="187" type="curve"/>
      <point x="194" y="187"/>
      <point x="476" y="187"/>
      <point x="487" y="187" type="curve"/>
      <point x="501" y="176"/>
      <point x="483" y="150"/>
      <point x="477" y="146" type="curve"/>
      <point x="159" y="146" type="line"/>
      <point x="153" y="152"/>
      <point x="169" y="187"/>
    </contour>
    <contour>
      <point x="178" y="265" type="curve"/>
      <point x="194" y="265"/>
      <point x="476" y="265"/>
      <point x="487" y="265" type="curve"/>
      <point x="501" y="254"/>
      <point x="483" y="228"/>
      <point x="477" y="224" type="curve"/>
      <point x="159" y="224" type="line"/>
      <point x="153" y="230"/>
      <point x="169" y="265"/>
    </contour>
    <contour>
      <point x="255" y="142" type="curve" smooth="yes"/>
      <point x="255" y="258" type="line" smooth="yes"/>
      <point x="255" y="259"/>
      <point x="254" y="268"/>
      <point x="252" y="273" type="curve" smooth="yes"/>
      <point x="232" y="320"/>
      <point x="127" y="506"/>
      <point x="127" y="506" type="curve" smooth="yes"/>
      <point x="112" y="533"/>
      <point x="109" y="540"/>
      <point x="97" y="560" type="curve" smooth="yes"/>
      <point x="82" y="584"/>
      <point x="44" y="591"/>
      <point x="31" y="592" type="curve"/>
      <point x="26" y="599"/>
      <point x="27" y="622"/>
      <point x="31" y="628" type="curve"/>
      <point x="69" y="624"/>
      <point x="129" y="621"/>
      <point x="170" y="621" type="curve" smooth="yes"/>
      <point x="211" y="621"/>
      <point x="270" y="624"/>
      <point x="308" y="628" type="curve"/>
      <point x="312" y="622"/>
      <point x="313" y="599"/>
      <point x="308" y="592" type="curve"/>
      <point x="295" y="591"/>
      <point x="248" y="589"/>
      <point x="248" y="565" type="curve" smooth="yes"/>
      <point x="248" y="561"/>
      <point x="251" y="557"/>
      <point x="255" y="550" type="curve" smooth="yes"/>
      <point x="372" y="334" type="line"/>
      <point x="377" y="329"/>
      <point x="453" y="468"/>
      <point x="495" y="546" type="curve" smooth="yes"/>
      <point x="499" y="554"/>
      <point x="500" y="561"/>
      <point x="500" y="568" type="curve" smooth="yes"/>
      <point x="500" y="586"/>
      <point x="441" y="591"/>
      <point x="428" y="592" type="curve"/>
      <point x="423" y="599"/>
      <point x="424" y="622"/>
      <point x="428" y="628" type="curve"/>
      <point x="474" y="624"/>
      <point x="493" y="621"/>
      <point x="538" y="621" type="curve" smooth="yes"/>
      <point x="581" y="621"/>
      <point x="608" y="626"/>
      <point x="648" y="628" type="curve"/>
      <point x="652" y="622"/>
      <point x="653" y="599"/>
      <point x="648" y="592" type="curve"/>
      <point x="635" y="591"/>
      <point x="591" y="589"/>
      <point x="576" y="567" type="curve" smooth="yes"/>
      <point x="557" y="538"/>
      <point x="425" y="327"/>
      <point x="398" y="271" type="curve" smooth="yes"/>
      <point x="395" y="265"/>
      <point x="393" y="255"/>
      <point x="393" y="253" type="curve" smooth="yes"/>
      <point x="392" y="142" type="line" smooth="yes"/>
      <point x="392" y="100"/>
      <point x="392" y="70"/>
      <point x="400" y="50" type="curve" smooth="yes"/>
      <point x="405" y="37"/>
      <point x="449" y="33"/>
      <point x="462" y="32" type="curve"/>
      <point x="467" y="25"/>
      <point x="466" y="2"/>
      <point x="462" y="-4" type="curve"/>
      <point x="424" y="0"/>
      <point x="364" y="3"/>
      <point x="323" y="3" type="curve" smooth="yes"/>
      <point x="282" y="3"/>
      <point x="223" y="0"/>
      <point x="185" y="-4" type="curve"/>
      <point x="181" y="2"/>
      <point x="180" y="25"/>
      <point x="185" y="32" type="curve"/>
      <point x="198" y="33"/>
      <point x="242" y="37"/>
      <point x="247" y="50" type="curve" smooth="yes"/>
      <point x="255" y="70"/>
      <point x="255" y="100"/>
    </contour>
  </outline>
</glyph>
<glyph name="section" format="2">
  <advance width="456"/>
  <unicode hex="00A7"/>
  <outline>
    <contour>
      <point x="313" y="638" type="curve" smooth="yes"/>
      <point x="204" y="638"/>
      <point x="122" y="553"/>
      <point x="122" y="475" type="curve" smooth="yes"/>
      <point x="122" y="409"/>
      <point x="194" y="355"/>
      <point x="241" y="312" type="curve" smooth="yes"/>
      <point x="294" y="263"/>
      <point x="352" y="208"/>
      <point x="352" y="127" type="curve" smooth="yes"/>
      <point x="352" y="84"/>
      <point x="336" y="64"/>
      <point x="313" y="36" type="curve" smooth="yes"/>
      <point x="313" y="36"/>
      <point x="293" y="15"/>
      <point x="286" y="-3" type="curve" smooth="yes"/>
      <point x="281" y="-14"/>
      <point x="285" y="-21"/>
      <point x="284" y="-33" type="curve"/>
      <point x="321" y="-8"/>
      <point x="421" y="103"/>
      <point x="421" y="180" type="curve" smooth="yes"/>
      <point x="421" y="270"/>
      <point x="366" y="317"/>
      <point x="304" y="375" type="curve" smooth="yes"/>
      <point x="258" y="417"/>
      <point x="179" y="491"/>
      <point x="179" y="536" type="curve" smooth="yes"/>
      <point x="179" y="573"/>
      <point x="223" y="589"/>
      <point x="253" y="589" type="curve" smooth="yes"/>
      <point x="268" y="589"/>
      <point x="282" y="584"/>
      <point x="291" y="576" type="curve" smooth="yes"/>
      <point x="300" y="568"/>
      <point x="312" y="557"/>
      <point x="331" y="557" type="curve" smooth="yes"/>
      <point x="359" y="557"/>
      <point x="369" y="575"/>
      <point x="369" y="596" type="curve" smooth="yes"/>
      <point x="369" y="602"/>
      <point x="367" y="615"/>
      <point x="362" y="625" type="curve"/>
      <point x="348" y="631"/>
      <point x="327" y="638"/>
    </contour>
    <contour>
      <point x="143" y="-90" type="curve" smooth="yes"/>
      <point x="252" y="-90"/>
      <point x="334" y="-5"/>
      <point x="334" y="73" type="curve" smooth="yes"/>
      <point x="334" y="139"/>
      <point x="262" y="192"/>
      <point x="215" y="235" type="curve" smooth="yes"/>
      <point x="162" y="284"/>
      <point x="104" y="340"/>
      <point x="104" y="421" type="curve" smooth="yes"/>
      <point x="104" y="464"/>
      <point x="118" y="481"/>
      <point x="143" y="511" type="curve" smooth="yes"/>
      <point x="143" y="511"/>
      <point x="163" y="533"/>
      <point x="170" y="551" type="curve" smooth="yes"/>
      <point x="175" y="562"/>
      <point x="171" y="569"/>
      <point x="172" y="581" type="curve"/>
      <point x="135" y="556"/>
      <point x="35" y="445"/>
      <point x="35" y="368" type="curve" smooth="yes"/>
      <point x="35" y="278"/>
      <point x="90" y="231"/>
      <point x="152" y="173" type="curve" smooth="yes"/>
      <point x="198" y="131"/>
      <point x="277" y="57"/>
      <point x="277" y="12" type="curve" smooth="yes"/>
      <point x="277" y="-25"/>
      <point x="233" y="-41"/>
      <point x="203" y="-41" type="curve" smooth="yes"/>
      <point x="188" y="-41"/>
      <point x="176" y="-38"/>
      <point x="168" y="-30" type="curve" smooth="yes"/>
      <point x="159" y="-21"/>
      <point x="145" y="-9"/>
      <point x="126" y="-9" type="curve" smooth="yes"/>
      <point x="98" y="-9"/>
      <point x="87" y="-30"/>
      <point x="87" y="-51" type="curve" smooth="yes"/>
      <point x="87" y="-57"/>
      <point x="90" y="-69"/>
      <point x="94" y="-76" type="curve"/>
      <point x="106" y="-82"/>
      <point x="129" y="-90"/>
    </contour>
  </outline>
</glyph>
<glyph name="copyright" format="2">
  <advance width="637"/>
  <unicode hex="00A9"/>
  <outline>
    <contour>
      <point x="431" y="246" type="curve"/>
      <point x="431" y="241"/>
      <point x="420" y="187"/>
      <point x="414" y="185" type="curve" smooth="yes"/>
      <point x="389" y="176"/>
      <point x="358" y="159"/>
      <point x="321" y="159" type="curve" smooth="yes"/>
      <point x="238" y="159"/>
      <point x="180" y="212"/>
      <point x="180" y="298" type="curve" smooth="yes"/>
      <point x="180" y="385"/>
      <point x="249" y="444"/>
      <point x="325" y="444" type="curve" smooth="yes"/>
      <point x="351" y="444"/>
      <point x="387" y="434"/>
      <point x="410" y="429" type="curve"/>
      <point x="411" y="424"/>
      <point x="424" y="373"/>
      <point x="424" y="368" type="curve" smooth="yes"/>
      <point x="424" y="366"/>
      <point x="414" y="362"/>
      <point x="409" y="362" type="curve" smooth="yes"/>
      <point x="407" y="362"/>
      <point x="405" y="361"/>
      <point x="403" y="363" type="curve"/>
      <point x="399" y="379"/>
      <point x="385" y="419"/>
      <point x="328" y="419" type="curve" smooth="yes"/>
      <point x="271" y="419"/>
      <point x="250" y="360"/>
      <point x="250" y="303" type="curve" smooth="yes"/>
      <point x="250" y="241"/>
      <point x="276" y="184"/>
      <point x="333" y="184" type="curve" smooth="yes"/>
      <point x="357" y="184"/>
      <point x="373" y="190"/>
      <point x="384" y="200" type="curve" smooth="yes"/>
      <point x="401" y="216"/>
      <point x="411" y="247"/>
      <point x="412" y="250" type="curve"/>
      <point x="418" y="250"/>
      <point x="428" y="249"/>
    </contour>
    <contour>
      <point x="96" y="303" type="curve" smooth="yes"/>
      <point x="96" y="180"/>
      <point x="195" y="80"/>
      <point x="318" y="80" type="curve" smooth="yes"/>
      <point x="441" y="80"/>
      <point x="541" y="180"/>
      <point x="541" y="303" type="curve" smooth="yes"/>
      <point x="541" y="426"/>
      <point x="441" y="525"/>
      <point x="318" y="525" type="curve" smooth="yes"/>
      <point x="195" y="525"/>
      <point x="96" y="426"/>
    </contour>
    <contour>
      <point x="52" y="304" type="curve" smooth="yes"/>
      <point x="52" y="451"/>
      <point x="171" y="570"/>
      <point x="318" y="570" type="curve" smooth="yes"/>
      <point x="465" y="570"/>
      <point x="586" y="451"/>
      <point x="586" y="304" type="curve" smooth="yes"/>
      <point x="586" y="157"/>
      <point x="465" y="37"/>
      <point x="318" y="37" type="curve" smooth="yes"/>
      <point x="171" y="37"/>
      <point x="52" y="157"/>
    </contour>
  </outline>
</glyph>
<glyph name="ordfeminine" format="2">
  <advance width="377"/>
  <unicode hex="00AA"/>
  <outline>
    <contour>
      <point x="182" y="289" type="curve" smooth="yes"/>
      <point x="197" y="289"/>
      <point x="210" y="300"/>
      <point x="210" y="304" type="curve" smooth="yes"/>
      <point x="210" y="390" type="line"/>
      <point x="196" y="385"/>
      <point x="177" y="379"/>
      <point x="162" y="370" type="curve" smooth="yes"/>
      <point x="142" y="358"/>
      <point x="138" y="344"/>
      <point x="138" y="329" type="curve" smooth="yes"/>
      <point x="139" y="301"/>
      <point x="163" y="289"/>
    </contour>
    <contour>
      <point x="196" y="544" type="curve" smooth="yes"/>
      <point x="255" y="544"/>
      <point x="303" y="501"/>
      <point x="303" y="441" type="curve" smooth="yes"/>
      <point x="303" y="319" type="line" smooth="yes"/>
      <point x="303" y="301"/>
      <point x="311" y="295"/>
      <point x="320" y="295" type="curve" smooth="yes"/>
      <point x="330" y="295"/>
      <point x="340" y="303"/>
      <point x="343" y="304" type="curve"/>
      <point x="346" y="303"/>
      <point x="350" y="294"/>
      <point x="350" y="290" type="curve" smooth="yes"/>
      <point x="350" y="285"/>
      <point x="348" y="281"/>
      <point x="346" y="278" type="curve"/>
      <point x="336" y="269"/>
      <point x="300" y="243"/>
      <point x="270" y="243" type="curve" smooth="yes"/>
      <point x="247" y="243"/>
      <point x="222" y="257"/>
      <point x="215" y="273" type="curve"/>
      <point x="208" y="268"/>
      <point x="161" y="242"/>
      <point x="136" y="242" type="curve" smooth="yes"/>
      <point x="82" y="242"/>
      <point x="42" y="283"/>
      <point x="42" y="322" type="curve" smooth="yes"/>
      <point x="42" y="347"/>
      <point x="61" y="370"/>
      <point x="79" y="377" type="curve" smooth="yes"/>
      <point x="105" y="387"/>
      <point x="174" y="412"/>
      <point x="210" y="425" type="curve"/>
      <point x="210" y="430"/>
      <point x="210" y="430"/>
      <point x="210" y="435" type="curve" smooth="yes"/>
      <point x="210" y="452" type="line" smooth="yes"/>
      <point x="210" y="485"/>
      <point x="193" y="515"/>
      <point x="169" y="515" type="curve" smooth="yes"/>
      <point x="142" y="515"/>
      <point x="135" y="491"/>
      <point x="128" y="462" type="curve" smooth="yes"/>
      <point x="124" y="447"/>
      <point x="112" y="434"/>
      <point x="88" y="434" type="curve" smooth="yes"/>
      <point x="68" y="434"/>
      <point x="51" y="446"/>
      <point x="51" y="465" type="curve" smooth="yes"/>
      <point x="51" y="474"/>
      <point x="55" y="484"/>
      <point x="61" y="493" type="curve"/>
      <point x="70" y="502"/>
      <point x="134" y="544"/>
    </contour>
  </outline>
</glyph>
<glyph name="logicalnot" format="2">
	<unicode hex="00AC"/>
	<advance width="575"/>
	<outline>
		<contour>
			<point x="508" y="410" type="line"/>
			<point x="508" y="165" type="line"/>
			<point x="507" y="164"/>
			<point x="471" y="156"/>
			<point x="450" y="156" type="curve" smooth="yes"/>
			<point x="440" y="156"/>
			<point x="438" y="163"/>
			<point x="438" y="163" type="curve"/>
			<point x="438" y="163"/>
			<point x="438" y="319"/>
			<point x="438" y="354" type="curve"/>
			<point x="51" y="354" type="line"/>
			<point x="51" y="354"/>
			<point x="45" y="353"/>
			<point x="45" y="363" type="curve"/>
			<point x="45" y="363"/>
			<point x="50" y="410"/>
			<point x="60" y="410" type="curve" smooth="yes"/>
		</contour>
	</outline>
</glyph>
<glyph name="macron" format="2">
  <advance width="458"/>
  <unicode hex="00AF"/>
  <outline>
    <contour>
      <point x="109" y="543" type="curve" smooth="yes"/>
      <point x="109" y="545"/>
      <point x="110" y="583"/>
      <point x="121" y="583" type="curve" smooth="yes"/>
      <point x="331" y="583" type="line" smooth="yes"/>
      <point x="333" y="583"/>
      <point x="335" y="582"/>
      <point x="335" y="576" type="curve" smooth="yes"/>
      <point x="335" y="571"/>
      <point x="335" y="559"/>
      <point x="330" y="541" type="curve" smooth="yes"/>
      <point x="328" y="535"/>
      <point x="323" y="534"/>
      <point x="323" y="534" type="curve"/>
      <point x="115" y="534" type="line"/>
      <point x="115" y="534"/>
      <point x="109" y="533"/>
    </contour>
  </outline>
</glyph>
<glyph name="degree" format="2">
  <advance width="283"/>
  <unicode hex="00B0"/>
  <outline>
    <contour>
      <point x="79" y="524" type="curve" smooth="yes"/>
      <point x="79" y="489"/>
      <point x="107" y="460"/>
      <point x="142" y="460" type="curve" smooth="yes"/>
      <point x="177" y="460"/>
      <point x="205" y="489"/>
      <point x="205" y="524" type="curve" smooth="yes"/>
      <point x="205" y="559"/>
      <point x="177" y="588"/>
      <point x="142" y="588" type="curve" smooth="yes"/>
      <point x="107" y="588"/>
      <point x="79" y="559"/>
    </contour>
    <contour>
      <point x="33" y="524" type="curve" smooth="yes"/>
      <point x="33" y="584"/>
      <point x="82" y="632"/>
      <point x="142" y="632" type="curve" smooth="yes"/>
      <point x="202" y="632"/>
      <point x="250" y="584"/>
      <point x="250" y="524" type="curve" smooth="yes"/>
      <point x="250" y="464"/>
      <point x="202" y="415"/>
      <point x="142" y="415" type="curve" smooth="yes"/>
      <point x="82" y="415"/>
      <point x="33" y="464"/>
    </contour>
  </outline>
</glyph>
<glyph name="plusminus" format="2">
  <advance width="568"/>
  <unicode hex="00B1"/>
  <outline>
    <contour>
      <point x="60" y="65" type="curve"/>
      <point x="510" y="65" type="line" smooth="yes"/>
      <point x="516" y="65"/>
      <point x="519" y="58"/>
      <point x="519" y="52" type="curve" smooth="yes"/>
      <point x="519" y="31"/>
      <point x="512" y="19"/>
      <point x="504" y="9" type="curve"/>
      <point x="55" y="9" type="line" smooth="yes"/>
      <point x="50" y="9"/>
      <point x="49" y="14"/>
      <point x="49" y="24" type="curve" smooth="yes"/>
      <point x="49" y="28"/>
      <point x="52" y="53"/>
    </contour>
    <contour>
      <point x="60" y="355" type="curve"/>
      <point x="254" y="355" type="line"/>
      <point x="254" y="550" type="line"/>
      <point x="265" y="559"/>
      <point x="291" y="561"/>
      <point x="295" y="561" type="curve" smooth="yes"/>
      <point x="305" y="561"/>
      <point x="311" y="559"/>
      <point x="311" y="552" type="curve" smooth="yes"/>
      <point x="311" y="355" type="line"/>
      <point x="510" y="355" type="line" smooth="yes"/>
      <point x="516" y="355"/>
      <point x="519" y="348"/>
      <point x="519" y="342" type="curve" smooth="yes"/>
      <point x="519" y="321"/>
      <point x="512" y="309"/>
      <point x="504" y="299" type="curve"/>
      <point x="311" y="299" type="line"/>
      <point x="311" y="105" type="line"/>
      <point x="299" y="97"/>
      <point x="275" y="95"/>
      <point x="265" y="95" type="curve" smooth="yes"/>
      <point x="259" y="95"/>
      <point x="254" y="99"/>
      <point x="254" y="103" type="curve" smooth="yes"/>
      <point x="254" y="299" type="line"/>
      <point x="55" y="299" type="line" smooth="yes"/>
      <point x="50" y="299"/>
      <point x="49" y="304"/>
      <point x="49" y="314" type="curve" smooth="yes"/>
      <point x="49" y="318"/>
      <point x="52" y="343"/>
    </contour>
  </outline>
</glyph>
<glyph name="mu" format="2">
	<unicode hex="00B5"/>
	<advance width="499"/>
	<outline>
		<contour>
			<point x="225" y="215" type="curve"/>
			<point x="231" y="175"/>
			<point x="251" y="111"/>
			<point x="301" y="111" type="curve" smooth="yes"/>
			<point x="359" y="111"/>
			<point x="412" y="161"/>
			<point x="412" y="212" type="curve"/>
			<point x="409" y="235"/>
			<point x="405" y="299"/>
			<point x="405" y="321" type="curve" smooth="yes"/>
			<point x="405" y="334"/>
			<point x="404" y="375"/>
			<point x="403" y="412" type="curve"/>
			<point x="408" y="420"/>
			<point x="421" y="436"/>
			<point x="433" y="436" type="curve" smooth="yes"/>
			<point x="443" y="436"/>
			<point x="513" y="409"/>
			<point x="513" y="396" type="curve" smooth="yes"/>
			<point x="513" y="365"/>
			<point x="498" y="318"/>
			<point x="487" y="275" type="curve" smooth="yes"/>
			<point x="479" y="245"/>
			<point x="473" y="223"/>
			<point x="464" y="190" type="curve"/>
			<point x="463" y="110"/>
			<point x="497" y="102"/>
			<point x="515" y="102" type="curve" smooth="yes"/>
			<point x="552" y="102"/>
			<point x="572" y="136"/>
			<point x="582" y="153" type="curve"/>
			<point x="588" y="153"/>
			<point x="598" y="133"/>
			<point x="600" y="126" type="curve" smooth="yes"/>
			<point x="601" y="122"/>
			<point x="599" y="109"/>
			<point x="598" y="106" type="curve" smooth="yes"/>
			<point x="584" y="65"/>
			<point x="558" y="-4"/>
			<point x="519" y="-4" type="curve" smooth="yes"/>
			<point x="472" y="-3"/>
			<point x="444" y="57"/>
			<point x="435" y="119" type="curve"/>
			<point x="415" y="51"/>
			<point x="376" y="-8"/>
			<point x="321" y="-8" type="curve" smooth="yes"/>
			<point x="272" y="-8"/>
			<point x="224" y="74"/>
			<point x="216" y="134" type="curve"/>
			<point x="218" y="110"/>
			<point x="223" y="-83"/>
			<point x="244" y="-198" type="curve"/>
			<point x="239" y="-206"/>
			<point x="221" y="-222"/>
			<point x="203" y="-222" type="curve" smooth="yes"/>
			<point x="184" y="-222"/>
			<point x="144" y="-184"/>
			<point x="144" y="-171" type="curve" smooth="yes"/>
			<point x="144" y="-153"/>
			<point x="156" y="109"/>
			<point x="168" y="211" type="curve"/>
			<point x="168" y="234"/>
			<point x="152" y="349"/>
			<point x="152" y="371" type="curve" smooth="yes"/>
			<point x="152" y="384"/>
			<point x="153" y="406"/>
			<point x="155" y="414" type="curve"/>
			<point x="159" y="425"/>
			<point x="168" y="436"/>
			<point x="180" y="436" type="curve" smooth="yes"/>
			<point x="190" y="436"/>
			<point x="257" y="409"/>
			<point x="257" y="396" type="curve" smooth="yes"/>
			<point x="257" y="359"/>
			<point x="249" y="328"/>
			<point x="243" y="301" type="curve" smooth="yes"/>
			<point x="235" y="263"/>
			<point x="231" y="242"/>
		</contour>
	</outline>
</glyph>
<glyph name="periodcentered" format="2">
  <advance width="292"/>
  <unicode hex="00B7"/>
  <outline>
    <contour>
      <point x="74.5" y="259" type="curve" smooth="yes"/>
      <point x="74.5" y="298"/>
      <point x="106.5" y="330"/>
      <point x="146.5" y="330" type="curve" smooth="yes"/>
      <point x="185.5" y="330"/>
      <point x="217.5" y="298"/>
      <point x="217.5" y="259" type="curve" smooth="yes"/>
      <point x="217.5" y="220"/>
      <point x="187.5" y="185"/>
      <point x="148.5" y="185" type="curve" smooth="yes"/>
      <point x="107.5" y="185"/>
      <point x="74.5" y="220"/>
    </contour>
  </outline>
</glyph>
<glyph name="cedilla" format="2">
  <advance width="443"/>
  <unicode hex="00B8"/>
  <outline>
    <contour>
      <point x="228" y="-24" type="curve"/>
      <point x="236" y="-23"/>
      <point x="240" y="-22"/>
      <point x="249" y="-22" type="curve" smooth="yes"/>
      <point x="275" y="-22"/>
      <point x="298" y="-45"/>
      <point x="298" y="-70" type="curve" smooth="yes"/>
      <point x="298" y="-116"/>
      <point x="263" y="-152"/>
      <point x="203" y="-152" type="curve" smooth="yes"/>
      <point x="182" y="-152"/>
      <point x="163" y="-144"/>
      <point x="156" y="-137" type="curve"/>
      <point x="154" y="-134"/>
      <point x="152" y="-121"/>
      <point x="152" y="-117" type="curve" smooth="yes"/>
      <point x="152" y="-111"/>
      <point x="153" y="-110"/>
      <point x="155" y="-110" type="curve"/>
      <point x="159" y="-112"/>
      <point x="181" y="-125"/>
      <point x="202" y="-125" type="curve" smooth="yes"/>
      <point x="235" y="-125"/>
      <point x="245" y="-110"/>
      <point x="245" y="-96" type="curve" smooth="yes"/>
      <point x="245" y="-82"/>
      <point x="241" y="-63"/>
      <point x="220" y="-63" type="curve" smooth="yes"/>
      <point x="214" y="-63"/>
      <point x="204" y="-66"/>
      <point x="194" y="-70" type="curve"/>
      <point x="191" y="-70"/>
      <point x="182" y="-62"/>
      <point x="182" y="-56" type="curve"/>
      <point x="191" y="-41"/>
      <point x="203" y="-17"/>
      <point x="209" y="-2" type="curve"/>
      <point x="240" y="-2" type="line"/>
      <point x="240" y="-2"/>
      <point x="233" y="-15"/>
    </contour>
  </outline>
</glyph>
